<?xml version="1.0" encoding="utf-8"?>
<!-- Generator: Adobe Illustrator 18.1.1, SVG Export Plug-In . SVG Version: 6.00 Build 0)  -->
<svg version="1.1" id="Layer_1" xmlns="http://www.w3.org/2000/svg" xmlns:xlink="http://www.w3.org/1999/xlink" x="0px" y="0px"
	 width="360px" height="281.3px" viewBox="0 0 360 281.3" enable-background="new 0 0 360 281.3" xml:space="preserve">
<g>
	<defs>
		<rect id="SVGID_1_" x="0" y="0" width="360" height="281.3"/>
	</defs>
	<clipPath id="SVGID_2_">
		<use xlink:href="#SVGID_1_"  overflow="visible"/>
	</clipPath>
	<g opacity="0.32" clip-path="url(#SVGID_2_)">
		<path opacity="0.5" fill="#8BC53F" d="M19.4,109.2c0,0,0.2-0.1,0.6-0.2c0.4-0.1,1-0.3,1.9-0.4c1.7-0.4,4.4-1,8-1.8
			c7.3-1.4,18.6-3.6,35-5.2c33.8-3.2,69.8-2.7,105.4,1.9c8.9,1.2,17.8,2.5,26.5,4.2c8.7,1.7,17.4,3.7,25.7,6c8.3,2.3,16.4,5,23.7,8
			c4.3,1.9,8.6,3.7,12.9,5.6c4.2,1.9,8.4,3.8,12.7,5.8c4.2,1.9,8.3,4,12.5,6c4.2,1.9,8.2,4.1,12.3,6.2c2,1,4.1,2.1,6.1,3.1l3.1,1.6
			l3,1.7c4,2.2,8,4.4,12,6.6l3,1.6l2.9,1.7c2,1.2,3.9,2.3,5.9,3.5c3.9,2.3,7.8,4.6,11.7,6.9c3.8,2.4,7.6,4.8,11.4,7.2
			c1.9,1.2,3.8,2.4,5.7,3.6l2.8,1.8l2.8,1.9c3.7,2.5,7.4,5,11,7.4c1.8,1.2,3.7,2.5,5.5,3.7l2.7,1.8l2.7,1.9
			c7.1,5.1,14.1,10.2,21.1,15.2c6.8,5.2,13.5,10.4,20.1,15.5c1.6,1.3,3.3,2.5,4.9,3.8c1.6,1.3,3.2,2.6,4.8,3.9
			c3.2,2.6,6.4,5.2,9.5,7.8c50.2,41.1,90.4,80.7,118.3,109.4c3.5,3.6,6.9,6.9,10,10.1c3.1,3.2,5.9,6.3,8.6,9.2
			c5.4,5.7,10,10.6,13.7,14.6c7.5,8,11.6,12.3,11.6,12.3s-3.2-5-9.2-14.2c-3-4.6-6.7-10.2-11-16.8c-2.2-3.3-4.5-6.9-7-10.6
			c-2.6-3.7-5.3-7.6-8.2-11.7c-22.9-33.2-56.7-79.2-102.4-128.3c-2.9-3.1-5.8-6.2-8.7-9.3c-1.5-1.6-2.9-3.1-4.4-4.7
			c-1.5-1.6-3-3.1-4.6-4.6c-6.2-6.1-12.4-12.4-18.8-18.7c-6.5-6.1-13.2-12.3-20-18.6l-2.5-2.4l-2.6-2.3c-1.8-1.5-3.5-3-5.3-4.6
			c-3.5-3-7.1-6.1-10.7-9.2l-2.7-2.3l-2.8-2.2c-1.9-1.5-3.7-3-5.6-4.5c-3.7-3-7.5-6-11.3-9c-3.8-3-7.8-5.8-11.7-8.7
			c-2-1.5-3.9-2.9-5.9-4.4l-3-2.2l-3-2.1c-4.1-2.8-8.1-5.6-12.2-8.4l-3.1-2.1l-3.1-2c-2.1-1.3-4.2-2.7-6.3-4
			c-4.2-2.7-8.4-5.4-12.8-8c-4.3-2.6-8.6-5.2-13-7.7c-4.4-2.5-8.8-4.9-13.2-7.4c-4.4-2.4-8.9-4.7-13.3-7.1
			c-10.3-5.3-20.5-9.5-30.7-13.1c-20.4-7.3-40.9-12.3-61.5-16c-10.3-1.9-20.6-3.3-30.9-4.5c-10.3-1.2-20.6-2-30.9-2.4
			c-20.5-1-41-0.4-61.2,1.5c-19.5,1.9-33.4,4.5-42.4,6.3c-4.5,1-7.8,1.7-9.9,2.2c-1.1,0.2-1.9,0.4-2.4,0.6c-0.5,0.1-0.8,0.2-0.8,0.2
			s-1,1-2.5,2.9c-1.4,1.9-3.3,4.7-4.9,8.2C-8,58-9.9,67.9-6.4,79.3S3.9,98,9.4,102.6c2.8,2.3,5.3,4,7.1,5.1
			C18.3,108.8,19.4,109.2,19.4,109.2z"/>
		<path opacity="0.52" fill="#8BC53F" d="M36.1,26.9c-2.5,0.4-4.9,0.8-7.1,1.1c-2.3,0.4-4.4,0.7-6.5,1.1c-2,0.4-4,0.8-5.8,1.1
			c-1.8,0.3-3.6,0.7-5.2,1.1c-3.3,0.7-6.2,1.4-8.7,1.9c-2.5,0.6-4.7,1.2-6.6,1.7c-1.9,0.5-3.4,0.9-4.7,1.2c-1.3,0.4-2.3,0.7-3.1,0.9
			c-1.6,0.5-2.2,0.6-2.2,0.6s-1.4,1.3-3.4,3.7c-2,2.4-4.5,6.1-6.5,10.4c-0.5,1.1-1,2.2-1.5,3.4c-0.5,1.2-0.9,2.5-1.2,3.8
			c-0.7,2.6-1.3,5.4-1.5,8.3c-0.5,5.8,0.3,12.1,2.8,18.6c0,0,2.8-1,8.1-3c2.6-1,5.9-2,9.8-3.3c1.9-0.6,4-1.2,6.3-1.8
			c1.1-0.3,2.3-0.7,3.5-1c1.2-0.3,2.4-0.6,3.7-1c10.1-2.7,22.5-5.4,36.9-7.4c14.4-2.1,30.8-3.6,48.7-4.1c17.9-0.4,37.3,0.1,57.8,2.1
			c20.4,2.1,41.9,5.4,63.6,10.9c10.9,2.8,21.8,6,32.5,10.1c2.7,1,5.4,2.2,8,3.2c1.3,0.6,2.6,1.2,4,1.8c1.3,0.6,2.6,1.2,4,1.9
			c5.2,2.6,10.5,5,15.8,7.7c21,10.6,41.8,22.4,61.9,35.3c5,3.3,9.9,6.6,14.9,9.9l3.7,2.5l3.6,2.6c2.4,1.7,4.8,3.5,7.3,5.2
			c9.8,6.8,19.1,14.1,28.4,21.3c1.2,0.9,2.3,1.8,3.5,2.7l3.4,2.8c2.3,1.9,4.5,3.7,6.8,5.6c4.5,3.7,9,7.3,13.4,11.1
			c4.3,3.8,8.6,7.6,12.9,11.3c2.1,1.9,4.3,3.7,6.4,5.6c1.1,0.9,2.1,1.9,3.2,2.8c1,0.9,2.1,1.9,3.1,2.9c4.1,3.8,8.1,7.6,12.1,11.4
			c2,1.9,4,3.8,6,5.6c2,1.9,4,3.7,5.9,5.6c7.6,7.6,15.1,15.1,22.3,22.3c1.8,1.8,3.6,3.7,5.3,5.5c1.7,1.8,3.5,3.7,5.2,5.5
			c3.4,3.6,6.8,7.2,10.1,10.7c1.7,1.8,3.3,3.5,4.9,5.2c1.6,1.7,3.3,3.4,4.8,5.2c3.1,3.5,6.1,6.9,9.1,10.3c5.9,6.7,11.6,13.1,17,19.3
			c5.2,6.3,10.2,12.2,14.9,17.8c4.7,5.6,9,10.8,13,15.7c4,4.9,7.5,9.5,10.7,13.6c12.9,16.4,20.3,25.8,20.3,25.8s-3.3-5.2-9.4-14.9
			c-3.1-4.8-6.9-10.8-11.3-17.7c-1.1-1.7-2.3-3.5-3.5-5.4c-0.6-0.9-1.2-1.9-1.8-2.8c-0.6-0.9-1.3-1.9-2-2.9c-2.7-3.9-5.5-8-8.4-12.3
			c-23.6-34.8-58.6-83-105.9-134.1c-23.7-25.5-50.5-51.8-80.9-76.7c-3.8-3.1-7.6-6.2-11.5-9.3c-1.9-1.6-3.9-3.1-5.9-4.6
			c-2-1.5-4-3-6-4.5c-2-1.5-4-3-6-4.5l-3-2.3c-1-0.8-2.1-1.5-3.1-2.2c-4.2-2.9-8.3-5.8-12.5-8.8c-16.9-11.5-34.5-22.5-52.7-32.5
			l-6.8-3.7l-3.4-1.8c-1.1-0.6-2.2-1.2-3.6-1.9c-2.7-1.3-5.4-2.7-8-3.9l-4-1.8c-1.3-0.6-2.7-1.1-4-1.7c-10.6-4.5-21.2-8.2-31.7-11.4
			c-10.6-3.2-21.1-5.9-31.7-8.2c-10.6-2.3-21.2-4.2-31.8-5.7c-21.2-3-42.5-4.6-63.6-4.8c-10.6-0.1-21.1,0.3-31.6,1
			C56.8,24.3,46.4,25.4,36.1,26.9z"/>
		<path opacity="0.39" fill="#8BC53F" d="M82.9,106.9c-7.5,0.4-13.9,0.9-19.3,1.5c-2.7,0.3-5.1,0.5-7.3,0.8
			c-2.2,0.3-4.1,0.5-5.8,0.8c-1.7,0.2-3.1,0.4-4.4,0.6c-1.2,0.2-2.2,0.4-3,0.5c-1.6,0.3-2.3,0.4-2.3,0.4s-1.4-0.7-3.6-2
			c-2.2-1.4-5.2-3.5-8.4-6.4c-3.2-2.9-6.7-6.6-9.9-11.3c-3.2-4.7-5.9-10.4-7.6-17.2c0,0,0.2,0,0.5-0.1c0.3-0.1,0.8-0.2,1.5-0.4
			c1.3-0.3,3.3-0.7,5.9-1.3c5.2-1.2,12.8-2.6,22.5-4.1c19.5-2.9,47.7-5.4,81.6-3.9c8.5,0.4,17.3,1,26.3,1.9c9.1,0.9,18.4,2.1,28,3.6
			c19.1,3.2,39.2,7.5,59.2,14.3c1.3,0.4,2.5,0.9,3.8,1.3c1.3,0.4,2.5,0.9,3.7,1.4c1.2,0.5,2.5,0.9,3.7,1.4c1.2,0.5,2.5,1,3.7,1.5
			l1.9,0.8l1.8,0.8c1.2,0.6,2.5,1.1,3.7,1.7c2.4,1.2,4.9,2.4,7.3,3.5c2.4,1.2,4.9,2.4,7.4,3.6c2.4,1.2,4.9,2.5,7.3,3.7
			c2.4,1.3,4.9,2.5,7.4,3.8c2.4,1.3,4.9,2.6,7.3,4c2.4,1.3,4.9,2.7,7.3,4c2.4,1.4,4.8,2.8,7.3,4.2c4.8,2.8,9.7,5.6,14.5,8.6
			c4.8,3,9.6,5.9,14.3,8.9c4.7,3.1,9.4,6.2,14.1,9.4c4.7,3.1,9.3,6.5,13.9,9.7l6.9,4.9l3.4,2.5c1.1,0.8,2.2,1.7,3.4,2.5
			c4.5,3.4,8.9,6.8,13.4,10.2c2.2,1.7,4.5,3.4,6.6,5.1c2.2,1.8,4.3,3.5,6.5,5.3c4.3,3.5,8.6,7,12.8,10.5c2.2,1.7,4.2,3.5,6.3,5.3
			c2.1,1.8,4.1,3.6,6.2,5.4c4.1,3.6,8.2,7.2,12.2,10.7c2,1.7,4,3.6,5.9,5.4c1.9,1.8,3.9,3.6,5.8,5.5c7.7,7.3,15.4,14.3,22.5,21.6
			c3.6,3.6,7.2,7.2,10.7,10.7c1.8,1.8,3.5,3.5,5.2,5.2c0.9,0.9,1.7,1.7,2.6,2.6c0.8,0.9,1.7,1.8,2.5,2.7
			c6.6,7.1,13.1,13.9,19.3,20.6c1.6,1.7,3.1,3.3,4.6,4.9c1.5,1.6,3,3.3,4.4,5c2.9,3.3,5.8,6.5,8.6,9.7c5.6,6.4,11,12.4,16.1,18.2
			c4.9,5.9,9.6,11.5,14,16.8c4.4,5.3,8.5,10.2,12.3,14.8c1.9,2.3,3.7,4.5,5.4,6.7c1.7,2.1,3.3,4.2,4.8,6.1
			c12.2,15.5,19.2,24.4,19.2,24.4s-4.1-4.2-11.7-12c-7.6-7.7-18.4-19.3-32.7-33c-3.5-3.5-7.2-7.1-11.1-10.9
			c-3.9-3.8-7.8-7.8-12.2-11.8c-8.6-8-17.8-16.6-27.6-25.7c-5-4.4-10.1-9-15.4-13.7c-2.6-2.3-5.3-4.7-8-7.1
			c-1.3-1.2-2.7-2.4-4.1-3.6c-1.4-1.2-2.8-2.4-4.2-3.5c-5.6-4.7-11.4-9.6-17.2-14.5c-1.5-1.2-2.9-2.5-4.4-3.7
			c-0.7-0.6-1.5-1.2-2.2-1.9c-0.8-0.6-1.5-1.2-2.3-1.8c-3-2.4-6.1-4.8-9.2-7.3c-3.1-2.5-6.2-4.9-9.3-7.4c-1.6-1.2-3.1-2.5-4.7-3.8
			c-1.6-1.3-3.2-2.4-4.8-3.7c-6.5-4.8-13.1-9.8-19.7-14.7c-6.7-4.8-13.7-9.6-20.6-14.5c-1.7-1.2-3.4-2.5-5.2-3.6
			c-1.8-1.2-3.6-2.3-5.3-3.5c-3.6-2.3-7.1-4.7-10.7-7c-1.8-1.2-3.6-2.4-5.4-3.5c-1.8-1.1-3.7-2.2-5.5-3.4c-3.7-2.3-7.4-4.5-11.1-6.8
			c-3.7-2.3-7.5-4.4-11.2-6.6c-3.8-2.2-7.5-4.3-11.3-6.5c-15.3-8.3-30.8-16.5-46.8-23.8c-3.9-1.9-8-3.7-12-5.5l-6-2.7l-6.2-2.6
			l-6.1-2.6c-1.1-0.5-1.8-0.7-2.7-1.1l-2.5-1l-5.3-1.9l-5.6-1.8c-7.5-2.3-15.5-4.3-23.5-6c-8.1-1.7-16.2-3.2-24.5-4.4
			c-8.2-1.2-16.5-2.2-24.8-3c-8.3-0.7-16.5-1.4-24.7-1.7c-8.2-0.4-16.3-0.6-24.3-0.5C98.6,106.3,90.7,106.6,82.9,106.9z"/>
		<path fill="#8BC53F" d="M109.7,89.6c-7.1-0.2-19.9,0-30.9,0.7c-5.5,0.3-10.5,0.8-14.2,1.1c-3.7,0.4-5.9,0.6-5.9,0.6s-1-1-2.4-2.8
			c-1.4-1.8-3.2-4.5-4.7-7.9c31.4-4,65.8-4.5,101.3-1.1c8.9,0.8,17.8,2,26.7,3.4c8.9,1.4,17.9,3.1,26.7,5.1c8.9,2,17.7,4.4,26.4,7.1
			c4.3,1.4,8.6,2.9,12.8,4.5c2.1,0.8,4.2,1.6,6.2,2.5l3.1,1.3l3.2,1.5c17.1,7.9,34,16.2,50.3,25.4l6.2,3.4c2,1.2,4,2.4,6,3.6
			c4,2.4,8.1,4.8,12.1,7.1c3.9,2.5,7.9,5,11.8,7.5c3.9,2.5,7.9,4.9,11.7,7.6c30.8,20.5,59.4,42.9,85.4,65.2
			c6.4,5.6,12.7,11.3,18.9,16.8c1.6,1.4,3.1,2.8,4.6,4.1c1.5,1.4,3.1,2.7,4.5,4.1c3,2.8,5.9,5.6,8.8,8.3c5.8,5.5,11.5,10.9,17,16.2
			c5.4,5.4,10.7,10.8,15.8,15.9c2.6,2.6,5.1,5.1,7.6,7.7c1.2,1.3,2.5,2.5,3.7,3.8c1.2,1.3,2.4,2.5,3.6,3.8c4.7,5,9.3,9.9,13.7,14.6
			c2.2,2.4,4.4,4.7,6.5,6.9c2.1,2.3,4.2,4.4,6.2,6.7c3.9,4.5,7.7,8.7,11.3,12.8c3.6,4.1,7,7.9,10.3,11.6c3.2,3.7,6.3,7.1,9.1,10.4
			c5.5,6.6,10.2,12.2,14.1,16.8c7.7,9.2,12,14.3,12,14.3s-3.7-4.1-10.6-11.8c-3.4-3.8-7.7-8.5-12.6-14c-2.5-2.7-5.1-5.7-8-8.8
			c-2.9-3.1-6-6.3-9.2-9.7c-6.4-6.8-13.6-14.3-21.2-22.4c-7.9-7.9-16.4-16.4-25.3-25.5c-1.1-1.1-2.2-2.3-3.4-3.4
			c-1.2-1.1-2.4-2.2-3.5-3.4c-2.4-2.3-4.8-4.5-7.2-6.8c-4.9-4.6-9.8-9.4-14.9-14.2c-2.5-2.5-5.2-4.8-7.9-7.2
			c-2.7-2.4-5.4-4.8-8.1-7.3c-2.7-2.4-5.5-4.9-8.2-7.4c-2.8-2.5-5.5-5-8.5-7.4c-5.8-4.9-11.7-9.9-17.6-14.9c-1.5-1.3-3-2.5-4.5-3.8
			c-1.5-1.3-3.1-2.5-4.6-3.7c-3.1-2.5-6.2-4.9-9.3-7.4c-3.1-2.5-6.3-5-9.4-7.5c-0.8-0.6-1.6-1.3-2.4-1.9l-2.4-1.8
			c-1.6-1.2-3.3-2.4-4.9-3.7c-3.3-2.4-6.6-4.9-9.9-7.4c-1.6-1.2-3.3-2.5-5-3.7c-1.7-1.2-3.4-2.4-5.1-3.6c-27-19.3-56-37.6-86.4-53.6
			l-5.7-3c-1.9-1-3.8-1.9-5.8-2.9c-3.9-1.9-7.7-3.9-11.5-5.7l-11.7-5.5c-3.9-1.8-7.9-3.6-11.8-5.4l-2.9-1.3l-2.7-1.1
			c-1.7-0.8-3.6-1.4-5.4-2.1c-1.8-0.7-3.7-1.4-5.6-2c-1.9-0.7-3.8-1.3-5.7-1.9c-7.7-2.4-15.6-4.5-23.6-6.4c-8-1.8-16.1-3.4-24.2-4.7
			c-8.1-1.3-16.3-2.4-24.4-3.4C141.5,90.8,125.4,89.8,109.7,89.6z"/>
		<path fill="#8BC53F" d="M110.4,43.4c-7.8-0.2-20.3,0-30.7,0.5c-5.2,0.3-10,0.6-13.4,0.9c-3.4,0.3-5.6,0.5-5.6,0.5
			s-0.7,0.5-1.8,1.6c-1.1,1.1-2.5,2.6-3.8,4.6c-1.4,2-2.7,4.3-3.7,7c-1,2.7-1.6,5.8-1.5,9.1c32.5-4.1,68-4.5,104.4-0.5
			c9.1,1,18.3,2.3,27.4,3.8c9.2,1.5,18.4,3.4,27.5,5.6c18.3,4.5,36.6,10.2,53.7,18.6c17.2,8.3,34.2,17.1,50.6,26.8l6.2,3.6
			c2,1.2,4,2.5,6.1,3.7c4,2.5,8.1,5,12.1,7.5c3.9,2.6,7.9,5.2,11.8,7.8c3.9,2.6,7.9,5.1,11.7,7.9c30.7,21.5,59,44.7,84.6,67.8
			c51,46.6,91.4,92.2,119.3,125.6c3.5,4.2,6.8,8.2,9.9,11.9c3.1,3.8,6.1,7.2,8.7,10.7c5.3,6.8,9.9,12.6,13.6,17.3
			c7.4,9.5,11.5,14.6,11.5,14.6s-3.2-4.6-9.1-13c-3-4.2-6.6-9.4-10.8-15.4c-2.1-3-4.4-6.3-6.9-9.7c-2.5-3.4-5.2-7-8-10.7
			c-5.7-7.5-11.8-15.9-18.7-24.8c-7-8.8-14.6-18.2-22.6-28.3c-1-1.3-2-2.5-3-3.8c-1.1-1.2-2.1-2.5-3.2-3.7c-2.1-2.5-4.3-5.1-6.5-7.6
			c-4.4-5.2-9-10.5-13.6-15.9c-2.3-2.7-4.8-5.4-7.2-8.1c-2.5-2.7-4.9-5.4-7.5-8.2c-2.5-2.7-5.1-5.5-7.6-8.3
			c-2.6-2.8-5.1-5.7-7.9-8.4c-5.4-5.5-10.9-11.1-16.5-16.8c-1.4-1.4-2.8-2.9-4.2-4.3c-1.4-1.4-2.9-2.8-4.4-4.2
			c-2.9-2.8-5.9-5.6-8.9-8.4c-3-2.8-6-5.7-9-8.6c-0.8-0.7-1.5-1.4-2.3-2.1l-2.3-2.1c-1.6-1.4-3.1-2.8-4.7-4.2
			c-3.2-2.8-6.3-5.6-9.5-8.4c-1.6-1.4-3.2-2.8-4.8-4.2c-1.6-1.4-3.3-2.7-5-4.1c-26.3-22.3-55.3-43.6-86.4-62.6l-5.8-3.6
			c-2-1.2-3.9-2.3-5.9-3.4c-4-2.3-7.9-4.6-11.9-6.8l-12-6.5c-4-2.1-8.1-4.2-12.1-6.3l-3.1-1.6l-3.3-1.6c-2.2-1.1-4.5-2.1-6.7-3
			c-2.2-1-4.5-1.9-6.7-2.8c-2.2-0.9-4.5-1.7-6.7-2.5c-8.9-3.2-17.9-6-26.9-8.4C181.2,48.3,145.2,44,110.4,43.4z"/>
	</g>
	<g opacity="0.23" clip-path="url(#SVGID_2_)">
		<path opacity="0.5" fill="#ABE1FA" d="M88,80.7c0,0,2.9,0,9.3,0c3.2-0.1,7.3,0.2,12.4,0.4c5,0.1,11.1,0.8,18.1,1.3
			c14.5,1.5,29.3,3.5,44.3,6.2c14.9,2.8,29.9,6.2,44.8,10.2c3.7,1,7.4,2.1,11.1,3.1c3.7,1.1,7.4,2.3,11.1,3.4
			c7.3,2.4,14.6,4.8,21.8,7.6c1.8,0.7,3.6,1.3,5.4,2l5.3,2.2l5.3,2.2l4.8,2.2c6.5,3,13.3,6.4,20,10.2c13.5,7.5,27,15.7,40.2,24.1
			c13.2,8.5,26.1,17.2,38.7,26c25.1,17.6,48.8,35.4,70.4,52.7c21.6,17.3,41.1,34.2,58,49.9c16.9,15.7,31.1,30.3,42.4,43
			c1.4,1.6,2.8,3.1,4.1,4.6c1.3,1.5,2.5,3,3.8,4.5c2.4,2.9,4.8,5.6,6.8,8.3c2,2.6,4,5,5.7,7.3c1.7,2.3,3.2,4.4,4.6,6.3
			c0.7,0.9,1.3,1.8,1.9,2.7c0.6,0.9,1.1,1.6,1.6,2.4c1,1.5,1.8,2.7,2.5,3.7c1.4,2,2.1,3.1,2.1,3.1s-0.5-1.2-1.4-3.4
			c-0.5-1.1-1-2.5-1.7-4.2c-0.3-0.8-0.7-1.7-1.1-2.7c-0.4-1-0.9-2-1.3-3c-1-2.1-2-4.5-3.2-7.2c-1.2-2.6-2.7-5.4-4.2-8.4
			c-1.5-3.1-3.2-6.2-5.1-9.6c-0.9-1.7-1.9-3.5-2.9-5.3c-1-1.8-2.1-3.6-3.2-5.5c-8.8-15-20.3-32.5-34.6-51.5
			c-14.2-19-31.1-39.6-50.3-60.8c-19.2-21.2-40.7-43.1-64.3-64.7c-11.8-10.8-24.1-21.6-36.9-32.2c-12.9-10.6-26.3-21-40.7-31
			c-7.2-5-14.7-9.9-22.9-14.6c-2.1-1.2-4.2-2.4-6.2-3.5l-6-3.1l-6-3.1c-2-1-4-1.9-6.1-2.9c-8.1-3.9-16.3-7.4-24.6-10.7
			c-4.2-1.6-8.3-3.2-12.4-4.8c-4.2-1.5-8.4-2.9-12.6-4.4C220,27.8,203,23.1,186,19.3c-17.1-3.6-34.2-6.3-51.3-8
			c-8.3-0.6-15.4-1.4-21.4-1.5c-6-0.2-10.9-0.6-14.8-0.5c-7.7,0-11.3-0.1-11.3-0.1S87,9.4,86.5,9.7c-0.5,0.4-1.1,0.9-1.9,1.7
			c-1.6,1.5-3.6,3.9-5.6,6.9c-4,6.1-7.5,15.2-6.8,27.1c0.7,11.9,4.8,20.7,8.5,26.5c1.9,2.9,3.7,5.1,5,6.5c0.7,0.7,1.2,1.3,1.6,1.7
			C87.8,80.5,88,80.7,88,80.7z"/>
		<path opacity="0.52" fill="#ABE1FA" d="M117.2,3.7c-8.5-0.4-15.4-0.8-21.1-0.7c-2.8,0-5.3,0-7.5,0c-2.2,0-4.1,0-5.7,0.1
			c-6.5,0.2-8.7,0.3-8.7,0.3s-1.4,0.9-3.5,2.8c-2.1,1.8-4.8,4.7-7.4,8.4c-2.6,3.7-5,8.3-6.6,13.8c-1.6,5.4-2.2,11.6-1.5,18.6
			c0,0,2.5-0.2,7.3-0.6c2.4-0.2,5.3-0.5,8.8-0.7c3.5-0.1,7.4-0.3,11.9-0.4c2.2-0.1,4.6-0.1,7-0.1c2.5,0,5,0,7.7,0
			c1.3,0,2.7,0,4.1,0.1c1.4,0.1,2.8,0.1,4.3,0.2c2.9,0.1,5.9,0.3,9,0.4c3.1,0.1,6.3,0.5,9.6,0.7c1.6,0.1,3.3,0.3,5,0.4
			c0.8,0.1,1.7,0.1,2.6,0.2c0.9,0.1,1.7,0.2,2.6,0.3c3.5,0.4,7,0.8,10.6,1.2c0.9,0.1,1.8,0.2,2.7,0.3c0.9,0.1,1.8,0.3,2.8,0.4
			c1.8,0.3,3.7,0.6,5.6,0.8s3.8,0.6,5.7,0.9c1.9,0.3,3.9,0.7,5.8,1c3.9,0.7,7.9,1.4,11.9,2.2c4,0.9,8.1,1.8,12.3,2.7
			c4.2,0.9,8.3,2,12.6,3.1c16.9,4.4,34.6,9.8,52.5,16.6c2.2,0.9,4.5,1.7,6.7,2.6c2.3,0.8,4.5,1.9,6.7,2.8c2.2,0.9,4.5,1.9,6.7,2.9
			c2.2,1,4.4,2,6.7,3.1c9,4,17.7,8.8,26.3,13.9c8.6,5.2,17.1,10.6,25.5,16.4c4.2,2.8,8.3,5.8,12.5,8.7c4.1,3,8.3,5.9,12.4,9
			c65.5,48.5,125.2,104.6,165.1,150.9c10,11.6,18.7,22.5,26.2,32.5c3.6,5,7.1,9.7,10.1,14.2c1.5,2.2,3,4.4,4.3,6.4
			c1.3,2.1,2.6,4.1,3.8,5.9c1.2,1.9,2.4,3.6,3.3,5.4c1,1.7,1.9,3.3,2.8,4.8c0.9,1.5,1.7,2.9,2.4,4.1c0.7,1.3,1.3,2.5,1.9,3.5
			c2.2,4.2,3.4,6.5,3.4,6.5s-0.5-1.2-1.4-3.6c-0.5-1.2-1-2.7-1.7-4.4c-0.3-0.9-0.7-1.8-1.1-2.8c-0.4-1-0.9-2.1-1.4-3.2
			c-1-2.3-2.1-4.8-3.3-7.5c-1.3-2.7-2.7-5.7-4.3-8.9c-0.4-0.8-0.8-1.6-1.2-2.4c-0.4-0.8-0.9-1.6-1.3-2.5c-0.9-1.7-1.8-3.4-2.8-5.2
			c-1.9-3.6-4-7.3-6.3-11.3c-18.1-31.5-48-73.3-87.8-117.4c-19.9-22.1-42.1-44.8-66.5-67.2c-12.2-11.2-25-22.4-38.4-33.3
			c-13.5-10.9-27.5-21.6-43-31.8c-1.9-1.3-4-2.5-6-3.8l-3-1.9l-3.2-1.9l-3.2-1.9l-1.6-0.9l-1.5-0.8l-6.2-3.3
			c-2.1-1.1-4.1-2.2-6.2-3.2l-6.2-3l-6.3-3l-6.3-2.8c-4.2-1.8-8.4-3.7-12.7-5.4l-6.4-2.5c-2.1-0.8-4.3-1.7-6.4-2.4
			c-4.3-1.5-8.6-3.1-12.9-4.6c-4.3-1.4-8.7-2.8-13-4.2c-17.4-5.3-35-9.6-52.6-12.9C152.4,6.9,134.7,4.8,117.2,3.7z"/>
		<path opacity="0.39" fill="#ABE1FA" d="M142.1,90.7c-3.2-0.4-6.2-0.7-9-1c-2.8-0.3-5.3-0.6-7.6-0.8c-4.6-0.4-8.3-0.7-11.3-0.9
			c-5.8-0.3-8.5-0.4-8.5-0.4s-1.1-0.9-2.6-2.8c-0.8-0.9-1.7-2.1-2.7-3.4c-1-1.3-2.1-2.9-3.2-4.6c-4.3-7-9-17.6-9.2-31.7
			c0,0,2.4,0,6.9,0c1.1,0,2.4,0,3.8,0c1.4,0,2.9,0,4.5,0.1c3.3,0.1,7,0.3,11.2,0.5c8.4,0.5,18.6,1.3,30.2,2.8c2.9,0.3,5.9,0.8,9,1.2
			c3.1,0.5,6.2,0.9,9.5,1.4c3.2,0.6,6.6,1.2,10,1.8c1.7,0.3,3.4,0.6,5.2,1c1.7,0.3,3.5,0.7,5.2,1.1c3.5,0.8,7.1,1.5,10.8,2.3
			c3.6,0.9,7.4,1.8,11.1,2.8c3.8,0.9,7.6,2,11.4,3.1c3.9,1.1,7.8,2.2,11.7,3.5c15.8,4.9,32.2,10.8,48.8,18.1
			c4.1,1.8,8.2,3.8,12.4,5.7c4.1,2,8.2,4.1,12.3,6.4c8.1,4.5,16.1,9.4,24,14.6c15.9,10.3,31.5,21.6,46.8,33.3
			c61.2,46.7,117.3,99.9,154.8,143.9c9.4,10.9,17.6,21.4,24.7,30.7c1.7,2.4,3.4,4.7,5,6.9c0.8,1.1,1.6,2.2,2.4,3.3
			c0.7,1.1,1.5,2.2,2.2,3.2c1.4,2.1,2.8,4.1,4.1,6c1.3,1.9,2.4,3.8,3.6,5.6c1.1,1.8,2.2,3.5,3.2,5c1,1.6,1.8,3.1,2.7,4.5
			c1.6,2.8,3.1,5.2,4.1,7.2c2.1,4,3.2,6.1,3.2,6.1s-0.7-1-2.1-3c-0.7-1-1.6-2.2-2.6-3.7c-1.1-1.4-2.3-3-3.7-4.9
			c-0.7-0.9-1.4-1.9-2.2-2.9c-0.4-0.5-0.8-1-1.2-1.6c-0.4-0.5-0.9-1.1-1.3-1.6c-1.8-2.2-3.7-4.5-5.8-7.1c-4.3-5-9.2-10.7-15-16.8
			c-11.4-12.2-25.8-26.3-42.7-41.4c-16.9-15.1-36.3-31.2-57.7-47.7c-10.7-8.3-21.8-16.6-33.4-25c-11.5-8.4-23.5-16.8-35.7-25.1
			c-12.2-8.3-24.8-16.6-37.6-24.6c-12.7-8-25.7-15.8-38.7-22.9c-3.2-1.8-6.5-3.5-9.7-5.2l-4.8-2.4l-2.4-1.2l-2.3-1.1
			c-1.5-0.7-3.1-1.5-4.6-2.2l-4.5-1.9c-3.3-1.3-6.6-2.6-9.9-3.9c-13.4-5.1-27.1-9.6-40.9-13.6c-13.8-4-27.7-7.2-41.5-10.1
			c-3.4-0.7-6.9-1.4-10.3-2c-3.4-0.7-6.8-1.2-10.2-1.8c-1.7-0.3-3.4-0.6-5.1-0.9c-1.7-0.2-3.4-0.5-5.1-0.7
			C148.7,91.7,145.4,91.2,142.1,90.7z"/>
		<path fill="#ABE1FA" d="M167.6,77.7c-5.9-1.2-16.8-2.9-26.2-4.1c-4.7-0.5-9-1.1-12.1-1.4c-3.1-0.3-5.1-0.4-5.1-0.4
			s-2.7-4.5-4.1-11.8c3.4,0.3,6.8,0.5,10.2,0.8c3.4,0.3,6.9,0.8,10.4,1.2c1.7,0.2,3.5,0.4,5.3,0.6c1.8,0.3,3.5,0.5,5.3,0.8
			c3.5,0.5,7.1,1,10.7,1.6c14.3,2.4,28.9,5.4,43.7,9c14.7,3.8,29.6,8.2,44.3,13.4c3.7,1.3,7.3,2.7,11,4c3.6,1.5,7.3,2.9,10.9,4.4
			c1.8,0.7,3.6,1.5,5.4,2.3l5.4,2.4l2.7,1.2c0.9,0.4,1.7,0.8,2.6,1.3c1.7,0.9,3.5,1.6,5.2,2.6c13.8,7.2,27.5,15.6,40.9,24.4
			c13.4,8.8,26.5,18,39.3,27.4c12.8,9.4,25.2,18.9,37.2,28.5c12,9.6,23.6,19.2,34.7,28.7c2.8,2.4,5.5,4.7,8.2,7.1
			c2.7,2.4,5.4,4.7,8,7.1c5.2,4.8,10.4,9.4,15.4,14.1c10,9.3,19.4,18.4,28.1,27.2c17.4,17.7,32.2,34.2,43.9,48.6
			c11.7,14.4,20.1,26.6,25.7,35.2c1.4,2.2,2.6,4.1,3.6,5.7c1,1.7,1.8,3.1,2.5,4.3c1.3,2.3,2,3.5,2,3.5s-0.6-1-1.9-2.9
			c-0.6-1-1.4-2.2-2.3-3.6c-0.9-1.4-2.1-3-3.3-4.8c-1.3-1.8-2.6-3.8-4.2-6c-1.6-2.1-3.3-4.5-5.2-7c-1.8-2.5-4-5.1-6.2-7.9
			c-1.1-1.4-2.3-2.8-3.4-4.3c-1.2-1.4-2.5-2.9-3.8-4.4C532,302.1,500.4,270.3,461,237c-4.9-4.2-10-8.4-15.1-12.6
			c-2.6-2.1-5.2-4.2-7.8-6.3c-2.6-2.1-5.3-4.3-8-6.4c-10.7-8.5-21.8-17.1-33.3-25.6c-11.4-8.5-23.2-17-35.2-25.3
			c-12-8.3-24.3-16.5-36.7-24.2c-12.4-7.7-25.1-15.2-37.5-21.4c-1.5-0.8-3.1-1.4-4.6-2.2l-2.3-1.1l-2.5-1c-3.3-1.4-6.5-2.8-9.8-4.2
			c-3.3-1.3-6.6-2.6-9.9-3.9c-3.3-1.3-6.7-2.4-10-3.6c-13.4-4.7-27-8.9-40.5-12.4c-1.7-0.5-3.4-0.9-5.1-1.4
			c-1.7-0.4-3.4-0.8-5.1-1.2c-3.4-0.8-6.7-1.6-10.1-2.4C180.9,80.4,174.3,78.9,167.6,77.7z"/>
		<path fill="#ABE1FA" d="M176.1,32.3c-1.6-0.3-3.5-0.6-5.5-1c-1-0.2-2.1-0.4-3.2-0.6c-1.1-0.2-2.2-0.3-3.3-0.5
			c-4.5-0.7-9.4-1.4-13.8-2.1c-4.4-0.5-8.5-1-11.4-1.3c-1.5-0.2-2.6-0.3-3.4-0.4c-0.8-0.1-1.3-0.1-1.3-0.1s-2.8,1.7-5.8,5.1
			c-3,3.4-6.2,8.3-7.3,14.8c3.5,0.3,7,0.6,10.6,0.9c3.5,0.4,7.1,0.8,10.7,1.2c1.8,0.2,3.6,0.4,5.4,0.6c1.8,0.3,3.6,0.5,5.4,0.8
			c3.6,0.6,7.3,1.1,11,1.7c14.7,2.6,29.7,5.8,44.8,9.7c30.1,8.2,60.9,18.9,89.7,34.1c14.3,7.8,28,16.7,41.4,25.9
			c13.4,9.2,26.4,18.9,39,28.6c12.6,9.8,24.9,19.8,36.7,29.7c11.8,10,23.2,20,34,29.9c2.7,2.5,5.4,4.9,8,7.4
			c2.6,2.5,5.3,4.9,7.9,7.4c5.1,4.9,10.2,9.8,15,14.6c9.8,9.6,18.9,19.1,27.4,28.3c16.9,18.3,31.2,35.4,42.4,50.3
			c11.2,14.8,19.2,27.4,24.4,36.2c1.3,2.2,2.4,4.2,3.4,5.9c1,1.7,1.7,3.2,2.3,4.4c1.2,2.4,1.9,3.6,1.9,3.6s-0.5-1.1-1.4-3.2
			c-0.5-1-1-2.3-1.7-3.9c-0.7-1.5-1.6-3.3-2.6-5.2c-1-2-2-4.2-3.3-6.6c-1.3-2.4-2.7-4.9-4.2-7.7c-1.5-2.8-3.3-5.7-5.1-8.8
			c-0.9-1.6-1.9-3.2-2.9-4.8c-1-1.6-2.1-3.3-3.2-5c-17.3-27.3-45.1-63.7-81.4-102c-4.5-4.8-9.2-9.6-13.9-14.5
			c-2.4-2.4-4.8-4.8-7.3-7.3c-2.4-2.5-4.9-4.9-7.4-7.3c-10-9.8-20.5-19.6-31.3-29.5c-10.8-9.8-22.2-19.6-33.8-29.2
			c-11.7-9.6-23.7-19.1-36.2-28.2c-12.6-9.1-25.5-18-39.6-26.1c-1.8-1-3.6-2-5.4-3l-2.7-1.5l-2.7-1.3c-3.6-1.8-7.1-3.6-10.7-5.2
			c-3.6-1.6-7.2-3.2-10.8-4.9c-3.6-1.6-7.3-3-10.9-4.5c-14.6-5.8-29.3-11-44-15.1c-1.8-0.5-3.7-1.1-5.5-1.6c-1.8-0.5-3.7-1-5.5-1.4
			c-3.7-0.9-7.3-1.9-11-2.8C190.7,35.3,183.4,33.6,176.1,32.3z"/>
	</g>
	<g opacity="0.34" clip-path="url(#SVGID_2_)">
		<path opacity="0.5" fill="#ABD574" d="M77.3,134c0,0,3,0,9.5-0.1c3.2-0.1,7.4,0.1,12.5,0.3c1.3,0,2.6,0.1,4,0.1
			c0.7,0,1.4,0,2.1,0.1c0.7,0.1,1.5,0.1,2.2,0.2c3,0.2,6.3,0.5,9.8,0.7c29.1,2.6,58.9,8.1,88.4,17l5.5,1.6l5.5,1.8
			c3.7,1.2,7.4,2.4,11,3.7c7.2,2.8,14.6,5.3,21.8,8.4c14.5,5.8,28.6,12.7,42.6,19.8c27.7,14.6,54.1,31.5,78.5,49.6
			c24.4,18.1,46.8,37.3,67,56.4c40.3,38.1,71.8,75.1,93.2,101.9c5.3,6.8,10.1,12.8,14.3,18.2c0.5,0.7,1,1.3,1.5,2
			c0.5,0.7,1,1.3,1.4,1.9c0.9,1.3,1.8,2.5,2.7,3.6c1.7,2.3,3.3,4.4,4.7,6.3c5.7,7.5,8.8,11.6,8.8,11.6s-2.2-4.6-6.1-13.2
			c-1-2.1-2.1-4.5-3.3-7.1c-0.6-1.3-1.3-2.7-1.9-4.1c-0.3-0.7-0.7-1.4-1-2.2c-0.4-0.7-0.7-1.5-1.1-2.2c-3.1-6.1-6.6-13-10.5-20.8
			c-1-2-2-3.9-3.1-5.9c-1.1-2-2.2-4.1-3.4-6.2c-2.3-4.2-4.7-8.6-7.2-13.2c-2.5-4.5-5.3-9.2-8.2-14c-1.4-2.4-2.9-4.9-4.3-7.4
			c-0.7-1.2-1.5-2.5-2.2-3.8c-0.8-1.2-1.6-2.5-2.4-3.8c-3.2-5.1-6.5-10.3-9.9-15.6c-1.7-2.7-3.5-5.3-5.3-8c-1.8-2.7-3.7-5.4-5.5-8.2
			c-1.9-2.8-3.8-5.5-5.7-8.4c-2-2.8-4-5.5-6.1-8.4c-4.1-5.6-8.2-11.5-12.8-17.1c-17.7-23-38.2-46.7-61.7-69.6
			c-23.5-22.9-50.1-44.9-79.5-64.3c-14.8-9.5-30-18.8-46.1-26.8c-7.9-4.2-16.2-7.8-24.3-11.6c-4.1-1.8-8.3-3.4-12.5-5.2l-6.3-2.5
			l-6.4-2.3C193.7,75,158.3,67.1,123.6,64.1c-4.2-0.3-8.1-0.6-11.7-0.9c-0.9-0.1-1.8-0.1-2.7-0.2c-0.9,0-1.7-0.1-2.5-0.1
			c-1.7-0.1-3.3-0.1-4.8-0.2c-6.1-0.2-11-0.4-14.9-0.3c-7.8,0.1-11.3,0.1-11.3,0.1s-0.3,0.2-0.7,0.6c-0.5,0.4-1.1,1-1.9,1.7
			c-1.5,1.6-3.5,3.9-5.5,7C63.7,78,60.2,87.1,61,99c0.8,11.9,5.1,20.6,8.9,26.4c1.9,2.9,3.8,5,5.2,6.5c0.7,0.7,1.3,1.2,1.6,1.6
			C77.1,133.9,77.3,134,77.3,134z"/>
		<path opacity="0.52" fill="#ABD574" d="M105.7,56.7c-4.3-0.1-8.2-0.3-11.7-0.4c-1.8-0.1-3.4-0.1-5-0.1c-1.6,0-3.1,0-4.5,0
			c-2.8,0-5.3,0-7.5,0.1c-1.1,0-2.1,0-3.1,0c-0.9,0-1.8,0.1-2.6,0.1c-6.5,0.3-8.6,0.4-8.6,0.4s-1.4,0.9-3.4,2.8
			c-2,1.8-4.7,4.7-7.3,8.5c-5.1,7.5-9.5,18.5-8,32.4c0,0,2.6-0.2,7.4-0.6c2.4-0.2,5.4-0.5,8.8-0.7c3.5-0.2,7.5-0.3,12-0.6
			c9-0.3,19.9-0.4,32.4,0.2c3.1,0,6.3,0.4,9.7,0.6c3.3,0.3,6.7,0.5,10.2,0.8c3.5,0.4,7.1,0.8,10.7,1.2c1.8,0.2,3.7,0.4,5.6,0.7
			c1.9,0.3,3.7,0.6,5.6,0.9c15.3,2.2,31.6,5.7,48.6,10.4c2.1,0.6,4.3,1.2,6.4,1.8c2.1,0.6,4.3,1.2,6.5,1.9c4.3,1.4,8.7,2.8,13.1,4.3
			l1.7,0.5l1.6,0.6c1.1,0.4,2.2,0.8,3.3,1.2c2.2,0.8,4.4,1.6,6.6,2.5c2.2,0.9,4.5,1.6,6.7,2.5c2.2,0.9,4.4,1.8,6.6,2.8
			c4.4,1.9,8.9,3.7,13.3,5.8c4.4,2.1,8.9,4.1,13.4,6.3c4.4,2.3,8.8,4.5,13.3,6.8c2.2,1.1,4.4,2.4,6.6,3.6c2.2,1.2,4.4,2.5,6.6,3.7
			c2.2,1.3,4.4,2.5,6.6,3.8c2.2,1.3,4.3,2.7,6.5,4c2.2,1.3,4.3,2.7,6.5,4l3.3,2l3.2,2.1c4.3,2.8,8.5,5.7,12.8,8.5
			c4.2,3,8.3,6,12.5,9c16.5,12.2,32.5,25.1,47.5,38.8c7.6,6.6,14.7,13.8,21.9,20.6c1.8,1.7,3.5,3.5,5.2,5.3c1.7,1.8,3.4,3.5,5.1,5.3
			c1.7,1.8,3.4,3.5,5.1,5.2c0.8,0.9,1.7,1.7,2.5,2.6c0.8,0.9,1.6,1.8,2.4,2.7c26.3,28.2,48.6,56.4,66.7,81.4
			c2.2,3.1,4.4,6.2,6.6,9.2c1.1,1.5,2.1,3,3.2,4.4c1.1,1.5,2,3,3,4.4c3.9,5.8,7.7,11.3,11.2,16.5c1.8,2.6,3.4,5.1,5,7.6
			c1.6,2.5,3.1,4.8,4.5,7.1c2.9,4.6,5.6,8.8,8,12.6c9.3,15.4,14.6,24.2,14.6,24.2s-2.2-4.9-6.2-13.9c-1-2.3-2.2-4.8-3.4-7.5
			c-1.3-2.8-2.6-5.8-4.2-8.9c-3.1-6.4-6.7-13.7-10.7-21.8c-4.2-8-8.9-16.9-14.1-26.4c-2.7-4.7-5.5-9.6-8.4-14.7
			c-1.5-2.5-2.9-5.1-4.4-7.7c-1.6-2.6-3.2-5.2-4.8-7.8c-12.8-21.4-28.5-44.5-46.9-68.5c-18.4-23.9-39.9-48.5-64.5-72.1
			c-1.5-1.5-3.1-3-4.6-4.5c-1.6-1.5-3.2-2.9-4.8-4.3c-3.2-2.9-6.4-5.8-9.7-8.7l-2.4-2.2l-2.5-2.1c-1.7-1.4-3.4-2.8-5.1-4.2
			c-3.4-2.8-6.8-5.7-10.2-8.4c-3.5-2.7-7.1-5.4-10.6-8.1c-1.8-1.4-3.6-2.7-5.4-4.1c-1.8-1.3-3.7-2.6-5.5-3.9
			c-3.7-2.6-7.4-5.2-11.1-7.8c-3.8-2.5-7.6-4.9-11.5-7.4l-5.8-3.7c-1.9-1.2-3.9-2.3-5.9-3.5c-4-2.3-8-4.6-11.9-6.9
			c-4.1-2.2-8.2-4.3-12.2-6.5l-6.2-3.2l-6.3-3c-16.7-8.1-34.1-14.9-51.7-20.8c-4.4-1.4-8.9-2.8-13.3-4.2c-4.5-1.3-8.9-2.4-13.4-3.6
			c-2.2-0.6-4.5-1.2-6.7-1.7c-2.3-0.5-4.5-1-6.8-1.5c-2.3-0.5-4.5-1-6.7-1.5c-1.1-0.2-2.2-0.5-3.4-0.7l-3.4-0.6
			c-4.5-0.8-9-1.5-13.5-2.3c-4.5-0.6-9-1.2-13.5-1.7c-2.2-0.3-4.5-0.6-6.7-0.8c-2.2-0.2-4.5-0.4-6.7-0.5c-2.2-0.2-4.5-0.3-6.7-0.5
			c-1.1-0.1-2.2-0.2-3.3-0.2L105.7,56.7z"/>
		<path opacity="0.39" fill="#ABD574" d="M131.6,143.5c-12.8-1.6-21.9-2.1-27.8-2.5c-5.9-0.2-8.6-0.3-8.6-0.3s-1.1-0.9-2.7-2.7
			c-1.6-1.9-3.8-4.4-6.1-7.9c-4.5-7-9.4-17.5-9.7-31.6c0,0,2.4,0,7,0c2.3,0,5.1-0.1,8.4,0c3.3,0.1,7.1,0.2,11.3,0.4
			c16.9,0.8,41.2,2.9,69.7,9.2c3.5,0.9,7.2,1.7,10.8,2.6c1.8,0.5,3.7,0.9,5.6,1.4c1.9,0.5,3.7,1.1,5.6,1.6c3.8,1.1,7.6,2.1,11.5,3.3
			c3.8,1.3,7.8,2.5,11.7,3.8c15.8,5.5,32.2,11.8,48.6,19.7c2.1,1,4.1,1.9,6.2,2.9c2,1,4.1,2.1,6.1,3.2c2.1,1.1,4.1,2.1,6.2,3.2
			c2.1,1.1,4.2,2.1,6.2,3.3c4.1,2.3,8.2,4.6,12.3,6.9c2.1,1.1,4.1,2.4,6.1,3.6c2,1.2,4.1,2.5,6.1,3.8s4.1,2.5,6.1,3.8
			c2,1.3,4,2.6,6,4c4,2.7,8,5.4,12,8.1c3.9,2.8,7.8,5.7,11.8,8.5c1.9,1.4,4,2.8,5.9,4.3l5.7,4.5c15.4,11.8,30,24.6,44.1,37.5
			c3.4,3.3,6.9,6.6,10.3,9.9c1.7,1.6,3.4,3.3,5.1,4.9c1.6,1.7,3.3,3.4,4.9,5c3.3,3.4,6.5,6.7,9.7,10c3.2,3.3,6.2,6.8,9.3,10.1
			c24.6,26.9,45.5,53.7,62.5,77.3c2.1,3,4.2,5.9,6.2,8.7c1,1.4,2,2.8,3,4.2c1,1.4,1.9,2.8,2.8,4.2c3.7,5.5,7.2,10.7,10.5,15.6
			c1.7,2.4,3.2,4.9,4.7,7.2c1.5,2.3,2.9,4.6,4.3,6.7c2.7,4.3,5.3,8.3,7.6,11.9c8.8,14.6,13.8,22.9,13.8,22.9s-3.2-4-8.9-11.4
			c-1.4-1.8-3-3.9-4.8-6.1c-0.9-1.1-1.8-2.3-2.8-3.5c-1-1.2-2-2.5-3.1-3.7c-4.2-5.2-9.1-11.1-14.5-17.7
			c-5.5-6.4-11.6-13.5-18.2-21.2c-3.4-3.7-6.9-7.6-10.5-11.7c-3.6-4-7.3-8.2-11.3-12.3c-3.9-4.2-8-8.4-12.1-12.8
			c-4.2-4.3-8.6-8.7-13-13.1c-2.2-2.2-4.4-4.5-6.7-6.7c-2.3-2.2-4.7-4.4-7-6.7c-4.8-4.5-9.5-9.2-14.6-13.6
			c-19.9-18.2-41.9-36.5-65.6-53.7c-23.7-17.1-49.1-33.1-75.5-46.8l-4.9-2.6c-1.6-0.9-3.3-1.6-5-2.5l-10-4.9c-1.7-0.8-3.3-1.6-5-2.3
			l-5.1-2.2l-5.1-2.3l-2.5-1.1c-0.8-0.4-1.7-0.7-2.6-1c-6.8-2.7-13.6-5.6-20.4-8l-5.1-1.9c-1.7-0.6-3.4-1.3-5.1-1.8
			c-3.4-1.1-6.9-2.2-10.3-3.3c-3.4-1.2-6.9-2.1-10.3-3.1c-1.7-0.5-3.4-1-5.1-1.5c-1.7-0.5-3.4-1-5.1-1.4c-6.9-1.7-13.6-3.6-20.5-4.9
			C158.3,147.4,144.8,145.3,131.6,143.5z"/>
		<path fill="#ABD574" d="M157.1,130.5c-1.5-0.3-3.3-0.7-5.3-1c-2-0.3-4.2-0.7-6.5-1c-2.3-0.4-4.7-0.7-7.1-1.1l-1.8-0.3
			c-0.6-0.1-1.2-0.1-1.8-0.2c-1.2-0.1-2.4-0.3-3.6-0.4c-2.3-0.3-4.6-0.5-6.7-0.8c-1-0.1-2-0.2-2.9-0.3c-0.9-0.1-1.8-0.1-2.6-0.2
			c-3.2-0.2-5.1-0.4-5.1-0.4s-2.7-4.5-4.2-11.8c3.4,0.2,6.8,0.5,10.3,0.8c0.9,0.1,1.7,0.1,2.6,0.2c0.9,0.1,1.7,0.2,2.6,0.3
			c1.7,0.2,3.5,0.4,5.2,0.6c1.8,0.2,3.5,0.4,5.3,0.6c0.9,0.1,1.8,0.2,2.7,0.3c0.9,0.1,1.8,0.3,2.7,0.4c3.5,0.5,7.1,1.1,10.7,1.6
			c14.3,2.5,29,5.4,43.7,9.6c1.8,0.5,3.7,1,5.5,1.5c1.9,0.5,3.7,1.1,5.5,1.7c3.7,1.1,7.4,2.3,11.1,3.5c3.7,1.2,7.3,2.6,11,3.9
			c1.8,0.7,3.7,1.3,5.5,2c1.8,0.7,3.7,1.4,5.5,2.2c3.7,1.5,7.3,2.9,11,4.4c3.6,1.6,7.3,3.2,10.9,4.8l5.5,2.4
			c1.8,0.8,3.6,1.7,5.4,2.6c3.6,1.8,7.2,3.5,10.8,5.3c28.5,14.6,55.9,32.2,81.2,51.3c25.3,19.1,48.6,39.8,69.4,60.6
			c20.8,20.8,39.2,41.6,55.1,61c4,4.9,7.8,9.6,11.5,14.2c3.6,4.7,7.1,9.2,10.5,13.6c1.7,2.2,3.3,4.3,5,6.5c1.6,2.1,3.1,4.3,4.6,6.3
			c3,4.1,5.9,8.1,8.6,11.9c1.4,1.9,2.7,3.7,4,5.5c1.3,1.8,2.5,3.6,3.7,5.3c2.4,3.5,4.6,6.7,6.7,9.8c2.1,3.1,4.1,5.9,5.8,8.5
			c1.7,2.6,3.3,5.1,4.7,7.2c5.7,8.7,8.7,13.4,8.7,13.4s-2.8-3.9-7.9-11.1c-1.3-1.8-2.7-3.8-4.3-6c-1.6-2.2-3.3-4.6-5.2-7.1
			c-3.8-5.1-8.1-10.9-13-17.4c-0.6-0.8-1.2-1.6-1.8-2.5c-0.6-0.8-1.3-1.6-1.9-2.5c-1.3-1.7-2.7-3.4-4-5.1c-2.7-3.5-5.6-7.1-8.6-10.9
			c-0.7-0.9-1.5-1.9-2.2-2.9c-0.8-0.9-1.6-1.9-2.4-2.9c-1.6-1.9-3.2-3.9-4.8-5.8c-3.3-4-6.7-8-10.1-12.3c-3.6-4.1-7.3-8.3-11.1-12.7
			c-1.9-2.2-3.8-4.4-5.7-6.6c-2-2.2-4-4.4-6.1-6.6c-2-2.2-4.1-4.5-6.2-6.7c-2.1-2.2-4.1-4.6-6.4-6.8c-4.4-4.5-8.8-9.1-13.3-13.7
			c-18.3-18.3-38.7-37.1-60.8-54.9c-22.1-17.9-46-34.9-71.1-49.9c-1.6-0.9-3.1-1.9-4.7-2.8l-4.8-2.7c-3.2-1.8-6.4-3.6-9.6-5.4
			c-1.6-0.9-3.2-1.7-4.8-2.6l-4.9-2.5l-4.9-2.5c-1.6-0.8-3.2-1.7-4.9-2.5c-3.3-1.6-6.6-3.1-9.9-4.7l-4.9-2.3l-5-2.2
			c-3.3-1.4-6.6-2.9-10-4.3c-3.3-1.4-6.7-2.6-10-4c-6.6-2.7-13.4-5-20.1-7.3c-3.3-1.2-6.7-2.2-10.1-3.2c-1.7-0.5-3.4-1-5-1.6
			c-1.7-0.5-3.3-1.1-5-1.5c-3.4-0.9-6.7-1.8-10.1-2.7c-1.7-0.4-3.3-0.9-5-1.3c-1.7-0.4-3.4-0.8-5-1.2c-3.3-0.8-6.7-1.6-10-2.3
			C163.7,131.8,160.4,131.1,157.1,130.5z"/>
		<path fill="#ABD574" d="M165.8,85.1c-1.7-0.3-3.6-0.7-5.6-1.1c-2.1-0.4-4.3-0.7-6.6-1.1c-2.3-0.4-4.7-0.7-7-1.1
			c-1.2-0.2-2.4-0.4-3.5-0.5c-1.2-0.2-2.3-0.3-3.4-0.4c-4.5-0.5-8.6-1-11.5-1.3c-2.9-0.4-4.8-0.5-4.8-0.5s-2.8,1.7-5.8,5.1
			c-3,3.4-6.2,8.4-7.2,14.9c3.5,0.3,7.1,0.5,10.6,0.8c0.9,0.1,1.8,0.1,2.7,0.2c0.9,0.1,1.8,0.2,2.7,0.3c1.8,0.2,3.6,0.4,5.4,0.6
			c1.8,0.2,3.6,0.4,5.5,0.6c0.9,0.1,1.8,0.2,2.7,0.3c0.9,0.1,1.8,0.3,2.7,0.4c3.7,0.6,7.4,1.1,11.1,1.7c14.8,2.7,30,5.9,45,10.4
			c1.9,0.5,3.8,1.1,5.7,1.6c1.9,0.5,3.8,1.2,5.7,1.8c3.8,1.2,7.6,2.5,11.4,3.7c3.8,1.3,7.5,2.8,11.3,4.2c1.9,0.7,3.8,1.4,5.7,2.1
			c1.9,0.7,3.7,1.5,5.6,2.3c3.7,1.6,7.5,3.1,11.2,4.7c3.7,1.7,7.4,3.4,11.1,5.1l5.6,2.6c1.8,0.9,3.6,1.9,5.5,2.8
			c3.6,1.9,7.3,3.8,10.9,5.6c28.9,15.6,56.4,34.1,81.6,54.2c25.2,20.1,48.2,41.7,68.5,63.2c20.4,21.6,38.2,43.1,53.5,63.1
			c3.8,5,7.5,9.9,11.1,14.6c3.5,4.8,6.8,9.5,10,14c1.6,2.3,3.2,4.5,4.8,6.6c1.5,2.2,3,4.4,4.4,6.5c2.9,4.3,5.6,8.3,8.2,12.2
			c1.3,1.9,2.6,3.8,3.8,5.7c1.2,1.9,2.4,3.7,3.5,5.5c2.3,3.5,4.4,6.9,6.4,10c2,3.1,3.9,6,5.5,8.7c1.6,2.7,3.1,5.2,4.4,7.4
			c5.3,8.9,8.2,13.7,8.2,13.7s-2.2-4.3-6.2-12.1c-1-2-2.1-4.2-3.4-6.6c-1.2-2.4-2.6-5-4.2-7.8c-3.1-5.6-6.6-12-10.5-19
			c-0.5-0.9-1-1.8-1.5-2.7c-0.5-0.9-1.1-1.8-1.6-2.7c-1.1-1.8-2.2-3.7-3.3-5.6c-2.3-3.8-4.7-7.9-7.1-12c-0.6-1-1.2-2.1-1.9-3.2
			c-0.7-1-1.3-2.1-2-3.2c-1.3-2.1-2.7-4.3-4.1-6.5c-2.8-4.4-5.7-8.9-8.7-13.6c-3.1-4.6-6.3-9.3-9.6-14.2c-1.6-2.4-3.3-4.9-5-7.4
			c-1.8-2.4-3.5-4.9-5.3-7.4c-1.8-2.5-3.6-5-5.5-7.6c-1.9-2.5-3.7-5.2-5.7-7.7c-3.9-5.1-8-10.3-12-15.5
			c-16.7-20.8-35.6-42.3-57-63.2c-21.3-20.8-45-41-70.8-59.1c-1.6-1.1-3.2-2.3-4.8-3.4l-4.9-3.3c-3.3-2.2-6.6-4.3-9.9-6.5
			c-1.6-1.1-3.4-2.1-5.1-3.1l-5.1-3.1l-5.1-3.1c-1.7-1-3.4-2.1-5.1-3c-3.5-1.9-7-3.8-10.5-5.7l-5.2-2.8l-5.3-2.6
			c-3.6-1.8-7.1-3.5-10.7-5.3c-3.6-1.7-7.2-3.2-10.8-4.9c-7.2-3.3-14.6-6.1-21.9-8.9c-3.6-1.5-7.4-2.6-11.1-3.9
			c-1.8-0.6-3.7-1.3-5.5-1.9c-1.9-0.6-3.7-1.3-5.5-1.8c-3.7-1.1-7.4-2.2-11.1-3.3c-1.9-0.5-3.7-1.1-5.6-1.6
			c-1.9-0.5-3.7-0.9-5.6-1.4c-3.7-0.9-7.4-1.8-11.1-2.7C173.2,86.6,169.5,85.9,165.8,85.1z"/>
	</g>
	<path opacity="0.47" clip-path="url(#SVGID_2_)" fill="#FFFFFF" d="M188.4,102.4c0,0,1.8-6.9-0.1-14.7c-1.9-7.8-7.3-10.4-11.4-9.8
		s-10.7,4.7-12.7,14.1c-2.1,9.4-1.5,12.9-1.5,12.9l-8.2-0.4c0,0-30.8,1.2-49.4-0.7c-3.5-0.1-10-1.2-10-1.2l-0.6-2.1
		c0,0-1.2-18.9,3.8-22.4c0.6-2.6,1.9-5.3,4.5-6.4c2.1-2.2,8.9-6.2,27.1-10.5c4.1-1.5,4.1-1.5,4.1-1.5S151.2,49,160,46
		s14.2-3.5,40.6-4.1s34.4,4.1,39.1,6.4s13.5,9.7,13.5,9.7l6.4,2.5l1.6,2.1c0,0,2.3,1.6,2.6,2.6c0.3,1,0.4,4.2,0.4,4.2
		s1.6,2.3,1.9,4.8c0.3,2.5,0.9,11.7-1.3,14.5c-2.2,2.8-3.8,4-5.3,4.7c1.8-7.3,1.3-11,0.9-12.9c-0.4-1.9-3.5-6.6-7.5-5.3
		c-4,1.3-6.2,7.3-7,10.1c-0.9,2.8-2.6,10.8-2.6,10.8L188.4,102.4z"/>
	<g clip-path="url(#SVGID_2_)">
		<defs>
			<path id="SVGID_3_" d="M98.6,80.1c0,0-0.3-0.7-0.3-1.9c0.6-2.6,1.9-5.3,4.5-6.4l-0.1,3.1c0,0,1.9,1.3,7.5,1.5
				c5.6,0.1,22.6-1.2,22.6-1.2s8.5-2.5,16-3.7s9.1-0.6,9.1-0.6l3.1,2.2c0,0-3.1,3.2-11,5.7c-7.9,2.5-12.3,3.2-12.3,3.2l-4-2.8
				l-19.2,0.6l-4.2,3.2h-2.6l-1.3-3.2l-6.7-1.2L98.6,80.1z M264.3,69.5c0,0-0.1-3.2-0.4-4.2c-0.3-1-2.6-2.6-2.6-2.6l-1.9,1.4
				C259.3,64,263.7,68.7,264.3,69.5z M134.5,62.9c6.3,0,25.2,0,33.7-0.5c8.5-0.5,11.1-1.5,13.9-3.1c2.7-1.7,6.3-6.1,9.5-9.4
				c3.2-3.3,5.8-5,5.8-5c-11.7-0.8-31.7,0.4-37.4,1.1C151.2,49,134,59.7,134,59.7s0,0-4.1,1.5c-0.9,0.2-1.7,0.4-2.6,0.6
				C127.6,62.9,129.7,62.9,134.5,62.9z M246,57.3c0,0-4.4,3.2-6.2,3.8l-52,4.8c0,0-1.8,0.7-2.1-0.4c-0.4-1.1,1-5.3,1-5.3
				s7.2-10.1,11.8-12.6c4.6-2.5,6.3-3.2,13-3.4c6.7-0.2,17.4,0.7,21.6,2.9C237.4,49.4,246,57.3,246,57.3z M205.2,61.3
				c0-0.9-0.2-2.7-2.4-3.7c-2.2-1-8.8-0.6-10.6-0.5l0.5,5.8l1.1,0.9c0,0,8.3-0.5,9.1-0.6C203.6,63,205.2,62.1,205.2,61.3z
				 M132,101.6c0,0-6-13.2-6.9-14.8c-0.9-1.6-2.1-2.1-3.4-2.1c-1.3,0-13.5,0.7-21.7-0.1c-1-0.1-1.8,0.1-2.1,1.2
				c-0.3,1-0.7,13.3-0.7,13.3s2.2,1,13.8,1.9S132,101.6,132,101.6z M139,92.4c0,0,2.8,5.9,6,7.3c3.2,1.5,6.9,1.9,6.9,1.9
				s-2.6-7-4.4-8.5s-1.9-1.6-4.7-1.3S139,92.4,139,92.4z M257.9,105.1c-3.3,0.3-89.2,10.5-96,10.9c-6.8,0.4-39.1-1.7-60.3-4
				c-7.3-0.8-6-2.7-0.7-3.7c0,0,3.6-0.3,9.5-0.7c-0.7-0.6-1.3-1.3-1.8-1.9c-7.9-0.6-11.5-1.7-11.5-1.7l-2-1.5c0,0,6.4,1,10,1.2
				c0.8,0.1,1.7,0.2,2.6,0.2c0.4,0,0.8,0.1,1.2,0.1c0,0,0,0,0.1,0c0.4,0,0.8,0.1,1.1,0.1c0.1,0,0.1,0,0.2,0c0.8,0.1,1.7,0.1,2.5,0.2
				c0,0,0.1,0,0.1,0c0.4,0,0.8,0,1.2,0.1c0.1,0,0.1,0,0.2,0c0.9,0,1.7,0.1,2.6,0.1c0,0,0.1,0,0.1,0c0.4,0,0.8,0,1.2,0
				c0,0,0.1,0,0.1,0c0.9,0,1.8,0.1,2.7,0.1c0,0,0.1,0,0.1,0c0.4,0,0.9,0,1.3,0c0,0,0,0,0.1,0c0.9,0,1.8,0,2.7,0.1c0,0,0,0,0,0
				c1.4,0,2.7,0,4.1,0.1c11.4,0.1,21.6-0.2,24.4-0.3h0c0.1,0,0.1,0,0.1,0c0.4,0,0.6,0,0.6,0l5.2,0.3h0l3,0.2c0,0,0,0,0,0l0,0
				c0,0,0,0,0,0c0,0,0,0,0,0c0,0,0,0,0,0c0,0,0,0,0,0c0,0,0,0,0-0.1c0,0,0,0,0,0c0,0,0,0,0-0.1c0,0,0,0,0,0c0,0,0,0,0-0.1
				c0,0,0,0,0,0c0,0,0-0.1,0-0.1c0,0,0,0,0,0c0,0,0-0.1,0-0.1c0,0,0,0,0-0.1c0,0,0-0.1,0-0.1c0,0,0,0,0-0.1c0,0,0-0.1,0-0.1
				c0,0,0,0,0-0.1c0-0.1,0-0.1,0-0.2c0,0,0,0,0,0c0-0.1,0-0.1,0-0.2c0,0,0-0.1,0-0.1c0-0.1,0-0.1,0-0.2c0,0,0-0.1,0-0.1
				c0-0.1,0-0.2,0-0.2c0,0,0,0,0-0.1c0-0.1,0-0.2,0-0.3c0,0,0-0.1,0-0.1c0-0.1,0-0.2,0-0.2c0,0,0-0.1,0-0.1c0-0.1,0-0.2,0-0.3
				c0,0,0-0.1,0-0.1c0-0.1,0-0.3,0-0.4c0,0,0,0,0,0c0-0.1,0-0.2,0-0.4c0,0,0-0.1,0-0.1c0-0.1,0-0.2,0-0.3c0,0,0-0.1,0-0.1
				c0-0.1,0-0.2,0-0.4c0,0,0-0.1,0-0.1c0-0.2,0-0.3,0.1-0.5c0,0,0-0.1,0-0.1c0-0.1,0-0.3,0-0.4c0-0.1,0-0.1,0-0.2
				c0-0.1,0-0.3,0.1-0.4c0-0.1,0-0.1,0-0.2c0-0.2,0.1-0.4,0.1-0.6c0,0,0,0,0,0l0,0c0.2-1.5,0.6-3.3,1-5.3
				c2.1-9.4,8.6-13.5,12.7-14.1c4.1-0.6,9.5,2.1,11.4,9.8c0.7,3,0.9,5.9,0.9,8.3c0,0,0,0,0,0c-0.1,2.5-0.4,4.4-0.6,5.5c0,0,0,0,0,0
				c-0.1,0.3-0.1,0.5-0.1,0.7c0,0,0,0,0,0c0,0,0,0.1,0,0.1c0,0,0,0,0,0c0,0,0,0,0,0l1.3-0.1v0l53.7-6c0,0,0,0,0-0.1c0,0,0-0.1,0-0.2
				c0,0,0,0,0,0c0-0.1,0-0.1,0-0.2c0,0,0,0,0,0c0,0,0-0.1,0-0.2c0,0,0-0.1,0-0.1c0-0.1,0-0.1,0-0.2c0,0,0,0,0,0
				c0.2-0.8,0.4-1.9,0.7-3.2c0,0,0,0,0,0c0-0.2,0.1-0.3,0.1-0.5c0,0,0,0,0,0c0.5-2.3,1.2-4.8,1.6-6.2c0.9-2.8,3.1-8.8,7-10.1
				c4-1.3,7,3.4,7.5,5.3c0.4,1.9,0.9,5.6-0.9,12.9c-0.1,1.5-0.9,5.7-2.2,8c0.5,0,1,0,1.5,0.1C266.5,102,261.6,104.8,257.9,105.1z
				 M183.7,98.9c0-6.1-3.2-11.1-7.2-11.1c-4,0-7.2,5-7.2,11.1c0,6.1,3.2,11.1,7.2,11.1C180.5,110.1,183.7,105.1,183.7,98.9z
				 M241.8,101.2c-0.3-0.7-0.5-1.5-0.7-2.4c0-0.1,0-0.1,0-0.2l-22.3,2.5C226.2,101.1,234.5,101.1,241.8,101.2z M258.2,92.7
				c0-5-2.2-9-4.9-9s-4.9,4.1-4.9,9c0,5,2.2,9,4.9,9S258.2,97.7,258.2,92.7z"/>
		</defs>
		<clipPath id="SVGID_4_">
			<use xlink:href="#SVGID_3_"  overflow="visible"/>
		</clipPath>
		<g opacity="0.8" clip-path="url(#SVGID_4_)">
			<path opacity="0.5" fill="#616161" d="M1.3,121.2c0,0,0.5-0.1,1.5-0.4c0.5-0.2,1.1-0.3,1.9-0.6c0.8-0.2,1.7-0.5,2.7-0.7
				c2.1-0.6,4.8-1.3,8.1-2.1c3.3-0.8,7.3-1.7,11.9-2.6c19.2-3.7,39.6-6,60.5-6.5c20.9-0.6,42.5,0.5,63.9,3
				c42.8,5,85,15.6,121.4,27.6c36.5,12,67.5,25.1,89.1,35.1c10.8,5,19.4,9.3,25.2,12.2c5.8,3,9,4.7,9,4.7s-2.5-2.6-7.2-7.2
				c-4.7-4.6-11.8-11.2-21-19.1c-18.4-15.9-45.5-37.2-80.2-58.2c-17.3-10.5-33-24.3-53.9-33.6c-20.9-9.4-42.5-16.8-70.9-20.7
				c-34.1-4.7-48.8-5.9-74.2-7.3c-25.3-1.5-51-4.9-75.3-0.1c-5.9,1.2-10.9,2.2-15.1,3.3c-4.2,1-7.6,1.9-10.3,2.7
				c-1.3,0.4-2.5,0.7-3.5,0.9c-1,0.3-1.8,0.5-2.4,0.7c-1.3,0.4-1.9,0.6-1.9,0.6s-2.1,3.7-3,10.3c-1,6.6-0.8,16,3.1,27.2
				c3.9,11.3,9.2,18.9,13.3,23.8c2.1,2.4,3.9,4.3,5.2,5.4C0.5,120.7,1.3,121.2,1.3,121.2z"/>
			<path opacity="0.52" fill="#616161" d="M-0.3,41.2c-12,2.8-19.4,5.1-23.9,6.5c-2.2,0.7-3.7,1.2-4.6,1.5c-0.9,0.3-1.3,0.4-1.3,0.4
				s-0.7,1.2-1.6,3.3c-0.9,2.2-2,5.3-2.7,9.3c-1.4,8-1.2,19.2,3.9,32.3c0,0,1.7-0.6,4.8-1.8c3.1-1.2,7.7-2.8,13.7-4.7
				c3-0.9,6.3-2,9.9-2.9c1.8-0.5,3.7-1,5.7-1.5c2-0.5,4-1,6.1-1.5c8.5-1.9,18.1-3.8,28.7-5.2c21.2-2.9,46.2-3.8,72.8-1.6
				c13.3,1,27,2.9,40.8,5.4c13.8,2.5,27.7,5.8,41.4,9.6c27.4,7.7,54.2,17.6,78.6,28.5c24.4,10.8,46.5,22.5,65,33.2
				c18.5,10.7,33.4,20.5,43.6,27.6c5.1,3.5,9.1,6.4,11.8,8.4c2.7,2,4.1,3,4.1,3s-2.5-2.8-7.4-7.7c-4.9-4.9-12.1-11.9-21.6-20.4
				c-19-16.9-0.5-34-36.6-56.1c-18-11-38-21.9-59.8-31.6c-21.8-9.7-32.5-14.7-71.2-24.4C158.1,40.2,103.6,40.8,77.3,40
				C51,39.2,24.6,35.3-0.3,41.2z"/>
			<path opacity="0.39" fill="#616161" d="M38.4,119.5c-1.1,0.2-2.1,0.3-3.1,0.5c-1,0.2-1.9,0.3-2.8,0.5c-1.8,0.3-3.5,0.6-5,0.9
				c-3,0.6-5.5,1.1-7.4,1.6c-3.8,0.9-5.5,1.3-5.5,1.3s-0.9-0.7-2.4-2.1c-1.5-1.4-3.6-3.6-6-6.6c-4.8-6-10.8-15.1-14.9-28.6
				c0,0,0.4-0.1,1.2-0.4c0.8-0.2,1.9-0.6,3.5-1c3-0.8,7.5-2.1,13.2-3.4c11.4-2.7,28-5.8,48.2-7.3c20.1-1.5,43.8-1.2,68.8,1.8
				c25.1,2.9,51.5,8.6,77.2,16.4c25.8,7.7,50.9,17.5,73.9,28c23,10.4,43.8,21.6,61.2,31.7c17.4,10.2,31.5,19.4,41.2,26.1
				c4.9,3.3,8.6,6,11.2,7.9c2.5,1.9,3.9,2.9,3.9,2.9s-3.2-1.6-9.1-4.4c-5.9-2.8-14.5-6.7-25.4-11.4c-21.8-9.3-52.6-21.4-88.5-32.1
				c-35.8-10.8-76.7-20.1-117.4-24.4c-20.3-2.2-40.6-3.1-60.1-2.7C74.7,115,56,116.8,38.4,119.5z"/>
			<path fill="#616161" d="M51.8,100.8c-1,0.1-2.3,0.2-3.6,0.4c-1.4,0.2-2.9,0.4-4.4,0.5c-3.2,0.3-6.6,0.9-9.7,1.4
				c-3.2,0.5-6.1,1.1-8.2,1.4c-1.1,0.2-1.9,0.4-2.5,0.5c-0.6,0.1-0.9,0.2-0.9,0.2s-2.9-3.8-5.7-10.5c18.2-4,38.2-6.6,59.2-7.3
				c21-0.8,42.9,0.3,64.9,3.2c22,2.9,43.9,7.4,65.1,13.2c21.2,5.8,41.6,12.7,60.6,20.1c38,14.8,70.2,31.3,92.7,44.1
				c11.3,6.4,20.2,11.8,26.2,15.6c6.1,3.8,9.3,6,9.3,6s-2.9-1.7-8.3-4.7c-5.4-3-13.2-7.2-23.2-12.3c-20-10.1-48.5-23.4-82.2-35.9
				c-33.7-12.5-72.6-24-112.5-30.9c-19.9-3.4-40-5.7-59.7-6.6c-9.8-0.4-19.6-0.5-29.1-0.3C70.2,99.3,60.9,99.9,51.8,100.8z"/>
			<path fill="#616161" d="M47.3,54.8c-1.2,0.1-2.5,0.2-4,0.4c-1.5,0.2-3,0.4-4.7,0.6c-1.6,0.2-3.3,0.4-5,0.6
				c-1.7,0.2-3.3,0.5-4.9,0.7c-3.2,0.4-6,1-8.1,1.3c-2.1,0.4-3.3,0.6-3.3,0.6s-0.4,0.6-0.9,1.6c-0.5,1.1-1.2,2.6-1.7,4.6
				c-1.2,3.9-2,9.4-1,15.9c19.1-4.2,40.1-6.7,61.9-7.1c21.8-0.4,44.5,1.3,66.9,4.9c22.5,3.6,44.8,9.1,66.1,15.7
				c21.3,6.7,41.7,14.5,60.5,22.8c37.7,16.5,69.2,34.7,91.1,48.7c11,7,19.5,12.9,25.4,17c5.8,4.1,9,6.5,9,6.5s-2.5-2.3-7.1-6.3
				c-4.7-4-11.5-9.8-20.5-16.7c-17.8-13.9-43.8-32.5-76.2-50.7c-32.3-18.2-71.2-36.1-113.5-48c-21.1-5.9-43-10.4-65-12.7
				c-11-1.2-22-1.8-32.9-1.9C68.6,53.3,57.8,53.8,47.3,54.8z"/>
		</g>
		<g opacity="0.8" clip-path="url(#SVGID_4_)">
			<path opacity="0.5" fill="#616161" d="M41.9,86.3c0,0,0.5-0.1,1.5-0.4c0.5-0.2,1.1-0.3,1.9-0.6c0.8-0.2,1.7-0.5,2.7-0.7
				c2.1-0.6,4.8-1.3,8.1-2.1c3.3-0.8,7.3-1.7,11.9-2.6c19.2-3.7,39.6-6,60.6-6.5c21-0.6,42.5,0.5,63.9,3c42.8,5,85,15.6,121.5,27.6
				c36.5,12,67.5,25.1,89.2,35.2c10.9,5,19.4,9.3,25.2,12.3c5.8,3,9,4.7,9,4.7s-2.5-2.6-7.2-7.2c-4.7-4.6-11.8-11.2-21-19.1
				c-18.4-15.9-45.5-37.2-80.2-58.2c-17.4-10.5-36.6-20.9-57.5-30.2c-20.9-9.4-43.5-17.7-67.3-24.1c-23.8-6.4-48.9-10.8-74.2-12.2
				c-25.3-1.5-51,0-75.4,4.8c-5.9,1.2-10.9,2.3-15.1,3.3c-4.2,1-7.6,1.9-10.3,2.7c-1.3,0.4-2.5,0.7-3.5,0.9c-1,0.3-1.8,0.5-2.4,0.7
				c-1.3,0.4-1.9,0.6-1.9,0.6s-2.1,3.7-3,10.3c-1,6.6-0.8,16,3.1,27.2s9.2,18.9,13.3,23.8c2.1,2.4,3.9,4.3,5.2,5.4
				C41.1,85.8,41.9,86.3,41.9,86.3z"/>
			<g>
				<path opacity="0.39" fill="#616161" d="M420.4,144c-9.7-6.7-23.8-15.9-41.2-26.1C361.8,107.8,341,96.7,318,86.2
					c-2-0.9-4.1-1.9-6.2-2.9c-24.3-10.8-58.5-22.7-75.9-28.3c-17.7-5.7-26.2-7.8-40-10.3c-13.8-2.5-30.7-3.3-44-4.3
					c-18.1-1.5-35.4-1.5-51.3-0.5c-0.9,0.1-1.8,0.2-2.6,0.2c-13.8,1-25.9,2.8-35.9,4.7c-0.1,0-0.2,0-0.3,0.1
					c-0.8,0.1-1.5,0.3-2.2,0.4c-0.4,0.1-0.7,0.1-1.1,0.2c-3.2,0.6-6.1,1.3-8.7,1.9C44,48.7,39.6,50,36.5,50.8
					c-0.4,0.1-0.7,0.2-1,0.3c-0.3,0.1-0.5,0.1-0.8,0.2c-0.7,0.2-1.3,0.4-1.7,0.5c-0.8,0.2-1.2,0.4-1.2,0.4
					C36,65.6,42,74.7,46.8,80.7c2.4,3,4.5,5.1,6,6.6c1.5,1.4,2.4,2.1,2.4,2.1s1.7-0.4,5.5-1.3c1.9-0.5,4.4-0.9,7.4-1.6
					c1.5-0.3,3.2-0.6,5-0.9c0.9-0.2,1.8-0.3,2.8-0.5c1-0.2,2-0.3,3.1-0.5c17.6-2.7,36.3-4.5,55.9-4.8c19.5-0.4,39.8,0.5,60.1,2.7
					c40.7,4.3,81.6,13.6,117.4,24.4c35.9,10.8,66.7,22.8,88.5,32.1c10.9,4.6,19.5,8.6,25.4,11.4c5.9,2.8,9.1,4.4,9.1,4.4
					s-1.4-1-3.9-2.9C429.1,150.1,425.3,147.4,420.4,144z"/>
			</g>
			<path opacity="0.52" fill="#616161" d="M40.4,6.3c-12,2.8-19.4,5.2-23.9,6.5c-2.2,0.7-3.7,1.2-4.6,1.5c-0.9,0.3-1.3,0.4-1.3,0.4
				S9.9,15.8,9,18c-0.9,2.2-2,5.3-2.7,9.3c-1.4,8-1.2,19.2,3.9,32.3c0,0,1.7-0.6,4.8-1.8c3.1-1.2,7.8-2.8,13.7-4.7
				c3-0.9,6.3-2,9.9-2.9c1.8-0.5,3.7-1,5.7-1.5c2-0.5,4-1,6.1-1.5c8.5-1.9,18.1-3.8,28.7-5.2c21.2-2.9,46.2-3.8,72.9-1.6
				c13.3,1,30.2,1.8,44,4.3c13.8,2.5,22.3,4.7,40,10.3s52.5,17.9,76.9,28.8c24.4,10.9,46.5,22.5,65,33.2
				c18.5,10.7,33.4,20.5,43.7,27.6c5.1,3.5,9.1,6.4,11.8,8.4c2.7,2,4.1,3,4.1,3s-2.5-2.8-7.4-7.7c-4.9-4.9-12.1-11.9-21.6-20.4
				c-19-16.9-47-39.6-83.1-61.7c-18-11-38-21.9-59.8-31.6c-21.8-9.7-45.3-18.3-70.2-24.6C170.4,3.7,144.3-0.3,118-1.1
				C91.7-2,65.2,0.4,40.4,6.3z"/>
			<path opacity="0.2" fill="#616161" d="M94.8,90.2c-0.9,0.1-2,0.2-3.2,0.3c-1.2,0.1-2.4,0.3-3.7,0.5c-1.3,0.2-2.6,0.3-3.9,0.5
				c-1.3,0.2-2.6,0.4-3.8,0.6c-2.5,0.3-4.7,0.8-6.3,1.1c-1.6,0.3-2.6,0.5-2.6,0.5s-0.4-0.5-1.1-1.4c-0.7-0.9-1.7-2.2-2.8-3.9
				c-2.2-3.5-5-8.6-7.2-15.4c17.4-3.8,36.5-6.5,56.6-7.6c20.2-1.1,41.4-0.6,62.9,1.6c21.5,2.1,43.2,5.9,64.2,10.8
				c21.1,4.9,41.5,10.9,60.6,17.5c38.3,13.1,71.2,28.1,94.3,39.8c11.6,5.8,20.7,10.8,27,14.4c6.3,3.5,9.7,5.6,9.7,5.6
				s-3.1-1.3-8.9-3.8c-5.8-2.4-14.1-5.9-24.7-9.9c-21.1-8.1-51-18.6-85.4-28.1c-34.4-9.5-73.4-17.7-111.9-21.8
				c-19.3-2.1-38.4-3.2-56.9-3.3c-9.2-0.1-18.3,0.1-27.1,0.6C111.8,88.8,103.2,89.4,94.8,90.2z"/>
			<path opacity="0.2" fill="#616161" d="M85.2-8.2c-1.3,0.1-2.8,0.3-4.3,0.4c-1.6,0.2-3.3,0.4-5.1,0.6C74-7,72.2-6.8,70.4-6.5
				c-1.8,0.3-3.6,0.5-5.3,0.8c-3.4,0.5-6.5,1.1-8.8,1.5c-2.2,0.4-3.6,0.7-3.6,0.7S52.3-3,51.8-1.9c-0.5,1.1-1.2,2.8-1.8,4.9
				c-1.2,4.2-2.1,10.1-1.4,17.2c20.8-4.6,43.7-6.8,67.2-6.5c23.5,0.3,47.5,3.2,71,8.3c23.5,5,46.4,12.2,68,20.6
				c21.6,8.4,41.9,18.1,60.4,28.1c37.1,20,67.2,41.3,87.9,57.5c10.3,8.1,18.4,14.9,23.8,19.6c5.4,4.8,8.3,7.5,8.3,7.5
				s-2.2-2.6-6.4-7.3c-4.2-4.7-10.5-11.4-18.7-19.5c-16.5-16.2-40.9-38.1-72.5-59.9c-15.8-10.9-33.3-21.8-52.4-31.8
				c-19.1-10-39.8-19.3-61.7-26.7c-21.9-7.5-44.9-13.3-68.3-16.5c-11.7-1.6-23.5-2.6-35.2-2.9C108.2-9.8,96.6-9.3,85.2-8.2z"/>
		</g>
	</g>
</g>
</svg>
