<?xml version="1.0" encoding="utf-8"?>
<!-- Generator: Adobe Illustrator 18.1.1, SVG Export Plug-In . SVG Version: 6.00 Build 0)  -->
<svg version="1.1" id="Clear" xmlns="http://www.w3.org/2000/svg" xmlns:xlink="http://www.w3.org/1999/xlink" x="0px" y="0px"
	 width="17.5px" height="17.5px" viewBox="0 0 17.5 17.5" enable-background="new 0 0 17.5 17.5" xml:space="preserve">
<symbol  id="New_Symbol" viewBox="-16 -39.7 32.1 79.4">
	<g>
		<g>
			<polygon fill="#FFFFFF" points="5.3,-26.9 -5.3,-26.9 -5.3,21.9 5.3,21.9 			"/>
			<polygon fill="#FFFFFF" points="16,18.6 -16,18.6 0,34.7 			"/>
			<polygon fill="#FFFFFF" points="-16,-23.6 16,-23.6 0,-39.7 			"/>
		</g>
		<g>
			<g>
				<polygon fill="#B2B2B2" points="5.3,-21.9 -5.3,-21.9 -5.3,26.9 5.3,26.9 				"/>
				<polygon fill="#B2B2B2" points="16,23.6 -16,23.6 0,39.7 				"/>
				<polygon fill="#B2B2B2" points="-16,-18.6 16,-18.6 0,-34.7 				"/>
			</g>
		</g>
	</g>
</symbol>
<symbol  id="New_Symbol_1" viewBox="-34.9 -34.9 69.8 69.8">
	<path fill="#6D6D6D" d="M0,34.9c-19.3,0-34.9-15.6-34.9-34.9c0-19.3,15.6-34.9,34.9-34.9c19.3,0,34.9,15.6,34.9,34.9
		C34.9,19.3,19.3,34.9,0,34.9z M20.9-13.3l-7.5-7.5L0-7.6l-13.2-13.2l-7.6,7.5L-7.5-0.1l-13.4,13.4l7.6,7.5L0,7.6l13.4,13.2l7.5-7.5
		L7.5-0.1L20.9-13.3z"/>
</symbol>
<symbol  id="New_Symbol_30" viewBox="-34.9 -36.9 69.8 73.8">
	<g>
		<g opacity="0.1">
			<path fill="none" stroke="#000000" stroke-width="10" stroke-miterlimit="10" d="M0,31.9c-16.5,0-29.9-13.4-29.9-29.9
				S-16.5-27.9,0-27.9S29.9-14.5,29.9,2c0,9.1-4.1,17.3-10.5,22.8"/>
			<polygon points="13.7,11.5 10.4,30 28.9,33.4 			"/>
		</g>
		<g>
			<g>
				<path fill="none" stroke="#FFFFFF" stroke-width="10" stroke-miterlimit="10" d="M0,27.9c-16.5,0-29.9-13.4-29.9-29.9
					S-16.5-31.9,0-31.9S29.9-18.5,29.9-2c0,9.1-4.1,17.3-10.5,22.8"/>
				<g>
					<polygon fill="#FFFFFF" points="13.7,7.5 10.4,26 28.9,29.4 					"/>
				</g>
			</g>
		</g>
	</g>
</symbol>
<symbol  id="New_Symbol_34" viewBox="-559 -104.9 1118 210">
	<g>
		<g opacity="6.000000e-02">
			<path d="M-539-102.4c-9.6,0-17.5,7.9-17.5,17.5v160c0,9.6,7.9,17.5,17.5,17.5H539c9.6,0,17.5-7.9,17.5-17.5v-160
				c0-9.6-7.9-17.5-17.5-17.5H-539z"/>
			<path d="M539,90.1c8.3,0,15-6.7,15-15v-160c0-8.3-6.7-15-15-15H-539c-8.3,0-15,6.7-15,15v160c0,8.3,6.7,15,15,15H539 M539,95.1
				H-539c-11,0-20-9-20-20v-160c0-11,9-20,20-20H539c11,0,20,9,20,20v160C559,86.1,550,95.1,539,95.1L539,95.1z"/>
		</g>
		<g>
			<linearGradient id="SVGID_1_" gradientUnits="userSpaceOnUse" x1="4.272417e-04" y1="-92.4237" x2="4.272505e-04" y2="102.5763">
				<stop  offset="0" style="stop-color:#67A2B8"/>
				<stop  offset="0.2596" style="stop-color:#6FADC5"/>
				<stop  offset="0.6274" style="stop-color:#76B8D1"/>
				<stop  offset="1" style="stop-color:#78BBD5"/>
			</linearGradient>
			<path fill="url(#SVGID_1_)" d="M-539-92.4c-9.6,0-17.5,7.9-17.5,17.5v160c0,9.6,7.9,17.5,17.5,17.5H539c9.6,0,17.5-7.9,17.5-17.5
				v-160c0-9.6-7.9-17.5-17.5-17.5H-539z"/>
			<g>
				<path fill="#0087B1" d="M539,100.1c8.3,0,15-6.7,15-15v-160c0-8.3-6.7-15-15-15H-539c-8.3,0-15,6.7-15,15v160
					c0,8.3,6.7,15,15,15H539 M539,105.1H-539c-11,0-20-9-20-20v-160c0-11,9-20,20-20H539c11,0,20,9,20,20v160
					C559,96.1,550,105.1,539,105.1L539,105.1z"/>
			</g>
		</g>
	</g>
</symbol>
<use xlink:href="#New_Symbol_1"  width="69.8" height="69.8" x="-34.9" y="-34.9" transform="matrix(0.25 0 0 -0.25 8.7309 8.7307)" overflow="visible"/>
<g id="New_Symbol_33">
</g>
</svg>
