<?xml version="1.0" encoding="utf-8"?>
<!-- Generator: Adobe Illustrator 18.1.1, SVG Export Plug-In . SVG Version: 6.00 Build 0)  -->
<svg version="1.1" id="Layer_1" xmlns="http://www.w3.org/2000/svg" xmlns:xlink="http://www.w3.org/1999/xlink" x="0px" y="0px"
	 viewBox="0 0 11.4 13.4" enable-background="new 0 0 11.4 13.4" xml:space="preserve">
<g>
	<g>
		<path fill="#FFFFFF" d="M8.3,9.3L7.8,9.8L7.5,11c0,0-1.5-0.6-3-2.1c-1.5-1.5-2.1-3-2.1-3l1.3-0.2l0.5-0.5L1.9,2L1.2,2.4L0,4.8
			C0.3,6,1,7.5,2.2,9.1c0,0,0.7,0.8,1,1.2c0.3,0.4,1.2,1,1.2,1c1.6,1.2,3.1,1.8,4.3,2.2l2.4-1.2l0.4-0.8L8.3,9.3z"/>
	</g>
	<g>
		<path fill="#616161" d="M8.3,8.3L7.8,8.8L7.5,10c0,0-1.5-0.6-3-2.1c-1.5-1.5-2.1-3-2.1-3l1.3-0.2l0.5-0.5L1.9,1L1.2,1.4L0,3.8
			C0.3,5,1,6.5,2.2,8.1c0,0,0.7,0.8,1,1.2c0.3,0.4,1.2,1,1.2,1c1.6,1.2,3.1,1.8,4.3,2.2l2.4-1.2l0.4-0.8L8.3,8.3z"/>
	</g>
</g>
</svg>
