<?xml version="1.0" encoding="utf-8"?>
<!-- Generator: Adobe Illustrator 18.1.1, SVG Export Plug-In . SVG Version: 6.00 Build 0)  -->
<svg version="1.1" id="Layer_1" xmlns="http://www.w3.org/2000/svg" xmlns:xlink="http://www.w3.org/1999/xlink" x="0px" y="0px"
	 viewBox="0 0 69.8 74.8" enable-background="new 0 0 69.8 74.8" xml:space="preserve">
<g id="New_Symbol_16">
	<g>
		<path fill="#FFFFFF" d="M59.3,15l4.5-6.5l-18.5,3.3l3.3,18.5l4.9-7c4,4.5,6.3,10.4,6.3,16.5c0,13.7-11.2,24.9-24.9,24.9
			S10,53.6,10,39.9C10,26.2,21.2,15,34.9,15V5C15.6,5,0,20.6,0,39.9s15.6,34.9,34.9,34.9s34.9-15.6,34.9-34.9
			C69.8,30.5,66,21.5,59.3,15z"/>
		<path fill="#616161" d="M59.3,10l4.5-6.5L45.2,6.8l3.3,18.5l4.9-7c4,4.5,6.3,10.4,6.3,16.5c0,13.7-11.2,24.9-24.9,24.9
			S10,48.6,10,34.9C10,21.2,21.2,10,34.9,10V0C15.6,0,0,15.6,0,34.9c0,19.2,15.6,34.9,34.9,34.9s34.9-15.6,34.9-34.9
			C69.8,25.5,66,16.5,59.3,10z"/>
	</g>
</g>
</svg>
