<?xml version="1.0" encoding="utf-8"?>
<!-- Generator: Adobe Illustrator 18.1.1, SVG Export Plug-In . SVG Version: 6.00 Build 0)  -->
<svg version="1.1" id="Layer_1" xmlns="http://www.w3.org/2000/svg" xmlns:xlink="http://www.w3.org/1999/xlink" x="0px" y="0px"
	 viewBox="0 0 13.9 10.7" enable-background="new 0 0 13.9 10.7" xml:space="preserve">
<symbol  id="Email_KO">
</symbol>
<use xlink:href="#Email_KO"  width="-32766" height="-32766" x="16383" y="16383" transform="matrix(1 0 0 -1 38.9622 -13.8664)" overflow="visible"/>
<g>
	<g>
		<path fill="#FFFFFF" d="M0.5,2.6c0.4,0.2,5.6,3,5.8,3.1c0.2,0.1,0.5,0.2,0.7,0.2c0.2,0,0.5,0,0.7-0.2c0.2-0.1,5.4-2.9,5.8-3.1
			c0.4-0.2,0.7-0.8,0.1-0.8H0.4C-0.3,1.7,0.1,2.4,0.5,2.6z"/>
	</g>
	<g>
		<path fill="#616161" d="M0.5,1.8C0.8,2,6,4.8,6.2,4.9C6.5,5,6.7,5.1,6.9,5.1c0.2,0,0.5,0,0.7-0.2c0.2-0.1,5.4-2.9,5.8-3.1
			C13.8,1.6,14.2,1,13.5,1H0.4C-0.3,1,0.1,1.6,0.5,1.8z"/>
	</g>
</g>
<g>
	<g>
		<path fill="#FFFFFF" d="M7,7.9c-0.2,0-0.4,0-0.7-0.2C6,7.7,1.7,5.4,0,4.5c0,1.1,0,4.6,0,6.2h13.9c0-1.5,0-5.2,0-6.2
			c-1.5,0.8-6,3.1-6.2,3.2C7.4,7.9,7.2,7.9,7,7.9z"/>
	</g>
	<g>
		<path fill="#616161" d="M7,7.2c-0.2,0-0.4,0-0.7-0.2C6,6.9,1.7,4.7,0,3.8C0,4.9,0,8.3,0,10h13.9c0-1.5,0-5.2,0-6.2
			c-1.5,0.8-6,3.1-6.2,3.2C7.4,7.2,7.2,7.2,7,7.2z"/>
	</g>
</g>
</svg>
