<?xml version="1.0" encoding="utf-8"?>
<!-- Generator: Adobe Illustrator 18.1.1, SVG Export Plug-In . SVG Version: 6.00 Build 0)  -->
<svg version="1.1" id="Layer_1" xmlns="http://www.w3.org/2000/svg" xmlns:xlink="http://www.w3.org/1999/xlink" x="0px" y="0px"
	 viewBox="0 0 1440 2560" enable-background="new 0 0 1440 2560" xml:space="preserve">
<g id="New_Symbol_81">
	<g id="New_Symbol_66">
	</g>
	<g>
		<path fill="#BCBCBC" d="M725,1306.8l-1.5,7.8c0,0-9.3-3.6-18.9-12.9c-9.3-9.6-13-18.9-13-18.9l7.8-1.5l3.2-3.3l-14-19.6l-4.7,2.8
			l-7.3,14.8c2,7.2,6,16.9,13.4,26.6l-0.2,0.1c2.1,2.6,4.3,5,6.6,7.2c2.2,2.2,4.5,4.4,7.1,6.5l0.1-0.2c9.7,7.4,19.4,11.4,26.6,13.4
			l14.8-7.3l2.8-4.7l-19.6-14L725,1306.8z"/>
		<path fill="#BCBCBC" d="M718.9,1242.4c-1.6,0-3.2,0.1-4.8,0.3l-1-5.7l-9.8,14l14,9.8l-1-5.8c0.9-0.1,1.8-0.1,2.7-0.1
			c18.1,0,32.9,14.8,32.9,32.9c0,3.5-0.5,6.9-1.6,10.2l11.8,3.8c1.5-4.5,2.2-9.2,2.2-14C764.2,1262.7,743.9,1242.4,718.9,1242.4z"/>
	</g>
</g>
</svg>
