<?xml version="1.0" encoding="utf-8"?>
<!-- Generator: Adobe Illustrator 18.1.1, SVG Export Plug-In . SVG Version: 6.00 Build 0)  -->
<svg version="1.1" id="Layer_1" xmlns="http://www.w3.org/2000/svg" xmlns:xlink="http://www.w3.org/1999/xlink" x="0px" y="0px"
	 viewBox="0 0 17.3 18.1" enable-background="new 0 0 17.3 18.1" xml:space="preserve">
<g>
	<animateTransform attributeType="xml"
		attributeName="transform"
		type="rotate"
		from="0 9 9"
		to="360 9 9"
		dur="2s"
		repeatCount="indefinite"/>
	<path fill="#FFFFFF" d="M13,0.8c0,0-0.2-0.1-0.4-0.2c-0.1-0.1-0.3-0.1-0.5-0.2c-0.2-0.1-0.4-0.1-0.7-0.2C10.5,0,9-0.1,7.6,0.1
		C6.2,0.4,4.8,1,3.8,1.8c-1,0.7-1.7,1.6-2,2C0.6,5.4-0.1,7.6,0,9.7c0.1,2.1,1.1,4.2,2.6,5.7c0.7,0.8,1.6,1.3,2.5,1.8
		C6,17.7,7,18,8,18c1,0.1,1.9,0,2.8-0.2c0.9-0.2,1.7-0.6,2.4-1c1.5-0.9,2.5-2.1,3.2-3.3c0.7-1.2,0.9-2.4,0.9-3.4
		c0.1-1-0.1-1.7-0.2-2.2C17,7.8,17,7.6,16.9,7.4c0-0.1,0-0.1,0-0.1c0,0,0,0,0,0s0,0,0,0.1c0,0,0,0.1,0,0.2c0,0.1,0,0.3,0.1,0.6
		c0,0.5,0.1,1.3-0.1,2.2c-0.2,0.9-0.5,2-1.3,3c-0.7,1-1.7,1.9-3,2.5c-0.7,0.3-1.4,0.5-2.1,0.6c-0.7,0.1-1.5,0.1-2.3-0.1
		c-0.8-0.1-1.5-0.4-2.2-0.8c-0.7-0.4-1.3-0.9-1.8-1.5c-1-1.2-1.6-2.7-1.6-4.3C2.6,8.1,3.1,6.6,4,5.4C4.2,5.1,4.7,4.5,5.4,4
		c0.7-0.5,1.7-1,2.7-1.2c1-0.2,2-0.1,2.7,0.1C11,3,11.1,3,11.3,3.1c0.1,0,0.3,0.1,0.3,0.1c0.2,0.1,0.3,0.1,0.3,0.1s0,0,0.1,0
		c0.1,0,0.2-0.1,0.3-0.1c0.3-0.1,0.6-0.3,0.9-0.7c0.2-0.4,0.2-0.8,0.1-1.1C13.3,1.2,13.2,1,13.1,1C13.1,0.9,13,0.8,13,0.8z"/>
</g>
</svg>
