<?xml version="1.0" encoding="utf-8"?>
<!-- Generator: Adobe Illustrator 19.0.1, SVG Export Plug-In . SVG Version: 6.00 Build 0)  -->
<svg version="1.1" id="Layer_1" xmlns="http://www.w3.org/2000/svg" xmlns:xlink="http://www.w3.org/1999/xlink" x="0px" y="0px"
	 viewBox="-249 377 112.6 40" style="enable-background:new -249 377 112.6 40;" xml:space="preserve">
<style type="text/css">
	.st0{display:none;}
	.st1{display:inline;}
	.st2{fill:url(#SVGID_1_);}
	.st3{fill:url(#SVGID_2_);}
	.st4{fill:#FFFFFF;}
	.st5{fill:#8BC53F;}
	.st6{fill:none;}
	.st7{fill:#6D6D6D;}
	.st8{font-family:'Roboto-Regular';}
	.st9{font-size:14px;}
</style>
<g id="Layer_1_2_">
	<g id="Layer_3" class="st0">
		<rect x="-498" y="760.8" class="st1" width="113.6" height="41"/>
	</g>
	<g id="Layer_1_1_">
		<g>
			
				<linearGradient id="SVGID_1_" gradientUnits="userSpaceOnUse" x1="-230.1688" y1="398.7534" x2="-230.1688" y2="421.7448" gradientTransform="matrix(1 0 0 -1 0 799.2)">
				<stop  offset="0" style="stop-color:#8BC53F"/>
				<stop  offset="1" style="stop-color:#A2D165"/>
			</linearGradient>
			<path class="st2" d="M-228.6,379.7c-1.7,0.5-3.7,1.3-5.4,2.4c-0.4,0.2-1.3,0.7-2,1.8c-0.1,0.3-0.2,0.6-0.1,0.9
				c0,0.3,0.2,0.6,0.4,0.9c0.3,0.3,0.6,0.7,1.1,1s1.2,0.7,1.9,1c0.8,0.3,1.7,0.6,2.8,0.9s2.4,0.6,3.8,0.9c0.6,0.1,1.3,0.2,1.9,0.3
				c0-0.2,0-0.5,0-0.7C-224.1,385.4-225.9,382-228.6,379.7z"/>
			
				<linearGradient id="SVGID_2_" gradientUnits="userSpaceOnUse" x1="-238.5001" y1="398.7534" x2="-238.5001" y2="421.7448" gradientTransform="matrix(1 0 0 -1 0 799.2)">
				<stop  offset="0" style="stop-color:#8BC53F"/>
				<stop  offset="1" style="stop-color:#A2D165"/>
			</linearGradient>
			<path class="st3" d="M-238,394.7c-1.4-0.8-2.4-1.6-3.2-2.4c-0.8-0.7-1.3-1.5-1.6-2.2s-0.4-1.4-0.4-2c0-0.5,0.2-1.1,0.4-1.6
				s0.5-0.9,0.9-1.4c0.4-0.3,0.8-0.7,1.3-1.1s1-0.7,1.5-1.1c0.4-0.3,0.9-0.5,1.4-0.8c0.5-0.2,0.9-0.5,1.4-0.7s1-0.4,1.5-0.6
				s1-0.4,1.5-0.5c0.4-0.1,0.8-0.3,1.1-0.4s0.7-0.2,1-0.3s0.6-0.2,0.9-0.2c0.3-0.1,0.6-0.1,0.9-0.2c0.1,0,0.1,0,0.2,0
				c-2-1.4-4.4-2.2-7-2.2c-6.8,0-12.3,5.5-12.3,12.2s5.5,12.2,12.2,12.2c3,0,5.7-1.1,7.8-2.8c-1.5-0.4-2.9-0.9-4.2-1.4
				C-234.8,396.4-236.6,395.5-238,394.7z"/>
		</g>
		<g>
			<g>
				<path class="st4" d="M-210.8,396.3c-1,0-1.9-0.2-2.8-0.6c-0.9-0.4-1.6-0.9-2.3-1.6c-0.6-0.7-1.1-1.4-1.5-2.3s-0.5-1.8-0.5-2.8
					v-0.1c0-1,0.2-1.9,0.5-2.8c0.4-0.9,0.9-1.7,1.5-2.3c0.6-0.7,1.4-1.2,2.3-1.6c0.9-0.4,1.8-0.6,2.8-0.6c0.7,0,1.3,0.1,1.8,0.2
					s1,0.3,1.5,0.6c0.5,0.2,0.9,0.5,1.3,0.8c0.4,0.3,0.7,0.6,1.1,1l-1,1c-0.6-0.6-1.3-1.2-2-1.6c-0.7-0.5-1.6-0.7-2.7-0.7
					c-0.8,0-1.6,0.2-2.2,0.5c-0.7,0.3-1.3,0.7-1.8,1.3c-0.5,0.5-0.9,1.2-1.2,1.9c-0.3,0.6-0.5,1.4-0.5,2.3v0.1
					c0,0.8,0.2,1.6,0.5,2.4c0.3,0.7,0.7,1.4,1.2,1.9s1.1,1,1.8,1.3s1.4,0.5,2.3,0.5c1,0,1.9-0.2,2.7-0.7c0.8-0.4,1.5-1,2-1.7
					l0.9,0.8c-0.7,0.8-1.5,1.5-2.4,2S-209.5,396.3-210.8,396.3z"/>
				<path class="st4" d="M-197.5,396.3c-0.7,0-1.3-0.1-2-0.3c-0.6-0.2-1.2-0.5-1.7-0.8c-0.5-0.4-0.9-0.8-1.3-1.4
					c-0.3-0.6-0.5-1.2-0.5-1.9v-0.1c0-0.7,0.2-1.4,0.5-2s0.7-1,1.3-1.4c0.5-0.4,1.2-0.7,1.9-0.9c0.8-0.2,1.6-0.3,2.5-0.3
					c1,0,1.8,0.1,2.6,0.2c0.7,0.1,1.4,0.3,2.1,0.4v-0.6c0-1.4-0.4-2.5-1.2-3.2s-2-1-3.4-1c-0.9,0-1.7,0.1-2.4,0.3
					c-0.7,0.2-1.4,0.5-2,0.8l-0.5-1.2c0.8-0.4,1.5-0.7,2.3-0.9s1.7-0.3,2.6-0.3c1.9,0,3.4,0.5,4.4,1.5s1.4,2.3,1.4,4v8.7h-1.3v-2.3
					c-0.2,0.3-0.5,0.7-0.9,1c-0.3,0.3-0.7,0.6-1.2,0.9c-0.4,0.2-0.9,0.4-1.5,0.6C-196.2,396.2-196.8,396.3-197.5,396.3z M-197.4,395
					c0.7,0,1.4-0.1,2-0.3c0.6-0.2,1.2-0.5,1.7-0.9s0.9-0.8,1.2-1.4c0.3-0.5,0.4-1.1,0.4-1.8V389c-0.6-0.1-1.3-0.3-2.1-0.4
					s-1.7-0.2-2.7-0.2c-1.5,0-2.6,0.3-3.4,0.9c-0.8,0.6-1.2,1.4-1.2,2.4v0.1c0,0.5,0.1,1,0.3,1.4s0.5,0.7,0.9,1s0.8,0.5,1.3,0.6
					C-198.4,394.9-197.9,395-197.4,395z"/>
				<path class="st4" d="M-187.1,381.9h1.3v4c0.3-0.6,0.6-1.2,1-1.7s0.9-1,1.4-1.4c0.7-0.4,1.2-0.7,1.9-0.8c0.6-0.2,1.3-0.3,2-0.3
					v1.5h-0.1c-0.8,0-1.6,0.2-2.3,0.5s-1.4,0.8-1.9,1.3c-0.6,0.6-1,1.3-1.3,2.2c-0.3,0.9-0.5,1.9-0.5,3v5.7h-1.3v-14L-187.1,381.9
					L-187.1,381.9z"/>
				<path class="st5" d="M-177.2,395.2l10.1-12h-9.7v-1.3h11.7v0.8l-10.1,12h10.1v1.2h-12.1V395.2z"/>
				<path class="st5" d="M-156.9,396.3c-0.9,0-1.8-0.2-2.6-0.5s-1.6-0.8-2.2-1.5c-0.6-0.6-1.1-1.4-1.5-2.3s-0.6-1.9-0.6-3v-0.1
					c0-1,0.2-2,0.5-2.8c0.3-0.9,0.8-1.7,1.4-2.3c0.6-0.7,1.3-1.2,2.1-1.6s1.7-0.6,2.6-0.6c1,0,1.9,0.2,2.7,0.6s1.5,0.9,2,1.6
					c0.6,0.7,1,1.4,1.3,2.3s0.5,1.9,0.5,2.9c0,0.1,0,0.2,0,0.3c0,0.1,0,0.2,0,0.3h-11.6c0.1,0.9,0.2,1.7,0.6,2.3
					c0.3,0.7,0.7,1.2,1.2,1.7s1.1,0.8,1.7,1.1c0.6,0.2,1.3,0.4,2,0.4c1.1,0,2-0.2,2.8-0.6s1.4-0.9,2-1.6l0.9,0.8
					c-0.7,0.8-1.5,1.4-2.4,1.9C-154.4,396-155.5,396.3-156.9,396.3z M-152.1,388.3c-0.1-0.7-0.2-1.4-0.4-2c-0.2-0.7-0.6-1.2-1-1.7
					s-0.9-0.9-1.5-1.2c-0.6-0.3-1.3-0.5-2.1-0.5c-0.7,0-1.3,0.1-2,0.4c-0.6,0.3-1.1,0.7-1.6,1.1c-0.4,0.5-0.8,1.1-1.1,1.7
					c-0.3,0.7-0.5,1.4-0.5,2.2H-152.1z"/>
				<path class="st5" d="M-147.9,381.9h1.3v2.6c0.5-0.8,1.1-1.5,1.9-2.1s1.9-0.9,3.1-0.9c0.9,0,1.7,0.1,2.4,0.4s1.3,0.7,1.8,1.2
					s0.9,1.1,1.1,1.8c0.2,0.7,0.4,1.5,0.4,2.3v8.6h-1.3v-8.3c0-1.4-0.4-2.6-1.2-3.5s-1.9-1.3-3.3-1.3c-0.7,0-1.3,0.1-1.9,0.4
					c-0.6,0.2-1.1,0.6-1.5,1s-0.8,1-1,1.6s-0.4,1.3-0.4,2v8.1h-1.3L-147.9,381.9L-147.9,381.9z"/>
			</g>
		</g>
		<g>
			<path class="st6" d="M-224.2,389.9c-0.7-0.1-1.3-0.2-1.9-0.3c-1.4-0.3-2.7-0.6-3.8-0.9s-2-0.6-2.8-0.9s-1.4-0.6-1.9-1
				c-0.5-0.3-0.9-0.7-1.1-1c-0.2-0.3-0.4-0.6-0.4-0.9s0-0.6,0.1-0.9c0.7-1.1,1.6-1.6,2-1.8c1.7-1.1,3.7-1.9,5.4-2.4
				c-0.2-0.2-0.5-0.4-0.7-0.5c-0.1,0-0.1,0-0.2,0c-0.3,0.1-0.6,0.1-0.9,0.2c-0.3,0.1-0.6,0.1-0.9,0.2c-0.3,0.1-0.6,0.2-1,0.3
				c-0.3,0.1-0.7,0.2-1.1,0.4c-0.5,0.2-1,0.4-1.5,0.5c-0.5,0.2-1,0.4-1.5,0.6s-1,0.4-1.4,0.7c-0.5,0.2-0.9,0.5-1.4,0.8
				c-0.4,0.2-0.9,0.6-1.4,1s-0.9,0.8-1.3,1.2c-0.4,0.4-0.7,0.9-0.9,1.3c-0.2,0.5-0.4,1-0.4,1.6c0,0.7,0.1,1.3,0.4,2
				c0.3,0.7,0.8,1.5,1.6,2.2c0.8,0.8,1.9,1.6,3.2,2.4c1.5,0.8,3.2,1.7,5.4,2.5c1.3,0.5,2.7,0.9,4.2,1.4
				C-226,396.4-224.4,393.4-224.2,389.9z"/>
		</g>
	</g>
</g>
<g id="Layer_2_2_">
	<text transform="matrix(1 0 0 1 -207.772 416.3)" class="st7 st8 st9">3.1.0</text>
</g>
</svg>
