<?xml version="1.0" encoding="utf-8"?>
<!-- Generator: Adobe Illustrator 19.1.0, SVG Export Plug-In . SVG Version: 6.00 Build 0)  -->
<svg version="1.1" xmlns="http://www.w3.org/2000/svg" xmlns:xlink="http://www.w3.org/1999/xlink" x="0px" y="0px"
	 viewBox="0 0 10 640" enable-background="new 0 0 10 640" xml:space="preserve">
<g id="Layer_4">
	<text transform="matrix(1 0 0 1 7.1079 13.5215)" opacity="0" font-family="'MyriadPro-Regular'" font-size="16">a</text>
	<g>
		<path fill="#8BC53F" d="M147,546.5c-77.8-37-171.1-96.7-171.1-151.6c0-59.3,59.8-92,80.2-101.4c4.2-1.9,0-7.4-4.1-6
			c-25.8,8.7-119.2,46.9-119.2,143.3c0,65.8,68,144,141.4,209.2h321.2C358.6,632,279,609.3,147,546.5z"/>
	</g>
	<g>
		<path opacity="0.7569" fill="#8BC53F" enable-background="new    " d="M181.3,531.5C-13.5,451.3-14.1,404.9-14.1,386.2
			c0-59.2,71.2-88.8,71.2-88.7l-0.3,0.3c1.6-0.7,2.4-1,2.4-1l1.2-6.4c0,0-0.9,0.4-2.6,1.1c-0.2,0.7-0.7,1.4-1.7,1.8
			c-20.4,9.4-80.2,42.1-80.2,101.4c0,54.9,93.3,114.6,171.1,151.6C279,609.3,358.6,632,395.4,640h139.8
			C490.2,632.2,363.4,606.5,181.3,531.5z"/>
	</g>
	<g>
		<path opacity="0.2" fill="#8BC53F" enable-background="new    " d="M185,486.3C18,429,4.8,391.3,3.3,372.7
			c-2.4-29.6,47.9-66.9,47.9-66.9l3.1-5.2c0,0,0,0,0,0c-3.2,1.7-65,34.4-60.2,84.8c5.7,59.8,216.5,141.6,363.1,185.2
			C490.6,610.2,616.5,632,668,640h308.6C874.8,630.1,477.6,586.6,185,486.3z"/>
	</g>
	<g>
		<path opacity="0.5098" fill="#8BC53F" enable-background="new    " d="M357.3,570.5C210.6,526.9-0.2,445.2-5.9,385.3
			c-4.9-51.7,60.4-84.9,60.4-84.9l2.3-2.6l0.3-0.3c0,0,0,0,0,0c-0.2,0.1-1.2,0.5-2.7,1.2c0,0,0,0,0,0c-0.2,0.1-0.4,0.2-0.7,0.3
			c0,0,0,0,0,0c-0.2,0.1-0.5,0.2-0.8,0.4c0,0,0,0,0,0c-0.3,0.1-0.6,0.3-0.9,0.4c0,0,0,0,0,0c-0.2,0.1-0.4,0.2-0.5,0.3
			c-16.9,8.4-65.5,37.1-65.5,86c0,18.7,0.6,65,195.4,145.2c182.1,75,308.9,100.8,353.9,108.5H668C616.5,632,490.6,610.2,357.3,570.5
			z"/>
	</g>
	<g>
		<path opacity="0.7608" fill="#8BC53F" enable-background="new    " d="M-72.6,430.8c-0.9-84.2,85.9-131.1,118.3-143.3
			c3.4-1.5,5.5-1.9,6.7-2l-3.1-0.4l-3.9-4.6c0,0-154.9,49.6-164.1,188C-122.7,527.1-110.4,587-93,640H57.7
			C-9.7,574.8-72,496.6-72.6,430.8z"/>
	</g>
	<g>
		<path opacity="0.2" fill="#8BC53F" enable-background="new    " d="M-161,489.7c15.9-68.8,30.3-97.5,84.6-147.7
			c43.3-39.9,114.5-66,114.5-66l-6-0.7c0,0-62,18.4-121.7,66.7c-59.2,48-121.8,130.6-123.6,298h48C-168.3,591.9-170,528.4-161,489.7
			z"/>
	</g>
	<g>
		<path opacity="0.4" fill="#ABE1FA" enable-background="new    " d="M-160.2,522.8c1.5-89.1,50.5-175.7,140.1-217.7l-2-3.5
			c0,0-34.9,15.7-71.4,48.9c-40,36.3-82.1,95.2-82.1,189.6c0,68.2,0,94.3,0,99.9h21.3C-157.4,613.8-160.8,556.1-160.2,522.8z"/>
	</g>
	<g>
		<path opacity="0.6157" fill="#8BC53F" enable-background="new    " d="M-153.9,528.8c0-89.8,35.7-145.1,78.7-183.5
			c46.4-41.3,100.1-60.9,115.3-65.9c2.7-0.9-0.4-3.2-3.3-2.3c-30,9.6-202.5,72.1-209.3,240.9c-1.7,41.6,0.5,83.3,4.5,122h24.7
			C-149.7,604.5-153.9,566.5-153.9,528.8z"/>
	</g>
	<g>
		<path opacity="0.7608" fill="#8BC53F" enable-background="new    " d="M-118.6,468.6C-110.1,339.8,25.2,287.6,44,281
			c1.4-0.5-0.4-2.5-1.9-2.1c-11.8,3.7-69.1,23.1-117.8,66.5c-43,38.2-78.2,93.6-78.2,183.4c0,37.8,4.3,75.7,10.6,111.2H-93
			C-110.4,587.1-122.6,527.2-118.6,468.6z"/>
	</g>
	<g>
		<path opacity="0.33" fill="#FFFFFF" enable-background="new    " d="M-121.1,532c-4.9-60,10.2-165.5,102.1-220.4
			c5.5-4.9,3.5-3.5,3.5-3.5s-121.8,53.5-121.8,214.6c0,47.7,8.7,90.8,15.4,117.3h25.6C-104.9,614.5-117.9,571.4-121.1,532z"/>
	</g>
	<g>
		<path opacity="0.27" fill="#ABE1FA" enable-background="new    " d="M207.1,561.1C144.2,536.5,27.6,482.8-5.6,435.8
			c-36.7-52-2.9-92.7,26.4-120.2c8-7.5,30-22.3,30-22.3l-4.7,0.3c0,0-54.3,27.2-74.6,68.5c-7.9,16-12.5,33.6-10.4,52
			C-31.6,477.4,50.9,542,91,570.6c46.7,33.3,94.7,60,112,69.4h255.4C421.5,631.6,326.7,607.9,207.1,561.1z"/>
	</g>
	<g>
		<path opacity="0.17" fill="#ABE1FA" enable-background="new    " d="M-107.9,501.4c-9.1-90.6,41-157.3,91.2-190.4l-4.5,0.5
			c0,0-57.2,28.7-83.8,92.2c-22.8,54.5-39.6,105.1-1.2,236.3H-69C-81.5,611.8-102.1,558.2-107.9,501.4z"/>
	</g>
	<g>
		<path opacity="0.16" fill="#FFFFFF" enable-background="new    " d="M47.9,551c-80.7-71.2-88.6-118.8-90-135.3
			c-1.3-16.7-7.8-49.5,57.9-108.5c-4.1,1.4-4.1,1.4-4.1,1.4s-66.5,44.9-60.1,109.3c6.5,64.4,52.4,106.9,80.2,137.1
			c26.7,29,70.3,62.1,102.8,84.9h40.9C140.7,620,90.1,588.3,47.9,551z"/>
	</g>
	<g>
		<path opacity="0.28" fill="#C1E8FB" enable-background="new    " d="M-5.3,494.2c-30.5-36.5-39.2-68.6-36.8-95.9
			c1.9-20.8,10.6-38.9,22.3-54.2c11-14.5,27.5-28.3,39.7-36.8L5.4,313c0,0-75.6,48.6-52.9,133C-35.8,489.7,9,566.6,117.2,640h65
			C146.8,619.6,50.6,561-5.3,494.2z"/>
	</g>
	<g>
		<path opacity="0.6941" fill="#8BC53F" enable-background="new    " d="M31.8,555.1c-27.9-30.2-73.7-72.7-80.2-137.1
			c-6.4-64.4,60.1-109.3,60.1-109.3s0,0,4.1-1.4c-5,4.5-9.6,8.9-13.8,13.1c4.8-4,10.1-8.2,15.9-12.4c17.7-12.9,35.2-22.5,35.2-22.5
			l-3.7-1.2c0,0-33.3,11.5-72.7,52.7c-39.4,41.1-33.2,83.4-32.5,98.5c0.7,15.1,8.9,68,98.1,159.8C57.6,611,73.5,626,89.2,640h45.4
			C102.2,617.1,58.5,584,31.8,555.1z"/>
	</g>
	<g>
		<path opacity="0.58" fill="#8BC53F" enable-background="new    " d="M23.1,606.3c-101-108-95-169.5-92-189.8
			c4.3-28.5,13.2-67.8,70.4-106.2c15.3-11.2,37.3-24.4,42.7-27.4c0.8-0.5,0.4-2.6-0.7-2.1c-9.5,4.5-41.5,20.4-67.1,42.9
			c-42.4,35.8-67,75.3-55.9,156.3c7.2,53,51.3,115.8,87.6,160h45.9C43.9,629.5,33.5,618.2,23.1,606.3z"/>
	</g>
	<g>
		<path fill="#8BC53F" d="M-82.9,483.3C-94,402.3-70.7,361.5-25.4,325c45.3-36.5,50.9-34.7,63.9-41.2c4.9-2.4,2.3-5.5-2.2-3.3
			C14.1,291.4-54,327.9-80.1,378.1C-105.9,427.6-128.5,498.8-66,640h58.5C-38.4,598.9-74,540.9-82.9,483.3z"/>
	</g>
	<path opacity="9.000000e-02" fill="#9BCC50" enable-background="new    " d="M7.1,299.3c0,0-34.5,17.2-49.7,31.6
		c-11.5,11-40,39.1-46.5,81.8c-4.7,30.9-14.8,124.6,78.7,233.7l137,1C-6,551.1-51.7,469.8-50.5,416.4
		c1.7-77.5,71.5-110.6,77.2-113.3c0.7-2.2-2.3-1.9-2.3-1.9C13.6,300.5,7.1,299.3,7.1,299.3z"/>
	<g>
		<path opacity="0.77" fill="#8BC53F" enable-background="new    " d="M41.1,596.1C-51,507.3-60.2,455.4-61.2,440.6
			s-8-56.3,31.4-97.4c32.4-33.8,60.9-47.8,70-51.8c2-0.8-0.2-4-1.7-3.3c-1.2,0.6-4.3,1.4-6.4,2.4c-9.7,5.2-25,14.7-36.4,23.1
			c-60.8,39.9-69.4,85.1-72,105c-4.1,26.1-1.9,91.6,88.1,189.1c10.5,11.4,20.9,22.1,31,32.3h47.4C73.9,626.3,57.3,611.7,41.1,596.1z
			"/>
	</g>
	<g enable-background="new    ">
		<path opacity="0.2" fill="#8BC53F" enable-background="new    " d="M43.2,277.6L43.2,277.6C43.2,277.6,43.2,277.5,43.2,277.6
			l0.1-0.1l0,0C43.2,277.5,43.2,277.5,43.2,277.6C43.1,277.6,43.1,277.6,43.2,277.6C43.1,277.6,43.1,277.7,43.2,277.6
			C43.1,277.7,43.1,277.6,43.2,277.6C43.1,277.6,43.2,277.6,43.2,277.6z"/>
	</g>
	<g>
		<g>
			<g>
				<path fill="#FFFFFF" d="M37.3,316.9l13-10.6l6-3.1c0,0,3.9-11.2,4.1-12.2c0.4-1.9-1.4-4.6-1.4-4.6s-1.2-0.7-4.1-1.6
					c-3.5-0.7-6.1-1.3-6.1-1.3s-4.3-6.4-9.1-8c-0.6-0.2-28.6-5.2-34.7-5c-6.1,0.2-13.6,2.3-13.6,2.3s-14.7,8.7-17.5,9.8
					c-2.8,1.1-7.6,2.2-7.6,2.2s-0.9,5.4-3.1,8c-0.4,5-0.2,9.6,0.2,11.1c0.4,1.5,10.4,6.5,10.4,6.5l38.4,8.5l3.3,6.8l11.1,1.3
					L37.3,316.9z"/>
			</g>
			<path fill="#FFFFFF" d="M50.8,306.1L50.8,306.1l-12.4,10.1c0-0.2,0.1-0.3,0.1-0.5c0,0,1.9-2.2,2.2-8.4c0.3-6.2,0-6.4-1.3-6.9
				c-1.3-0.6-4,2.3-6,6.8c-2,4.5-5.1,14.9-7.9,17.4c-2.8,2.4-8.2,0.6-8.2,0.6s-0.7-4.3-1.7-6.8c-0.9-2.6-2.6-2-5.4-2.4
				c-2.8-0.4-34.5-5-45.3-12.6c-0.7-0.4-1.1-0.1-1.3,0.5c-0.4-1.6-0.5-6.1-0.2-11c2.2-2.6,3.1-8,3.1-8s4.8-1.1,7.6-2.2
				c2.8-1.1,17.5-9.8,17.5-9.8s7.6-2.1,13.6-2.3c6.1-0.2,34.1,4.8,34.7,5c4.8,1.6,9.1,8,9.1,8s2.6,0.6,6.1,1.3
				c2.9,0.9,4.1,1.6,4.1,1.6s1.8,2.7,1.5,4.6c0-0.9-0.2-1.7-0.8-1.4c-0.4,0.2-1.1,0.9-1.5,2.3c-0.7,2.2-2.7,10.5-2.7,10.5l-4.3,3.4
				L50.8,306.1z M37.9,304.1c-1.7,0.3-4,5.5-5.4,12.3c-1.4,7.5-0.5,9.2,0.5,9.3c0.9,0.1,3.6-1.9,5.2-9.7
				C39.8,308.2,39.8,303.7,37.9,304.1z M59.3,292.1c-0.7,0.3-1.7,5-2.2,8c-0.4,3.1-0.2,4.6,0.1,4.5s1.1-1,1.9-6.3
				C59.9,293,59.9,291.8,59.3,292.1z"/>
		</g>
	</g>
	<g>
		<g>
			<g>
				<defs>
					<path id="SVGID_1_" d="M-19.8,281l12.7-7.6l36.8,6.2l-9.6,9.2c-3.3,1.7-13.1,1-26-1.7C-16.4,284.9-22,282.5-19.8,281z
						 M30.4,292c1.9-0.6,12.3-4,17.3-5.6l0,0l1.1-0.3c0,0,0.3,0,0.7,0c0.4,0,0.6,0.3,0.6,0.3s3.7,0.3,4,0.3s1.7,0.1,0.6-1.3
						c-1.1-1.4-3.1-1.6-3.7-1.7c-0.6,0-0.9,0.1-0.9,0.3c0,0.2,0,0.7,0,0.7h-0.3c-1.3-1.7-4.7-5.8-6.8-7.1c-1.2-0.7-2.3-0.5-3.2-0.4
						c-5.9,1-11,9.9-12.3,11.7C26.6,289.7,28.9,292.5,30.4,292z M61,291.3c-0.1,1.1-1.1,5-1.1,5s-0.6,3.9-1.4,6.5
						c-0.2,0.8-0.5,1.6-0.7,2.2l0,0c0,0.4-0.1,1.6-1.5,2.4c-1.8,1.1-2.8,0.4-5.4,2.7c-2,1.8-9.9,7.5-13.3,9.8
						c-0.6,2.1-1.2,3.7-1.9,4.9l0,0c-0.1,0.3-0.2,0.6-0.3,0.8c-0.6,1.2-2.4,4.2-5.5,5.8c-3.1,1.7-12.8,4.1-27.1,1.1
						c-13.1-2.8-35.3-8.5-40.5-13.9c-2.9-3,1.7-6.1,6.6-8.3c0.1,0,0.2,0.1,0.2,0.1c-0.9-0.5-1.1-0.8-1.1-0.8H-34
						c0,0-2.2-2.8-2.6-4.1c-0.4-1.3,0-3,1.3-2.2c10.7,7.6,42.5,12.2,45.3,12.6c2.8,0.4,4.4-0.2,5.4,2.4c0.9,2.6,1.7,6.8,1.7,6.8
						s5.5,1.9,8.2-0.6c2.8-2.4,5.8-12.8,7.9-17.4c2-4.5,4.7-7.4,6-6.8s1.6,0.7,1.3,6.9c-0.3,6.2-2.2,8.4-2.2,8.4
						c0,0.2-0.1,0.3-0.1,0.5l12.4-10.1l0.7-0.6l4.3-3.4c0,0,2-8.3,2.7-10.5c0.5-1.4,1.1-2.2,1.5-2.3C60.9,289.2,61.1,290.2,61,291.3
						z M33,325.8c0.9,0.1,3.6-1.9,5.2-9.7c1.6-7.8,1.7-12.3-0.3-11.9c-1.7,0.3-4,5.5-5.4,12.3C31.1,324,32,325.7,33,325.8z
						 M59.3,292.1c-0.7,0.3-1.7,5-2.2,8c-0.5,3-0.2,4.6,0.1,4.5c0.3-0.1,1.1-1,1.9-6.3C60,292.9,59.9,291.8,59.3,292.1z
						 M-34.5,293.6c1.9,1.7,14.2,6.1,30.1,9.2s32.3,0.8,32.3,0.8s0.3-2.8-1.1-3.3c-1.4-0.5-5.6-0.6-15-1.9c-9.4-1.4-9.9-1.1-9.9-1.1
						s0,0-3.3,1.7c-7.8-1.4-22.9-5.6-22.9-5.6l-1.1-2.2l-8.6-3.4l-1.7,4.1C-35.8,291.9-35.6,292.6-34.5,293.6z"/>
				</defs>
				<clipPath id="SVGID_2_">
					<use xlink:href="#SVGID_1_"  overflow="visible"/>
				</clipPath>
				<g clip-path="url(#SVGID_2_)">
					<g opacity="0.8">
						<g>
							<g>
								<path opacity="0.71" fill="#616161" enable-background="new    " d="M-7.5,355.1c0,0,13.3-41.3,107.9-81.4
									c-21.1-2.7-78.2-9.1-78.2-9.1s-54.4,7.6-116.2,59.3L-7.5,355.1z"/>
								<path opacity="0.63" fill="#616161" enable-background="new    " d="M-96,413.7c0,0,18.6-62.5,89.3-104
									c56.8-33.3,99.3-44.1,99.3-44.1l-37.8-6.3c0,0-28.8-2.9-100,25.4c-75.5,30.1-126.4,100.3-126.4,100.3L-96,413.7z"/>
								<path opacity="0.39" fill="#616161" enable-background="new    " d="M-8,387.8c0,0-4.8-40.8,42-73.4
									c32.1-22.4,47.3-28.1,47.3-28.1S69.5,274,69.2,273c-24.9,5.2-58.7,20-89.3,39.4c-48.1,30.8-68.2,71.9-68.2,71.9L-8,387.8z"
									/>
								<path opacity="0.5" fill="#616161" enable-background="new    " d="M8.7,365c0,0,16.3-38.8,70.2-73.2l-1.3-8.7
									c0,0-55.5,11.7-90.6,65.5C-12.3,349.2,8.7,365,8.7,365z"/>
							</g>
						</g>
					</g>
					<g opacity="0.26">
						<g>
							<g>
								<path opacity="0.52" fill="#616161" enable-background="new    " d="M-85,326.2c0,0,78.7-54,144.6-60.2
									c-21.1-2.7-54-2.7-54-2.7s-81.4,18.5-129.6,61.6C-122.6,328-85,326.2-85,326.2z"/>
							</g>
						</g>
					</g>
				</g>
			</g>
			<path opacity="0.21" fill="#FFFFFF" enable-background="new    " d="M57.8,305c0,0.4-0.1,1.6-1.5,2.4c-1.8,1.1-2.8,0.4-5.4,2.7
				c-2,1.8-9.9,7.5-13.3,9.8c0.3-1.2,0.7-2.5,1-3.9c0,0.2-0.1,0.3-0.1,0.5l12.4-10.1c0,0,3.9,0.8,5.1,0.6
				C56.7,306.9,57.3,306.2,57.8,305z M30.5,328.7c-1.3,0-6.8,0-8.5-1.5c-2,0-4.8-0.7-4.8-0.7l-1.3,0.4l-5.2-0.9l-1.5-5
				c0,0-5.6-1-14.8-3l-5.6,0.8l-2.2-0.7l-1.1-2.1c-0.1,0-0.2-0.1-0.3-0.1c-3.6-0.9-6.4-1.7-8.6-2.4l-3.7,0.4l-2.2-0.7l-1.5-2.7
				c-0.1-0.1-0.2-0.1-0.2-0.1c-4.9,2.2-9.5,5.2-6.6,8.3c5.2,5.4,27.3,11.1,40.5,13.9c14.2,3,24,0.6,27.1-1.1
				c3.1-1.6,4.8-4.6,5.5-5.8c0.1-0.2,0.2-0.5,0.3-0.8C33.4,328.6,31.4,328.7,30.5,328.7z"/>
		</g>
	</g>
	<g>
		<path opacity="9.000000e-02" fill="#ABE1FA" enable-background="new    " d="M-18.6,297.5l-1-3.9l-2.7-1c0,0-7.6,1.8-20.8,6.8
			c-9.8,3.8-227,113.4-251.8,340.6h71C-220.7,375.2-38,305.1-18.6,297.5z"/>
	</g>
</g>
<g id="Layer_3" display="none">
	<g display="inline">
		<g>
			<linearGradient id="SVGID_3_" gradientUnits="userSpaceOnUse" x1="-82.8178" y1="180.4252" x2="-82.8178" y2="128.8209">
				<stop  offset="0" style="stop-color:#8BC53F"/>
				<stop  offset="1" style="stop-color:#A2D165"/>
			</linearGradient>
			<path fill="url(#SVGID_3_)" d="M-79.4,133.9c-3.8,1.2-8.3,2.9-12.1,5.4c-0.8,0.6-2.9,1.6-4.4,4.1c-0.3,0.6-0.4,1.4-0.3,2
				c0.1,0.7,0.4,1.3,0.9,2c0.6,0.8,1.4,1.5,2.5,2.3c1.2,0.8,2.6,1.5,4.3,2.2c1.8,0.7,3.9,1.4,6.3,2.1c2.5,0.7,5.3,1.3,8.5,2
				c1.4,0.3,2.8,0.5,4.3,0.8c0-0.5,0-1.1,0-1.6C-69.3,146.6-73.3,138.9-79.4,133.9z"/>
			<linearGradient id="SVGID_4_" gradientUnits="userSpaceOnUse" x1="-101.5001" y1="180.4252" x2="-101.5001" y2="128.8209">
				<stop  offset="0" style="stop-color:#8BC53F"/>
				<stop  offset="1" style="stop-color:#A2D165"/>
			</linearGradient>
			<path fill="url(#SVGID_4_)" d="M-100.5,167.5c-3-1.8-5.4-3.5-7.3-5.3c-1.7-1.7-2.9-3.3-3.6-5c-0.7-1.5-0.9-3-0.8-4.5
				c0.1-1.2,0.4-2.4,1-3.5c0.5-1.1,1.2-2.1,2.1-3.1c0.8-0.9,1.8-1.8,2.9-2.7c1-0.8,2.2-1.6,3.4-2.4c1-0.6,2-1.2,3-1.7s2.1-1,3.2-1.5
				c1.1-0.5,2.1-0.9,3.3-1.4c1.1-0.4,2.2-0.8,3.3-1.2c0.9-0.3,1.7-0.6,2.5-0.8c0.8-0.2,1.5-0.5,2.2-0.7s1.4-0.4,2-0.5
				c0.7-0.2,1.3-0.3,1.9-0.4c0.1,0,0.2,0,0.4-0.1c-4.4-3.1-9.8-4.9-15.6-4.9c-15.1,0-27.3,12.2-27.3,27.3
				c0,15.1,12.2,27.3,27.3,27.3c6.7,0,12.8-2.4,17.5-6.3c-3.3-1-6.4-2-9.3-3.1C-93.3,171.3-97.2,169.4-100.5,167.5z"/>
		</g>
		<g>
			<g>
				<path fill="#7D7D7D" d="M-39.4,171.1c-2.3,0-4.4-0.4-6.3-1.3c-2-0.9-3.6-2.1-5.1-3.5c-1.4-1.5-2.6-3.2-3.4-5.2s-1.2-4.1-1.2-6.3
					v-0.1c0-2.2,0.4-4.3,1.2-6.3s1.9-3.7,3.4-5.2c1.4-1.5,3.1-2.7,5.1-3.6c2-0.9,4.1-1.3,6.3-1.3c1.5,0,2.8,0.2,4,0.5
					s2.3,0.7,3.4,1.3c1,0.5,2,1.2,2.8,1.9c0.8,0.7,1.6,1.4,2.4,2.2l-2.2,2.2c-1.4-1.4-2.9-2.6-4.5-3.6s-3.6-1.5-6-1.5
					c-1.8,0-3.5,0.3-5,1s-2.9,1.6-4,2.9c-1.1,1.2-2,2.6-2.7,4.3c-0.7,1.6-1,3.4-1,5.3v0.1c0,1.9,0.3,3.7,1,5.3
					c0.7,1.7,1.6,3.1,2.8,4.3c1.2,1.2,2.5,2.2,4.1,2.9c1.6,0.7,3.3,1,5.1,1c2.2,0,4.2-0.5,6-1.5c1.7-1,3.3-2.3,4.6-3.7l2.1,1.9
					c-1.6,1.8-3.4,3.3-5.5,4.5C-34,170.5-36.5,171.1-39.4,171.1z"/>
				<path fill="#7D7D7D" d="M-9.4,171.1c-1.5,0-2.9-0.2-4.4-0.6c-1.4-0.4-2.7-1-3.9-1.9c-1.2-0.8-2.1-1.9-2.8-3.1s-1.1-2.7-1.1-4.3
					v-0.1c0-1.6,0.3-3.1,1-4.4s1.6-2.3,2.8-3.2s2.6-1.5,4.3-2s3.6-0.7,5.6-0.7c2.2,0,4.1,0.1,5.7,0.4c1.6,0.2,3.2,0.6,4.7,1v-1.4
					c0-3.2-0.9-5.6-2.7-7.2c-1.8-1.6-4.4-2.4-7.6-2.4c-1.9,0-3.7,0.2-5.3,0.7s-3.1,1.1-4.6,1.8l-1.1-2.7c1.7-0.8,3.5-1.5,5.2-2
					c1.8-0.5,3.7-0.8,5.9-0.8c4.3,0,7.6,1.2,9.9,3.5c2.1,2.1,3.2,5.1,3.2,8.9v19.6h-3V165c-0.5,0.7-1.2,1.5-1.9,2.2
					c-0.8,0.7-1.6,1.4-2.6,1.9c-1,0.6-2.1,1-3.4,1.4C-6.6,170.9-8,171.1-9.4,171.1z M-9.3,168.2c1.6,0,3.1-0.2,4.6-0.7
					c1.4-0.5,2.7-1.1,3.8-2c1.1-0.8,2-1.9,2.6-3c0.6-1.2,1-2.5,1-3.9v-3.7c-1.3-0.3-2.9-0.6-4.6-1c-1.8-0.3-3.8-0.5-6-0.5
					c-3.3,0-5.9,0.7-7.7,2s-2.7,3.1-2.7,5.3v0.1c0,1.1,0.2,2.2,0.7,3c0.5,0.9,1.2,1.6,2,2.2c0.8,0.6,1.8,1.1,2.9,1.4
					C-11.6,168-10.5,168.2-9.3,168.2z"/>
				<path fill="#7D7D7D" d="M13.8,138.8h3v9c0.6-1.4,1.4-2.7,2.3-3.9c0.9-1.2,2-2.2,3.2-3.1c1.2-0.8,2.5-1.5,3.9-1.9
					c1.4-0.4,2.9-0.6,4.5-0.6v3.3h-0.3c-1.8,0-3.5,0.3-5.2,1c-1.6,0.7-3.1,1.7-4.4,3s-2.3,3-3,4.9c-0.7,2-1.1,4.2-1.1,6.8v12.9h-3
					L13.8,138.8L13.8,138.8z"/>
				<path fill="#8BC53F" d="M36,168.6l22.7-27H36.8v-2.7h26.4v1.7l-22.7,27h22.7v2.7H36V168.6z"/>
				<path fill="#8BC53F" d="M81.7,171.1c-2.1,0-4-0.4-5.9-1.2c-1.9-0.8-3.5-1.9-4.9-3.3c-1.4-1.4-2.5-3.2-3.4-5.2
					c-0.8-2-1.2-4.3-1.2-6.7v-0.1c0-2.3,0.4-4.4,1.1-6.4c0.8-2,1.8-3.7,3.1-5.2c1.3-1.5,2.9-2.7,4.7-3.5c1.8-0.9,3.8-1.3,5.9-1.3
					c2.2,0,4.2,0.4,6,1.3c1.8,0.8,3.3,2,4.5,3.5c1.3,1.5,2.2,3.2,2.9,5.2c0.7,2,1,4.2,1,6.5c0,0.3,0,0.5,0,0.6c0,0.1,0,0.3-0.1,0.6
					h-26c0.1,2,0.6,3.7,1.3,5.2c0.7,1.5,1.7,2.8,2.8,3.9c1.1,1.1,2.4,1.9,3.8,2.4c1.4,0.6,2.9,0.8,4.5,0.8c2.5,0,4.6-0.5,6.3-1.4
					c1.7-0.9,3.2-2.1,4.5-3.5l2.1,1.9c-1.6,1.7-3.4,3.2-5.5,4.3C87.2,170.5,84.7,171.1,81.7,171.1z M92.3,153.1
					c-0.1-1.6-0.4-3.1-1-4.6c-0.5-1.5-1.2-2.8-2.2-3.9c-0.9-1.1-2.1-2-3.4-2.7c-1.4-0.7-2.9-1-4.8-1c-1.6,0-3,0.3-4.4,0.9
					c-1.4,0.6-2.5,1.5-3.5,2.6c-1,1.1-1.8,2.4-2.5,3.9s-1,3.1-1.2,4.8L92.3,153.1z"/>
				<path fill="#8BC53F" d="M101.8,138.8h3v5.9c1.1-1.9,2.5-3.4,4.3-4.7c1.8-1.3,4.2-1.9,7-1.9c2,0,3.7,0.3,5.3,1
					c1.6,0.6,2.9,1.5,4,2.7s1.9,2.5,2.5,4.1c0.6,1.6,0.8,3.3,0.8,5.2v19.3h-3v-18.7c0-3.3-0.9-5.9-2.6-7.8c-1.7-2-4.2-2.9-7.4-2.9
					c-1.6,0-3,0.3-4.3,0.8c-1.3,0.6-2.5,1.3-3.5,2.3s-1.8,2.2-2.3,3.5c-0.6,1.4-0.8,2.9-0.8,4.5v18.2h-3V138.8z"/>
			</g>
		</g>
		<g>
			<path fill="#FFFFFF" d="M-69.4,156.8c-1.5-0.2-2.9-0.5-4.3-0.8c-3.1-0.6-6-1.3-8.5-2c-2.4-0.7-4.5-1.4-6.3-2.1
				c-1.7-0.7-3.2-1.4-4.3-2.2c-1.1-0.7-2-1.5-2.5-2.3c-0.5-0.7-0.8-1.3-0.9-2c-0.1-0.6,0-1.4,0.3-2c1.6-2.5,3.6-3.5,4.4-4.1
				c3.8-2.5,8.3-4.3,12.1-5.4c-0.5-0.4-1-0.8-1.6-1.2c-0.1,0-0.2,0-0.4,0.1c-0.6,0.1-1.3,0.3-1.9,0.4c-0.7,0.2-1.3,0.3-2,0.5
				s-1.5,0.4-2.2,0.7c-0.8,0.2-1.6,0.5-2.5,0.8c-1.1,0.4-2.2,0.8-3.3,1.2c-1.1,0.4-2.2,0.9-3.3,1.4s-2.1,1-3.2,1.5s-2.1,1.1-3,1.7
				c-1.3,0.8-2.4,1.6-3.4,2.4c-1.1,0.9-2.1,1.8-2.9,2.7c-0.9,1-1.6,2-2.1,3.1c-0.5,1.1-0.9,2.3-1,3.5c-0.1,1.5,0.1,3,0.8,4.5
				c0.7,1.6,1.9,3.3,3.6,5c1.8,1.8,4.2,3.6,7.3,5.3c3.3,1.9,7.3,3.7,12,5.5c2.9,1.1,6,2.1,9.3,3.1
				C-73.5,171.6-69.8,164.6-69.4,156.8z"/>
		</g>
	</g>
</g>
</svg>
