<?xml version="1.0" encoding="utf-8"?>
<!-- Generator: Adobe Illustrator 19.1.0, SVG Export Plug-In . SVG Version: 6.00 Build 0)  -->
<svg version="1.1" id="Layer_1" xmlns="http://www.w3.org/2000/svg" xmlns:xlink="http://www.w3.org/1999/xlink" x="0px" y="0px"
	 viewBox="0 0 252.6 54.6" enable-background="new 0 0 252.6 54.6" xml:space="preserve">
<g>
	<g>
		<text transform="matrix(1 0 0 1 7.1079 13.5215)" opacity="0" font-family="'MyriadPro-Regular'" font-size="16">a</text>
		<linearGradient id="SVGID_1_" gradientUnits="userSpaceOnUse" x1="41.0822" y1="52.6252" x2="41.0822" y2="1.0209">
			<stop  offset="0" style="stop-color:#8BC53F"/>
			<stop  offset="1" style="stop-color:#A2D165"/>
		</linearGradient>
		<path fill="url(#SVGID_1_)" d="M44.5,6.1c-3.8,1.2-8.3,2.9-12.1,5.4c-0.8,0.6-2.9,1.6-4.4,4.1c-0.3,0.6-0.4,1.4-0.3,2
			c0.1,0.7,0.4,1.3,0.9,2c0.6,0.8,1.4,1.5,2.5,2.3c1.2,0.8,2.6,1.5,4.3,2.2c1.8,0.7,3.9,1.4,6.3,2.1c2.5,0.7,5.3,1.3,8.5,2
			c1.4,0.3,2.8,0.5,4.3,0.8c0-0.5,0-1.1,0-1.6C54.6,18.8,50.6,11.1,44.5,6.1z"/>
		<linearGradient id="SVGID_2_" gradientUnits="userSpaceOnUse" x1="22.4" y1="52.6252" x2="22.4" y2="1.0209">
			<stop  offset="0" style="stop-color:#8BC53F"/>
			<stop  offset="1" style="stop-color:#A2D165"/>
		</linearGradient>
		<path fill="url(#SVGID_2_)" d="M23.4,39.7c-3-1.8-5.4-3.5-7.3-5.3c-1.7-1.7-2.9-3.3-3.6-5c-0.7-1.5-0.9-3-0.8-4.5
			c0.1-1.2,0.4-2.4,1-3.5c0.5-1.1,1.2-2.1,2.1-3.1c0.8-0.9,1.8-1.8,2.9-2.7c1-0.8,2.2-1.6,3.4-2.4c1-0.6,2-1.2,3-1.7s2.1-1,3.2-1.5
			c1.1-0.5,2.1-0.9,3.3-1.4c1.1-0.4,2.2-0.8,3.3-1.2c0.9-0.3,1.7-0.6,2.5-0.8c0.8-0.2,1.5-0.5,2.2-0.7s1.4-0.4,2-0.5
			c0.7-0.2,1.3-0.3,1.9-0.4c0.1,0,0.2,0,0.4-0.1C38.5,1.8,33.1,0,27.3,0C12.2,0,0,12.2,0,27.3s12.2,27.3,27.3,27.3
			c6.7,0,12.8-2.4,17.5-6.3c-3.3-1-6.4-2-9.3-3.1C30.6,43.5,26.7,41.6,23.4,39.7z"/>
	</g>
	<g>
		<g>
			<path fill="#7D7D7D" d="M84.5,43.3c-2.3,0-4.4-0.4-6.3-1.3c-2-0.9-3.6-2.1-5.1-3.5c-1.4-1.5-2.6-3.2-3.4-5.2s-1.2-4.1-1.2-6.3
				v-0.1c0-2.2,0.4-4.3,1.2-6.3s1.9-3.7,3.4-5.2c1.4-1.5,3.1-2.7,5.1-3.6s4.1-1.3,6.3-1.3c1.5,0,2.8,0.2,4,0.5s2.3,0.7,3.4,1.3
				c1,0.5,2,1.2,2.8,1.9s1.6,1.4,2.4,2.2l-2.2,2.2C93.5,17.2,92,16,90.4,15s-3.6-1.5-6-1.5c-1.8,0-3.5,0.3-5,1s-2.9,1.6-4,2.9
				c-1.1,1.2-2,2.6-2.7,4.3c-0.7,1.6-1,3.4-1,5.3v0.1c0,1.9,0.3,3.7,1,5.3c0.7,1.7,1.6,3.1,2.8,4.3c1.2,1.2,2.5,2.2,4.1,2.9
				s3.3,1,5.1,1c2.2,0,4.2-0.5,6-1.5c1.7-1,3.3-2.3,4.6-3.7l2.1,1.9c-1.6,1.8-3.4,3.3-5.5,4.5C89.9,42.7,87.4,43.3,84.5,43.3z"/>
			<path fill="#7D7D7D" d="M114.5,43.3c-1.5,0-2.9-0.2-4.4-0.6c-1.4-0.4-2.7-1-3.9-1.9c-1.2-0.8-2.1-1.9-2.8-3.1
				c-0.7-1.2-1.1-2.7-1.1-4.3v-0.1c0-1.6,0.3-3.1,1-4.4s1.6-2.3,2.8-3.2s2.6-1.5,4.3-2S114,23,116,23c2.2,0,4.1,0.1,5.7,0.4
				c1.6,0.2,3.2,0.6,4.7,1V23c0-3.2-0.9-5.6-2.7-7.2c-1.8-1.6-4.4-2.4-7.6-2.4c-1.9,0-3.7,0.2-5.3,0.7s-3.1,1.1-4.6,1.8l-1.1-2.7
				c1.7-0.8,3.5-1.5,5.2-2c1.8-0.5,3.7-0.8,5.9-0.8c4.3,0,7.6,1.2,9.9,3.5c2.1,2.1,3.2,5.1,3.2,8.9v19.6h-3v-5.2
				c-0.5,0.7-1.2,1.5-1.9,2.2c-0.8,0.7-1.6,1.4-2.6,1.9c-1,0.6-2.1,1-3.4,1.4C117.3,43.1,115.9,43.3,114.5,43.3z M114.6,40.4
				c1.6,0,3.1-0.2,4.6-0.7c1.4-0.5,2.7-1.1,3.8-2c1.1-0.8,2-1.9,2.6-3c0.6-1.2,1-2.5,1-3.9v-3.7c-1.3-0.3-2.9-0.6-4.6-1
				c-1.8-0.3-3.8-0.5-6-0.5c-3.3,0-5.9,0.7-7.7,2s-2.7,3.1-2.7,5.3V33c0,1.1,0.2,2.2,0.7,3c0.5,0.9,1.2,1.6,2,2.2
				c0.8,0.6,1.8,1.1,2.9,1.4C112.3,40.2,113.4,40.4,114.6,40.4z"/>
			<path fill="#7D7D7D" d="M137.7,11h3v9c0.6-1.4,1.4-2.7,2.3-3.9s2-2.2,3.2-3.1c1.2-0.8,2.5-1.5,3.9-1.9s2.9-0.6,4.5-0.6v3.3h-0.3
				c-1.8,0-3.5,0.3-5.2,1c-1.6,0.7-3.1,1.7-4.4,3s-2.3,3-3,4.9c-0.7,2-1.1,4.2-1.1,6.8v12.9h-3L137.7,11L137.7,11z"/>
			<path fill="#8BC53F" d="M159.9,40.8l22.7-27h-21.9v-2.7h26.4v1.7l-22.7,27h22.7v2.7h-27.2V40.8z"/>
			<path fill="#8BC53F" d="M205.6,43.3c-2.1,0-4-0.4-5.9-1.2s-3.5-1.9-4.9-3.3s-2.5-3.2-3.4-5.2c-0.8-2-1.2-4.3-1.2-6.7v-0.1
				c0-2.3,0.4-4.4,1.1-6.4c0.8-2,1.8-3.7,3.1-5.2c1.3-1.5,2.9-2.7,4.7-3.5c1.8-0.9,3.8-1.3,5.9-1.3c2.2,0,4.2,0.4,6,1.3
				c1.8,0.8,3.3,2,4.5,3.5c1.3,1.5,2.2,3.2,2.9,5.2c0.7,2,1,4.2,1,6.5c0,0.3,0,0.5,0,0.6s0,0.3-0.1,0.6h-26c0.1,2,0.6,3.7,1.3,5.2
				c0.7,1.5,1.7,2.8,2.8,3.9c1.1,1.1,2.4,1.9,3.8,2.4c1.4,0.6,2.9,0.8,4.5,0.8c2.5,0,4.6-0.5,6.3-1.4c1.7-0.9,3.2-2.1,4.5-3.5
				l2.1,1.9c-1.6,1.7-3.4,3.2-5.5,4.3C211.1,42.7,208.6,43.3,205.6,43.3z M216.2,25.3c-0.1-1.6-0.4-3.1-1-4.6
				c-0.5-1.5-1.2-2.8-2.2-3.9c-0.9-1.1-2.1-2-3.4-2.7c-1.4-0.7-2.9-1-4.8-1c-1.6,0-3,0.3-4.4,0.9s-2.5,1.5-3.5,2.6s-1.8,2.4-2.5,3.9
				s-1,3.1-1.2,4.8L216.2,25.3z"/>
			<path fill="#8BC53F" d="M225.7,11h3v5.9c1.1-1.9,2.5-3.4,4.3-4.7s4.2-1.9,7-1.9c2,0,3.7,0.3,5.3,1c1.6,0.6,2.9,1.5,4,2.7
				s1.9,2.5,2.5,4.1s0.8,3.3,0.8,5.2v19.3h-3V23.9c0-3.3-0.9-5.9-2.6-7.8c-1.7-2-4.2-2.9-7.4-2.9c-1.6,0-3,0.3-4.3,0.8
				c-1.3,0.6-2.5,1.3-3.5,2.3s-1.8,2.2-2.3,3.5c-0.6,1.4-0.8,2.9-0.8,4.5v18.2h-3V11z"/>
		</g>
	</g>
	<g>
		<path fill="#FFFFFF" d="M54.5,29c-1.5-0.2-2.9-0.5-4.3-0.8c-3.1-0.6-6-1.3-8.5-2c-2.4-0.7-4.5-1.4-6.3-2.1
			c-1.7-0.7-3.2-1.4-4.3-2.2c-1.1-0.7-2-1.5-2.5-2.3c-0.5-0.7-0.8-1.3-0.9-2c-0.1-0.6,0-1.4,0.3-2c1.6-2.5,3.6-3.5,4.4-4.1
			c3.8-2.5,8.3-4.3,12.1-5.4c-0.5-0.4-1-0.8-1.6-1.2c-0.1,0-0.2,0-0.4,0.1c-0.6,0.1-1.3,0.3-1.9,0.4c-0.7,0.2-1.3,0.3-2,0.5
			s-1.5,0.4-2.2,0.7c-0.8,0.2-1.6,0.5-2.5,0.8c-1.1,0.4-2.2,0.8-3.3,1.2C29.5,9,28.4,9.5,27.3,10s-2.1,1-3.2,1.5s-2.1,1.1-3,1.7
			c-1.3,0.8-2.4,1.6-3.4,2.4c-1.1,0.9-2.1,1.8-2.9,2.7c-0.9,1-1.6,2-2.1,3.1s-0.9,2.3-1,3.5c-0.1,1.5,0.1,3,0.8,4.5
			c0.7,1.6,1.9,3.3,3.6,5c1.8,1.8,4.2,3.6,7.3,5.3c3.3,1.9,7.3,3.7,12,5.5c2.9,1.1,6,2.1,9.3,3.1C50.4,43.8,54.1,36.8,54.5,29z"/>
	</g>
</g>
</svg>
