<?xml version="1.0" encoding="utf-8"?>
<!-- Generator: Adobe Illustrator 18.1.1, SVG Export Plug-In . SVG Version: 6.00 Build 0)  -->
<svg version="1.1" id="Layer_1" xmlns="http://www.w3.org/2000/svg" xmlns:xlink="http://www.w3.org/1999/xlink" x="0px" y="0px"
	 viewBox="0 0 1440 1080" enable-background="new 0 0 1440 1080" xml:space="preserve">
<symbol  id="Placeholde_Car_-_Listing_Crop" viewBox="-720 -540 1440 1080">
	<polygon fill="#FFFFFF" points="720,-540 -720,-540 -720,540 720,540 	"/>
	<g id="New_Symbol_19_7_">
		<g>
			
				<use xlink:href="#Placeholder_Car"  width="522.2" height="225.1" x="-261.1" y="-112.6" transform="matrix(2.3347 0 0 2.3347 0.9635 -36.7337)" overflow="visible"/>
		</g>
	</g>
</symbol>
<symbol  id="Placeholder_Car" viewBox="-261.1 -112.6 522.2 225.1">
	<path fill="#C2C2C2" d="M-222.5-72.4c0,0,5.9-18.4,24.6-21c18.7-2.7,29-1.2,36.4,6.8c7.4,8,8.3,13,8.3,13L-222.5-72.4z"/>
	<path fill="#C2C2C2" d="M-64-74.1c0,0,2.1-20.1,20.4-30.2c5.4-3,17.8-4.4,30.5-3.3c12.1,1.1,24.9,6.8,30.8,31l8.8-0.5l2.2,9.3
		l12.1,20.6L12.5,7.9c0,0-44.4,3-46.8,1.8S-56.6-3-58.3-6.6C-60.1-10.1-72.9-35-72.6-38C-72.3-40.9-64-74.1-64-74.1z"/>
	<path fill="#C2C2C2" d="M240.2-44.1c-0.4-5-3.4-20.4-8-26.4c-5.2-6.7-7.6-10.8-19.1-10.4c-11.6,0.4-12.4,0.9-14.1,1.3
		c-2.3,0.6-11.3,1.8-14.8,19.4s-5.9,45.6,7,63s41.6,15.9,41.6,15.9s10.7-6.5,10.8-7.4c0.1-0.9,5.3-40.3,5.3-40.3L240.2-44.1z"/>
	<path fill="#C2C2C2" d="M235-79.2c11.3,1.2,26.1,9.5,3,10.7c-32,1.6-141.3,2.1-176,1.2C55.4-67.5-241.1-89-241.1-89
		c-16.3-3-20.3-9,2-11.3c64.3-6.9,162.1-13.3,182.9-12.1C-35.5-111.2,225-80.3,235-79.2z"/>
	<path fill="#C2C2C2" d="M-259-71.6l6.2-4.4c0,0,16-4.7,51-5.9s146.4-3.8,146.4-3.8l77,8.3L187-59.1l11.9,1.2l-0.6,21.3L-259-71.6z"
		/>
	<path fill="#C2C2C2" d="M75.7-63.4c-2-3.6-5.8-8-18.2-8.2c-12.4-0.2-18.2,6.4-18.2,6.4L75.7-63.4z"/>
	<path fill="#FFFFFF" d="M24.2-71.2c0,0,5.3,20.9-0.4,44.4S1.5,4.8-10.9,3.1s-32.4-14.2-38.7-42.7S-54-78.7-54-78.7l-24.9,1.3
		c0,0-93.3-3.6-149.8,2.2c-10.7,0.4-30.2,3.6-30.2,3.6l-1.8,6.2c0,0-3.6,57.3,11.6,68c1.8,8,5.8,16,13.8,19.6
		c6.2,6.7,27.1,18.7,82.2,32c12.4,4.4,12.4,4.4,12.4,4.4s52,32.4,78.7,41.3s43.1,10.7,123.1,12.4c80,1.8,104.5-12.4,118.7-19.6
		c14.2-7.1,40.9-29.3,40.9-29.3l19.6-7.6l4.9-6.2c0,0,7.1-4.9,8-8c0.9-3.1,1.3-12.9,1.3-12.9s4.9-7.1,5.8-14.7
		c0.9-7.6,2.7-35.6-4-44s-11.6-12-16-14.2c5.3,22.2,4,33.3,2.7,39.1c-1.3,5.8-10.7,20-22.7,16s-18.7-22.2-21.3-30.7s-8-32.9-8-32.9
		L24.2-71.2z"/>
	<g>
		<path fill="#C2C2C2" d="M-245.6,1.3l20.4-3.6l4-9.8h8l12.9,9.8l58.2,1.8l12-8.4c0,0,13.3,2.2,37.3,9.8s33.3,17.3,33.3,17.3
			l-9.3,6.7c0,0-4.9,1.8-27.6-1.8S-144.7,12-144.7,12s-51.6-4-68.5-3.6c-16.9,0.4-22.7,4.4-22.7,4.4l0.4,9.3
			c-8-3.6-12-11.6-13.8-19.6c0-3.6,0.9-5.8,0.9-5.8L-245.6,1.3z"/>
		<path fill="#C2C2C2" d="M254.4,28.8c0,0-0.4,9.8-1.3,12.9c-0.9,3.1-8,8-8,8l-5.6-4.1C239.5,45.6,252.8,31.4,254.4,28.8z"/>
		<path fill="#C2C2C2" d="M-139.2,48.8c19.3,0,76.5,0,102.2,1.5c25.8,1.5,33.8,4.4,42.1,9.5c8.3,5,19,18.4,28.7,28.4
			c9.8,10.1,17.5,15.1,17.5,15.1c-35.6,2.4-96.3-1.2-113.3-3.4c-26.7-8.9-78.7-41.3-78.7-41.3s0,0-12.4-4.4
			c-2.7-0.6-5.3-1.3-7.8-1.9C-160.3,49-153.7,48.8-139.2,48.8z"/>
	</g>
	<path fill="#C2C2C2" d="M160,96.8c-12.7,6.8-45,9.5-65.5,8.9s-25.5-2.7-39.4-10.4c-13.9-7.7-35.9-38.2-35.9-38.2s-4.1-12.7-3-16
		c1.2-3.3,6.5-1.2,6.5-1.2l157.6,14.5c5.3,1.8,18.7,11.6,18.7,11.6S172.8,90,160,96.8z M67.9,48.2c-2.4-0.3-27.6-1.8-27.6-1.8
		l-3.3,2.7l-1.5,17.5c5.6,0.3,25.5,1.5,32.3-1.5c6.8-3,7.4-8.6,7.4-11.3C75.3,51.2,70.3,48.5,67.9,48.2z"/>
	<path fill="#C2C2C2" d="M-146.9-68.5c0,0-18.2,40-20.9,44.9s-6.2,6.2-10.2,6.2s-40.9-2.2-65.8,0.4c-3.1,0.4-5.3-0.4-6.2-3.6
		c-0.9-3.1-2.2-40.4-2.2-40.4s6.7-3.1,41.8-5.8C-175.4-69.4-146.9-68.5-146.9-68.5z"/>
	<path fill="#C2C2C2" d="M-125.6-40.5c0,0,8.4-17.8,18.2-22.2s20.9-5.8,20.9-5.8s-8,21.3-13.3,25.8c-5.3,4.4-5.8,4.9-14.2,4
		S-125.6-40.5-125.6-40.5z"/>
	<path fill="#FFFFFF" d="M10-60.4c0-18.7-9.8-33.8-21.8-33.8s-21.8,15.1-21.8,33.8s9.8,33.8,21.8,33.8S10-41.8,10-60.4z"/>
	<path fill="#FFFFFF" d="M235.9-41.5c0-15.2-6.6-27.5-14.7-27.5c-8.1,0-14.7,12.3-14.7,27.5s6.6,27.5,14.7,27.5
		C229.3-14.1,235.9-26.3,235.9-41.5z"/>
</symbol>
<use xlink:href="#Placeholde_Car_-_Listing_Crop"  width="1440" height="1080" x="-720" y="-540" transform="matrix(1 0 0 -1 720.001 539.9995)" overflow="visible"/>
</svg>
