<?xml version="1.0" encoding="utf-8"?>
<!-- Generator: Adobe Illustrator 18.1.1, SVG Export Plug-In . SVG Version: 6.00 Build 0)  -->
<svg version="1.1" id="Layer_1" xmlns="http://www.w3.org/2000/svg" xmlns:xlink="http://www.w3.org/1999/xlink" x="0px" y="0px"
	 width="350" height="350" xml:space="preserve">
<g>
  <animateTransform attributeType="xml"
 attributeName="transform"
 type="rotate"
  from="0 175 175"
 to="360 175 175"
 dur="4s"
 repeatCount="indefinite"/>

	<path opacity="0.66" fill="#9BCC50" d="M216.3,4.5c0,0-3.1-0.6-8.5-1.8c-1.4-0.2-2.9-0.5-4.6-0.7c-1.7-0.2-3.5-0.6-5.4-0.8
		c-1.9-0.2-4-0.4-6.2-0.6c-2.2-0.2-4.5-0.3-7-0.4c-9.7-0.4-21.2-0.1-33.5,1.7c-6.2,0.9-12.5,2.2-19,3.8c-1.6,0.4-3.2,0.9-4.8,1.4
		c-1.6,0.5-3.2,0.9-4.9,1.5c-1.6,0.5-3.2,1.1-4.8,1.6c-0.8,0.3-1.6,0.5-2.4,0.8l-2.4,0.9c-12.8,5-25.4,11.5-36.6,19.3
		c-11.2,7.8-21.2,16.6-29.4,25.5c-8.2,8.9-14.7,17.8-19.6,25.5c-1.2,1.9-2.3,3.8-3.4,5.5c-1,1.8-1.9,3.5-2.8,5c-1.8,3.1-3,5.9-4.1,8
		c-17.2,35.4-21.7,78.5-11.2,118c5.2,19.8,13.8,38.7,25.5,55.4c11.7,16.7,26.4,31.2,42.8,42.7c8.3,5.7,17,10.6,25.9,14.8
		c9,4.2,18.3,7.6,27.7,10c18.9,5,38.2,6.7,56.8,5.1c9.3-0.8,18.4-2.3,27.3-4.4c8.8-2.2,17.3-5.1,25.4-8.6c2-0.9,4.1-1.7,6-2.7
		c2-1,3.9-1.9,5.9-2.9c3.8-2.1,7.6-4.1,11.2-6.5c7.2-4.5,14-9.5,20.2-14.9c6.2-5.4,11.9-11,17-17.1c0.6-0.7,1.3-1.5,1.9-2.2
		c0.6-0.7,1.2-1.5,1.8-2.3c1.2-1.5,2.4-3,3.6-4.6c1.1-1.6,2.2-3.1,3.3-4.7c0.5-0.8,1.1-1.5,1.6-2.3c0.5-0.8,1-1.6,1.5-2.4
		c1-1.6,2-3.1,3-4.7c0.9-1.6,1.8-3.2,2.7-4.8c0.4-0.8,0.9-1.6,1.3-2.4c0.4-0.8,0.8-1.6,1.2-2.4c0.8-1.6,1.6-3.2,2.4-4.8
		c2.9-6.5,5.5-12.8,7.5-19.2c4-12.7,6.3-25.1,7.1-36.6c0.8-11.5,0.4-22.1-0.8-31.6c-0.4-2.4-0.6-4.7-1-6.9c-0.4-2.2-0.8-4.4-1.2-6.5
		c-1-4.1-1.9-8-3-11.6c-1-3.6-2.2-6.8-3.2-9.8c-1.1-2.9-2.2-5.6-3.2-8c-1.1-2.3-2-4.4-2.8-6.2c-0.9-1.8-1.7-3.2-2.3-4.4
		c-0.6-1.2-1.1-2.1-1.4-2.7c-0.3-0.6-0.5-0.9-0.5-0.9s0.1,0.3,0.4,0.9c0.2,0.6,0.6,1.6,1.1,2.8c0.5,1.2,1.1,2.8,1.7,4.6
		c0.6,1.8,1.3,4,2.1,6.4c0.7,2.4,1.5,5.2,2.3,8.1c0.7,3,1.5,6.3,2.1,9.9c0.7,3.6,1.2,7.4,1.7,11.5c0.2,2.1,0.4,4.2,0.5,6.3
		c0.2,2.2,0.2,4.4,0.3,6.7c0.2,9.2-0.4,19.3-2.2,29.9c-1.8,10.7-5.1,21.9-9.9,33.2c-2.3,5.7-5.3,11.2-8.4,16.8
		c-0.8,1.4-1.7,2.8-2.5,4.1c-0.4,0.7-0.9,1.4-1.3,2.1c-0.5,0.7-0.9,1.4-1.4,2c-0.9,1.4-1.9,2.7-2.8,4.1c-1,1.3-2,2.7-3,4
		c-0.5,0.7-1,1.3-1.5,2c-0.5,0.7-1.1,1.3-1.6,1.9c-1.1,1.3-2.2,2.6-3.3,3.9c-1.2,1.2-2.3,2.5-3.5,3.8c-0.6,0.6-1.2,1.3-1.8,1.9
		l-1.9,1.8c-4.9,4.9-10.4,9.4-16.2,13.7c-5.8,4.3-12,8.1-18.5,11.5c-3.2,1.8-6.6,3.2-10,4.8c-1.7,0.7-3.5,1.4-5.2,2.1
		c-1.7,0.7-3.5,1.3-5.3,1.9c-7.1,2.4-14.5,4.3-22.1,5.6c-7.6,1.3-15.3,2-23.1,2c-15.6,0.2-31.4-2.3-46.4-7.3
		c-7.5-2.5-14.9-5.7-21.9-9.5c-7-3.8-13.8-8.2-20.2-13.1c-12.6-9.9-23.6-21.9-32.2-35.4c-8.6-13.5-14.7-28.5-18.2-43.9
		c-1.8-7.7-2.9-15.6-3.3-23.4c-0.4-7.8-0.1-15.7,0.7-23.4c0.9-7.7,2.4-15.3,4.5-22.6c2.2-7.3,4.9-14.4,8.1-21.3
		c0.8-1.6,1.7-3.8,3.1-6.1c0.7-1.2,1.4-2.5,2.1-3.9c0.8-1.3,1.7-2.8,2.6-4.3c3.8-5.9,8.7-12.8,15-19.6C83.4,78,91,71.2,99.6,65.3
		c1-0.8,2.2-1.5,3.3-2.2c1.1-0.7,2.2-1.4,3.3-2.1c1.1-0.7,2.3-1.3,3.5-2c1.2-0.7,2.3-1.3,3.5-1.9c2.4-1.2,4.7-2.5,7.2-3.5
		c1.2-0.5,2.4-1.1,3.6-1.6c1.2-0.5,2.5-1,3.7-1.5l1.8-0.7c0.6-0.2,1.2-0.4,1.9-0.6c1.2-0.4,2.5-0.8,3.7-1.3c1.2-0.4,2.5-0.7,3.7-1.1
		c1.2-0.3,2.5-0.7,3.7-1c4.9-1.2,9.8-2.3,14.5-2.9c9.5-1.4,18.3-1.6,25.7-1.3c1.9,0.1,3.6,0.2,5.3,0.3c1.7,0.2,3.3,0.3,4.8,0.5
		c1.5,0.1,2.9,0.4,4.1,0.6c1.3,0.2,2.4,0.4,3.5,0.5c4.2,0.9,6.5,1.3,6.5,1.3s1-0.2,2.5-0.7c1.5-0.5,3.7-1.3,6-2.4
		c2.3-1.1,4.8-2.6,7-4.6c2.2-2,4.2-4.5,5.3-7.7c1.1-3.2,1.2-6.5,0.4-9.5c-0.8-3-2.3-5.7-4-8c-1.7-2.3-3.7-4.1-5.2-5.4
		C217.3,5.2,216.3,4.5,216.3,4.5z"/>
	<path opacity="0.52" fill="#9BCC50" d="M172.2,36.7c1.7-0.1,3.3-0.1,4.8-0.1c1.5,0,3,0,4.5,0.1c1.4,0.1,2.8,0.2,4.1,0.2
		c0.7,0,1.3,0.1,1.9,0.1c0.6,0.1,1.2,0.1,1.8,0.2c1.2,0.1,2.3,0.2,3.4,0.4c0.5,0.1,1.1,0.1,1.6,0.2c0.5,0.1,1,0.2,1.5,0.2
		c1.9,0.3,3.7,0.6,5.2,0.8c3,0.6,5.2,1.1,6.6,1.4c1.4,0.3,2.1,0.5,2.1,0.5s0.9-0.1,2.3-0.4c1.4-0.3,3.3-0.9,5.3-1.6
		c2-0.8,4.2-1.8,6.1-3.3c1.9-1.5,3.5-3.3,4.4-5.8c0,0-0.2-0.1-0.5-0.2c-0.3-0.1-0.8-0.3-1.5-0.5c-1.4-0.4-3.4-1-6-1.9
		c-5.3-1.4-13.1-3.6-23.2-4.9c-10.1-1.3-22.6-1.8-36.8-0.4c-7.1,0.8-14.6,2.1-22.3,4.1c-7.7,2-15.7,4.7-23.8,8.2
		c-16.1,7-32.3,17.5-46.7,31.6c-14.3,14.1-26.6,31.9-35,52.1c-4.2,10.1-7.4,20.9-9.3,32c-1.9,11.1-2.7,22.6-2.2,34.1
		c0.9,23,7.3,46.1,18.3,66.8c11,20.6,26.8,38.7,45.4,52.3c18.6,13.6,39.9,22.8,61.4,27.1c21.5,4.4,43.1,3.9,62.8-0.2
		c19.7-4.1,37.4-11.9,52.2-21.3c14.8-9.4,26.7-20.6,35.8-31.5c1.2-1.3,2.2-2.7,3.3-4.1c1-1.4,2.1-2.7,3.1-4c0.9-1.4,1.9-2.7,2.8-4
		c0.5-0.7,0.9-1.3,1.4-2c0.4-0.7,0.8-1.3,1.2-2c1.6-2.6,3.2-5.1,4.5-7.6c1.4-2.5,2.7-4.8,3.8-7.1c2.3-4.6,4-8.8,5.5-12.5
		c1.4-3.7,2.6-6.9,3.3-9.5c0.8-2.6,1.5-4.6,1.8-6c0.4-1.4,0.5-2.1,0.5-2.1s-0.3,0.8-0.8,2.4c-0.5,1.6-1.5,4-2.7,7.1
		c-2.6,6.3-6.7,15.6-14,27.1c-0.5,0.7-0.9,1.5-1.4,2.2c-0.5,0.7-1,1.4-1.5,2.2c-1,1.5-2.1,3-3.2,4.5c-1.2,1.5-2.4,3.1-3.6,4.7
		c-0.6,0.8-1.3,1.6-1.9,2.4c-0.7,0.8-1.3,1.6-2,2.4c-5.5,6.4-12.2,13-20.1,19.4c-7.9,6.4-17.1,12.4-27.6,17.7
		c-1.3,0.7-2.7,1.3-4,1.9c-1.4,0.6-2.7,1.3-4.1,1.9c-2.8,1.1-5.7,2.4-8.7,3.4c-5.9,2.2-12.2,3.9-18.8,5.4c-6.6,1.4-13.4,2.4-20.5,3
		c-7.1,0.5-14.5,0.5-22,0c-7.5-0.5-15.2-1.7-22.9-3.5c-7.7-1.8-15.5-4.2-23.2-7.5c-15.3-6.5-30.5-15.8-43.9-28.3
		c-13.3-12.5-25-28.1-33.1-46.3c-4.1-9.1-7.3-18.8-9.5-29c-2.2-10.1-3.4-20.7-3.2-31.5c0.1-10.8,1.4-21.8,4.1-32.6
		c2.7-10.9,6.8-21.6,12.1-31.9c5.4-10.3,12.2-20.1,20.2-29.1c1-1.2,2.1-2.2,3.1-3.3c1.1-1.1,2-2.2,3.2-3.2c2.2-2.1,4.4-4.2,6.8-6.2
		l1.7-1.5l0.9-0.8l0.9-0.7c1.2-0.9,2.4-1.9,3.7-2.8c1.2-1,2.5-1.8,3.8-2.7c1.3-0.9,2.5-1.8,3.9-2.6
		C119.9,45.9,145.4,37.5,172.2,36.7z"/>
	<path fill="#9BCC50" d="M15.7,115.6c1.3-3.5,3.9-9.8,7.9-17.7C27.7,90,33.4,80.5,41,70.7c1.8-2.5,4-4.9,6.1-7.4
		c1-1.3,2.2-2.5,3.3-3.7c1.1-1.2,2.3-2.4,3.5-3.7c1.2-1.2,2.5-2.4,3.7-3.6c1.3-1.2,2.5-2.4,3.8-3.6c2.7-2.3,5.3-4.7,8.2-6.9
		c5.6-4.5,11.7-8.6,18-12.5c3.2-1.8,6.4-3.8,9.7-5.4c1.6-0.8,3.3-1.7,4.9-2.5c1.7-0.8,3.4-1.5,5-2.3c1.7-0.8,3.4-1.5,5.1-2.1
		c1.7-0.7,3.4-1.4,5.1-2c1.7-0.6,3.4-1.2,5.1-1.8c0.9-0.3,1.7-0.6,2.6-0.9c0.9-0.2,1.7-0.5,2.6-0.7c1.7-0.5,3.4-1,5.1-1.5
		c1.7-0.4,3.4-0.8,5.1-1.2c0.8-0.2,1.7-0.4,2.5-0.6c0.8-0.2,1.7-0.3,2.5-0.5c1.7-0.3,3.3-0.6,5-0.9c13.2-2.3,25.7-2.7,36.2-2.2
		c1.3,0.1,2.6,0.1,3.9,0.2c1.3,0.1,2.5,0.1,3.7,0.3c2.4,0.2,4.6,0.5,6.8,0.7c2.1,0.3,4.1,0.6,5.9,0.9c0.9,0.1,1.8,0.3,2.6,0.4
		c0.8,0.2,1.6,0.3,2.4,0.5c3,0.6,5.3,1,6.9,1.5c1.6,0.4,2.4,0.6,2.4,0.6s0.8,0.6,2,1.5c0.6,0.5,1.3,1.1,2,1.8
		c0.7,0.7,1.4,1.6,2.1,2.5c1.4,1.8,2.6,3.9,3.3,6.2c0.7,2.3,0.7,4.8-0.2,7.3c0,0-0.2-0.1-0.6-0.2c-0.4-0.2-1-0.4-1.8-0.6
		c-1.6-0.5-4-1.3-7.1-2.2c-6.3-1.7-15.6-3.9-27.6-5.1c-1.5-0.2-3.1-0.3-4.7-0.3c-1.6-0.1-3.2-0.2-4.9-0.3c-3.3,0-6.9-0.1-10.5,0.1
		c-0.9,0-1.8,0.1-2.8,0.1c-0.9,0-1.9,0.1-2.8,0.2c-1.9,0.2-3.8,0.3-5.8,0.5c-3.9,0.5-8,1-12.1,1.9c-16.6,3.2-34.9,9.4-52.6,20.4
		C76.8,54.7,59.8,70.3,46.6,90.1C40,100,34.4,110.9,30,122.6c-4.3,11.7-7.4,24.2-8.8,37.1c-0.2,1.6-0.4,3.2-0.5,4.9
		c-0.1,1.6-0.2,3.3-0.3,4.9l-0.1,2.5l0,2.5c0,1.6,0,3.3,0,4.9c0.1,1.6,0.1,3.3,0.2,5l0.1,2.5l0.2,2.5c0.1,1.7,0.3,3.3,0.4,5
		c0.2,1.6,0.5,3.3,0.7,5l0.3,2.5l0.5,2.5c0.3,1.6,0.6,3.3,0.9,4.9c0.4,1.6,0.8,3.3,1.2,4.9l0.6,2.5l0.7,2.4c0.5,1.6,0.9,3.2,1.4,4.9
		c0.5,1.6,1.1,3.2,1.6,4.8c0.3,0.8,0.5,1.6,0.8,2.4l0.9,2.4c0.6,1.6,1.2,3.2,1.9,4.7c10.7,25.1,28.3,47.7,50.7,64.1
		c5.6,4.1,11.4,7.9,17.5,11.2c6,3.4,12.3,6.2,18.7,8.8c12.9,4.9,26.3,8.4,39.9,9.7c6.8,0.8,13.6,1,20.3,0.9
		c3.4-0.1,6.7-0.2,10.1-0.6c1.7-0.2,3.4-0.2,5-0.5c1.7-0.2,3.3-0.5,5-0.7c1.7-0.2,3.3-0.6,4.9-0.9c1.6-0.3,3.3-0.6,4.9-1
		c3.2-0.8,6.5-1.5,9.6-2.5c6.4-1.7,12.5-4.1,18.5-6.6c11.9-5.2,23-11.6,33-19.2c9.9-7.6,18.7-16.2,26.3-25.4
		c15.1-18.5,24.9-39.3,30.2-59.4c5.3-20.1,6-39.5,4.2-56.2c-0.9-8.4-2.5-16.2-4.3-23.2c-1-3.5-1.9-6.9-3.1-10
		c-0.6-1.6-1-3.1-1.6-4.6c-0.6-1.5-1.2-2.9-1.7-4.3c-4.6-11.2-9.4-19.5-12.9-25c-0.9-1.4-1.6-2.6-2.3-3.6c-0.7-1-1.3-1.9-1.8-2.5
		c-1-1.4-1.5-2.1-1.5-2.1s1,1.3,2.9,3.8c1,1.2,2,2.9,3.4,4.7c0.6,1,1.4,1.9,2.1,3.1c0.7,1.1,1.4,2.3,2.2,3.6c0.4,0.6,0.8,1.3,1.2,2
		c0.4,0.7,0.8,1.4,1.2,2.1c0.8,1.5,1.7,3,2.5,4.6c1.6,3.3,3.5,6.8,5.1,10.8c3.4,7.9,6.7,17.1,9.1,27.8c2.4,10.6,4,22.6,4,35.5
		c0,1.6-0.1,3.3-0.1,4.9c0,0.8,0,1.7-0.1,2.5c-0.1,0.8-0.1,1.7-0.2,2.5c-0.1,1.7-0.2,3.4-0.4,5.1c-0.2,1.7-0.4,3.4-0.6,5.1
		c-0.1,0.9-0.2,1.7-0.3,2.6c-0.1,0.9-0.3,1.7-0.4,2.6c-0.3,1.7-0.6,3.5-0.9,5.3c-0.4,1.7-0.8,3.5-1.2,5.3c-0.2,0.9-0.4,1.8-0.6,2.7
		c-0.2,0.9-0.5,1.8-0.7,2.7c-1.8,7.1-4.5,14.3-7.4,21.4c-0.8,1.8-1.6,3.6-2.4,5.3c-0.8,1.8-1.8,3.5-2.7,5.3
		c-0.5,0.9-0.9,1.8-1.4,2.7c-0.5,0.9-1,1.7-1.5,2.6c-1,1.7-2,3.5-3.1,5.2c-4.3,6.9-9.2,13.6-14.6,20.1c-5.5,6.4-11.6,12.5-18.2,18.2
		c-6.6,5.7-13.9,10.9-21.6,15.5c-7.7,4.6-15.9,8.7-24.5,12.1c-17.1,6.8-35.8,10.7-54.8,11.5c-19.1,0.7-38.5-2-56.9-7.9
		c-9.2-2.9-18.2-6.8-26.7-11.3c-8.5-4.5-16.8-9.7-24.4-15.6c-7.6-5.9-14.8-12.5-21.3-19.5c-6.5-7.1-12.4-14.6-17.5-22.6
		c-10.2-15.9-17.7-33.3-22-51c-0.3-1.1-0.5-2.2-0.8-3.3c-0.2-1.1-0.5-2.2-0.7-3.3c-0.2-1.1-0.4-2.2-0.7-3.3l-0.3-1.7l-0.3-1.7
		c-0.3-2.2-0.7-4.4-1-6.6c-0.2-2.2-0.4-4.4-0.7-6.6c-0.7-8.8-0.8-17.5-0.2-26c0.7-8.5,1.9-16.8,3.6-24.8c0.5-2,1-4,1.5-5.9
		c0.3-1,0.5-2,0.8-2.9c0.3-1,0.6-1.9,0.9-2.9c0.6-1.9,1.2-3.8,1.8-5.7C14.3,119.3,15,117.4,15.7,115.6z"/>
</g>
</svg>
