<?xml version="1.0" encoding="utf-8"?>
<!-- Generator: Adobe Illustrator 18.1.1, SVG Export Plug-In . SVG Version: 6.00 Build 0)  -->
<svg version="1.1" id="Layer_1" xmlns="http://www.w3.org/2000/svg" xmlns:xlink="http://www.w3.org/1999/xlink" x="0px" y="0px"
	 viewBox="0 0 19 19" enable-background="new 0 0 19 19" xml:space="preserve">
<symbol  id="New_Symbol_47" viewBox="-34.7 -36.2 69.3 72.4">
	<g>
		<path fill="#8BC53F" d="M17.5,32.9c0,0-0.6,0.2-1.7,0.7c-0.6,0.2-1.2,0.5-2,0.7c-0.8,0.2-1.7,0.5-2.7,0.8c-4,1-9.6,1.6-15.3,0.5
			c-5.7-1-11.3-3.5-15.4-6.6c-4.2-3-6.7-6.3-8-7.9c-4.9-6.6-7.7-15.3-7-23.9c0.6-8.6,4.3-16.9,10.2-22.9c2.9-3,6.4-5.4,10.1-7.1
			c3.7-1.7,7.6-2.9,11.4-3.3c3.9-0.4,7.7-0.1,11.3,0.7c3.6,0.8,6.9,2.2,9.8,3.9c5.9,3.4,10,8.3,12.6,13.1
			c2.6,4.8,3.5,9.6,3.8,13.5c0.2,3.9-0.4,6.9-0.8,9c-0.3,1-0.5,1.8-0.7,2.3C33,6.7,33,6.9,33,7c0,0.1-0.1,0.2-0.1,0.2s0-0.1,0-0.2
			c0-0.1,0-0.3,0.1-0.6c0.1-0.5,0.2-1.3,0.3-2.3c0.1-2,0.3-5.1-0.4-8.7c-0.7-3.6-2.2-7.9-5-11.9c-2.8-4-6.9-7.8-12.2-10.1
			c-2.6-1.1-5.4-2-8.4-2.3c-3-0.3-6-0.2-9,0.4c-3,0.6-5.9,1.7-8.6,3.3c-2.7,1.6-5.1,3.6-7.2,5.9c-4,4.8-6.3,10.9-6.5,17.1
			c-0.2,6.2,1.9,12.1,5.3,16.8c0.9,1.1,2.7,3.4,5.6,5.5c2.9,2.1,6.8,3.9,10.9,4.6c4,0.8,8,0.3,10.7-0.3c0.7-0.2,1.3-0.4,1.9-0.5
			c0.6-0.2,1-0.4,1.4-0.5c0.8-0.3,1.2-0.5,1.2-0.5s0.2,0,0.5,0.1c0.3,0.1,0.8,0.2,1.3,0.5c1.1,0.5,2.5,1.3,3.4,2.9
			c0.9,1.6,0.8,3.2,0.4,4.5c-0.2,0.6-0.5,1.2-0.7,1.5C17.7,32.8,17.5,32.9,17.5,32.9z"/>
	</g>
</symbol>
<use xlink:href="#New_Symbol_47"  width="69.3" height="72.4" x="-34.7" y="-36.2" transform="matrix(0.25 0 0 -0.25 9.5 9.4992)" overflow="visible"/>
</svg>
