<?xml version="1.0" encoding="utf-8"?>
<!-- Generator: Adobe Illustrator 18.1.1, SVG Export Plug-In . SVG Version: 6.00 Build 0)  -->
<svg version="1.1" id="Layer_1" xmlns="http://www.w3.org/2000/svg" xmlns:xlink="http://www.w3.org/1999/xlink" x="0px" y="0px"
	 viewBox="0 0 421.6 421.6" enable-background="new 0 0 421.6 421.6" xml:space="preserve">
<g id="New_Symbol_1">
	<g id="New_Symbol_2">
		<g>
			<g>
				<path fill="#FFFFFF" d="M210,415C97,415,5,323,5,210S97,5,210,5s205,92,205,205S323,415,210,415z"/>
				<path fill="#CAF26E" d="M210,10c27,0,53.2,5.3,77.8,15.7c23.8,10.1,45.2,24.5,63.6,42.9c18.4,18.4,32.8,39.8,42.9,63.6
					C404.7,156.8,410,183,410,210s-5.3,53.2-15.7,77.8c-10.1,23.8-24.5,45.2-42.9,63.6c-18.4,18.4-39.8,32.8-63.6,42.9
					C263.2,404.7,237,410,210,410s-53.2-5.3-77.8-15.7c-23.8-10.1-45.2-24.5-63.6-42.9c-18.4-18.4-32.8-39.8-42.9-63.6
					C15.3,263.2,10,237,10,210s5.3-53.2,15.7-77.8c10.1-23.8,24.5-45.2,42.9-63.6c18.4-18.4,39.8-32.8,63.6-42.9
					C156.8,15.3,183,10,210,10 M210,0C94,0,0,94,0,210c0,116,94,210,210,210c116,0,210-94,210-210C420,94,326,0,210,0L210,0z"/>
			</g>
		</g>
	</g>
	<g>
		<rect x="259.7" y="135.9" fill="#7AAD38" width="13.8" height="17"/>
	</g>
	<g>
		<rect x="147.2" y="135.9" fill="#7AAD38" width="13.8" height="17"/>
	</g>
	<g>
		<g>
			<path fill="#CAF26E" d="M299.8,265.8c0,7.2-5.9,13.1-13.1,13.1H133.3c-7.2,0-13.1-5.9-13.1-13.1v-104c0-7.2,5.9-13.1,13.1-13.1
				h153.5c7.2,0,13.1,5.9,13.1,13.1V265.8z"/>
		</g>
		<g>
			<path fill="#7AAD38" d="M286.7,286.9H133.3c-11.6,0-21.1-9.4-21.1-21.1v-104c0-11.6,9.4-21.1,21.1-21.1h153.5
				c11.6,0,21.1,9.4,21.1,21.1v104C307.8,277.4,298.3,286.9,286.7,286.9z M133.3,156.7c-2.7,0-5.1,2.3-5.1,5.1v104
				c0,2.7,2.3,5.1,5.1,5.1h153.5c2.7,0,5.1-2.3,5.1-5.1v-104c0-2.7-2.3-5.1-5.1-5.1H133.3z"/>
		</g>
	</g>
	<g>
		<path fill="#7AAD38" d="M233.7,192.7h-47.5c-4.2,0-7.6-3.4-7.6-7.6v-56.5c0-4.2,3.4-7.6,7.6-7.6h47.5c4.2,0,7.6,3.4,7.6,7.6v56.5
			C241.4,189.3,237.9,192.7,233.7,192.7z M189.5,181.8h41v-50h-41V181.8z"/>
	</g>
	<g>
		<g>
			<path fill="#CAF26E" d="M299.8,197.8c0,6-4.7,12.4-10.4,14.2l-69.1,22.4c-5.7,1.8-15,1.8-20.7,0L130.6,212
				c-5.7-1.8-10.4-8.3-10.4-14.2v-38.2c0-6,4.9-10.9,10.9-10.9h157.8c6,0,10.9,4.9,10.9,10.9V197.8z"/>
		</g>
		<g>
			<path fill="#7AAD38" d="M210,240.8c-4.4,0-8.7-0.6-11.9-1.6L129,216.8c-7.7-2.5-13.8-10.9-13.8-19v-38.2
				c0-8.8,7.1-15.9,15.9-15.9h157.8c8.8,0,15.9,7.1,15.9,15.9v38.2c0,8.1-6.1,16.5-13.8,19l-69.1,22.4
				C218.7,240.3,214.4,240.8,210,240.8z M131.1,153.7c-3.2,0-5.9,2.6-5.9,5.9v38.2c0,3.8,3.3,8.3,6.9,9.5l69.1,22.4
				c2.2,0.7,5.4,1.1,8.8,1.1s6.6-0.4,8.8-1.1l69.1-22.4c3.6-1.2,6.9-5.7,6.9-9.5v-38.2c0-3.2-2.6-5.9-5.9-5.9H131.1z"/>
		</g>
	</g>
</g>
</svg>
