<?xml version="1.0" encoding="utf-8"?>
<!-- Generator: Adobe Illustrator 18.1.1, SVG Export Plug-In . SVG Version: 6.00 Build 0)  -->
<svg version="1.1" id="Layer_1" xmlns="http://www.w3.org/2000/svg" xmlns:xlink="http://www.w3.org/1999/xlink" x="0px" y="0px"
	 viewBox="0 0 420 420" enable-background="new 0 0 420 420" xml:space="preserve">
<symbol  id="New_Symbol_1_1_" viewBox="-210 -210 420 420">
	<g>
		<g>
			<path fill="#FFFFFF" d="M0-205c-113,0-205,92-205,205s92,205,205,205S205,113,205,0S113-205,0-205z"/>
			<path fill="#CAF26E" d="M0,200c27,0,53.2-5.3,77.8-15.7c23.8-10.1,45.2-24.5,63.6-42.9c18.4-18.4,32.8-39.8,42.9-63.6
				C194.7,53.2,200,27,200,0s-5.3-53.2-15.7-77.8c-10.1-23.8-24.5-45.2-42.9-63.6c-18.4-18.4-39.8-32.8-63.6-42.9
				C53.2-194.7,27-200,0-200s-53.2,5.3-77.8,15.7c-23.8,10.1-45.2,24.5-63.6,42.9c-18.4,18.4-32.8,39.8-42.9,63.6
				C-194.7-53.2-200-27-200,0s5.3,53.2,15.7,77.8c10.1,23.8,24.5,45.2,42.9,63.6c18.4,18.4,39.8,32.8,63.6,42.9
				C-53.2,194.7-27,200,0,200 M0,210c-116,0-210-94-210-210c0-116,94-210,210-210c116,0,210,94,210,210C210,116,116,210,0,210L0,210
				z"/>
		</g>
	</g>
</symbol>
<g id="New_Symbol_1">
	
		<use xlink:href="#New_Symbol_1_1_"  width="420" height="420" x="-210" y="-210" transform="matrix(1 0 0 -1 210 210.0015)" overflow="visible"/>
	
		<line fill="none" stroke="#7AAD38" stroke-width="10" stroke-linejoin="round" stroke-miterlimit="10" x1="263.8" y1="145.9" x2="173.6" y2="161.8"/>
	<g>
		<g>
			<path fill="#CAF26E" d="M298.6,180.6c-2.2,0-4.3,0.1-6.5,0.4l19.7,55c0.9,2.6-0.4,5.5-3,6.4c-0.6,0.2-1.1,0.3-1.7,0.3
				c-2.1,0-4-1.3-4.7-3.3L282.3,183c-23.6,7-40.7,28.9-40.7,54.7c0,31.5,25.6,57.1,57.1,57.1c31.5,0,57.1-25.6,57.1-57.1
				S330.2,180.6,298.6,180.6z"/>
		</g>
		<g>
			<circle fill="#7AAD38" cx="298.6" cy="237.7" r="10.9"/>
		</g>
	</g>
	<g>
		<path fill="#CAF26E" d="M114.1,236.2c-2.3-1.5-2.9-4.6-1.4-6.9l30.1-44.9c-6.3-2.4-13.1-3.7-20.2-3.7c-31.5,0-57.1,25.6-57.1,57.1
			c0,31.5,25.6,57.1,57.1,57.1c31.5,0,57.1-25.6,57.1-57.1c0-0.3,0-0.5,0-0.8c-24.5,0-61.8,0.1-62.8,0.1
			C115.9,237,115,236.7,114.1,236.2z"/>
	</g>
	<g>
		<circle fill="#7AAD38" cx="122.6" cy="237.7" r="10.9"/>
	</g>
	<g>
		<circle fill="#7AAD38" cx="200.8" cy="237.7" r="9.5"/>
	</g>
	<g>
		<path fill="#7AAD38" d="M200.8,260.2c-12.4,0-22.5-10.1-22.5-22.5s10.1-22.5,22.5-22.5s22.5,10.1,22.5,22.5
			S213.2,260.2,200.8,260.2z M200.8,222.3c-8.5,0-15.5,6.9-15.5,15.5c0,8.5,6.9,15.5,15.5,15.5s15.5-6.9,15.5-15.5
			C216.3,229.2,209.3,222.3,200.8,222.3z"/>
	</g>
	<g>
		<path fill="#7AAD38" d="M279.6,143.9c-1.7,0-3.4-0.9-4.3-2.4c-1.4-2.4-0.7-5.4,1.7-6.9l5-3c0.2-0.1,0.4-0.2,0.6-0.3
			c4-1.8,5.3-5.3,4.5-7.9c-0.9-2.9-4.2-4.1-8.8-3.2l-20.8,4.5c-2.7,0.6-5.4-1.1-5.9-3.8c-0.6-2.7,1.1-5.4,3.8-5.9l20.8-4.5
			c0,0,0.1,0,0.1,0c8-1.5,17.4,1,20.3,10.1c2.1,6.8-0.6,15.7-9.7,19.9l-4.7,2.8C281.4,143.7,280.5,143.9,279.6,143.9z"/>
	</g>
	<g>
		<path fill="#7AAD38" d="M200.8,243.7c-1.4,0-2.8-0.5-3.9-1.4c-2.5-2.2-2.8-5.9-0.7-8.5l67.5-78.9c2.2-2.5,5.9-2.8,8.5-0.7
			c2.5,2.2,2.8,5.9,0.7,8.5l-67.5,78.9C204.2,243,202.5,243.7,200.8,243.7z"/>
	</g>
	<g>
		
			<rect x="122.3" y="179.1" transform="matrix(0.3383 0.941 -0.941 0.3383 291.5552 -49.488)" fill="#7AAD38" width="117.3" height="7"/>
	</g>
	<g>
		<path fill="#7AAD38" d="M200.8,243.7h-78.2v-12h69.6L164,153.1l11.3-4.1l31.2,86.7c0.7,1.8,0.4,3.9-0.7,5.5
			C204.6,242.8,202.8,243.7,200.8,243.7z"/>
	</g>
	<g>
		
			<rect x="143.1" y="154" transform="matrix(0.8304 0.5572 -0.5572 0.8304 136.4362 -48.6625)" fill="#7AAD38" width="10" height="91.5"/>
	</g>
	<g>
		<path fill="#7AAD38" d="M138.4,120.9c0.6-2.2,3.2-4,6-4h41c2.8,0,5.7,1.8,6.5,4c0.8,2.2-0.8,4-3.5,4h-4c-2.8,0-7.1,0.7-9.7,1.6
			l-16.6,5.7c-2.6,0.9-6.7,0.5-9.1-0.8l-7.3-4.1C139.3,126,137.8,123.1,138.4,120.9z"/>
	</g>
	
		<line fill="none" stroke="#7AAD38" stroke-width="12" stroke-linejoin="round" stroke-miterlimit="10" x1="298.6" y1="237.7" x2="261.7" y2="134.4"/>
	
		<line fill="none" stroke="#7AAD38" stroke-width="7" stroke-linejoin="round" stroke-miterlimit="10" x1="298.6" y1="237.7" x2="256.5" y2="119.8"/>
	<g>
		<path fill="#7AAD38" d="M173,224.2h10.3c-3.7-16.8-14.3-31-28.5-39.7l-5.6,8.3C160.7,199.8,169.4,211,173,224.2z"/>
		<path fill="#7AAD38" d="M174.7,237.7c0,28.7-23.4,52.1-52.1,52.1c-28.7,0-52.1-23.4-52.1-52.1c0-28.7,23.4-52.1,52.1-52.1
			c6.1,0,11.9,1.1,17.3,3l5.7-8.5c-7.1-2.9-14.9-4.5-23.1-4.5c-34.2,0-62.1,27.9-62.1,62.1s27.9,62.1,62.1,62.1s62.1-27.9,62.1-62.1
			c0-0.3,0-0.5,0-0.8c-3.1,0-6.4,0-10,0C174.7,237.2,174.7,237.5,174.7,237.7z"/>
	</g>
	<g>
		<path fill="#7AAD38" d="M298.6,175.6c-2.8,0-5.5,0.2-8.2,0.6l3.5,9.7c1.6-0.1,3.1-0.2,4.7-0.2c28.7,0,52.1,23.4,52.1,52.1
			c0,28.7-23.4,52.1-52.1,52.1s-52.1-23.4-52.1-52.1c0-23.6,15.8-43.6,37.4-50l-3.4-9.4c-25.5,7.7-44.1,31.5-44.1,59.4
			c0,34.2,27.9,62.1,62.1,62.1s62.1-27.9,62.1-62.1S332.9,175.6,298.6,175.6z"/>
	</g>
</g>
</svg>
