<?xml version="1.0" encoding="utf-8"?>
<!-- Generator: Adobe Illustrator 18.1.1, SVG Export Plug-In . SVG Version: 6.00 Build 0)  -->
<svg version="1.1" id="Layer_1" xmlns="http://www.w3.org/2000/svg" xmlns:xlink="http://www.w3.org/1999/xlink" x="0px" y="0px"
	 viewBox="0 0 420 420" enable-background="new 0 0 420 420" xml:space="preserve">
<symbol  id="New_Symbol_1_1_" viewBox="-210 -210 420 420">
	<g>
		<g>
			<path fill="#FFFFFF" d="M0-205c-113,0-205,92-205,205s92,205,205,205S205,113,205,0S113-205,0-205z"/>
			<path fill="#CAF26E" d="M0,200c27,0,53.2-5.3,77.8-15.7c23.8-10.1,45.2-24.5,63.6-42.9c18.4-18.4,32.8-39.8,42.9-63.6
				C194.7,53.2,200,27,200,0s-5.3-53.2-15.7-77.8c-10.1-23.8-24.5-45.2-42.9-63.6c-18.4-18.4-39.8-32.8-63.6-42.9
				C53.2-194.7,27-200,0-200s-53.2,5.3-77.8,15.7c-23.8,10.1-45.2,24.5-63.6,42.9c-18.4,18.4-32.8,39.8-42.9,63.6
				C-194.7-53.2-200-27-200,0s5.3,53.2,15.7,77.8c10.1,23.8,24.5,45.2,42.9,63.6c18.4,18.4,39.8,32.8,63.6,42.9
				C-53.2,194.7-27,200,0,200 M0,210c-116,0-210-94-210-210c0-116,94-210,210-210c116,0,210,94,210,210C210,116,116,210,0,210L0,210
				z"/>
		</g>
	</g>
</symbol>
<g id="New_Symbol_1">
	<g>
		
			<use xlink:href="#New_Symbol_1_1_"  width="420" height="420" x="-210" y="-210" transform="matrix(1 0 0 -1 210 210.0015)" overflow="visible"/>
		<path fill="#CAF26E" d="M327.9,242.8c-8.2-35.5,1.7-69,1.7-69l-6.5-20l9-21l4-42.5h-134l6.5,89l2.5,22c0,0-5.9,45.3-53.4,53.6
			c-33.6,5.9-56.1-0.1-56.1-0.1s-7.2,4.1-19.1,19l-6.7,0.4L70,297.3c0,0,27,30,103.7,32.6c9.6,0.3,26.3,0,26.3,0l8.7-9.3l43.3-1.3
			l14,10.6c0,0,12.2,0,17.4,0c24.6,0,50.2-5.6,50.2-5.6v-31l-0.1-0.1C333.1,283.5,331.8,259.7,327.9,242.8z"/>
		<g>
			<path fill="#7AAD38" d="M340.1,133.5l4-42.5c0.2-2.2-0.5-4.5-2-6.1s-3.7-2.6-5.9-2.6h-134c-2.2,0-4.3,0.9-5.9,2.6
				c-1.5,1.6-2.3,3.8-2.1,6l6.5,89c0,0.1,0,0.2,0,0.3l2.4,20.9c-1.1,6-8.7,39.3-46.7,45.9c-31.3,5.5-52.5,0.1-52.7,0
				c-2-0.5-4.2-0.3-6,0.8c-0.9,0.5-8.2,4.9-19.5,18.6c-0.1,0-0.2-0.1-0.3-0.1c-4.3-1.1-8.6,1.5-9.7,5.8l-5.8,23.2
				c-0.6,2.6,0,5.3,1.8,7.3c0.4,0.4,3.9,4.2,11.4,9.2c0.1,0,0.1-0.1,0.2-0.1c1.7-1.4,3.4-2.8,3.4-2.8s0.4,0.2,0.9,0.6
				c0.5,0.4,1.2,0.8,2,1.2c1.4,0.8,2.9,1.7,2.9,1.7s-0.5,2.1-0.9,4.3c0,0.1,0,0.1,0,0.2c6.4,3.5,14.5,7.1,24.5,10.4
				c0-0.1,0.1-0.1,0.1-0.2c1.3-1.8,2.5-3.6,2.5-3.6s1.6,0.5,3.1,1c0.8,0.3,1.6,0.4,2.2,0.6c0.6,0.2,1,0.3,1,0.3s0.1,2.2,0.1,4.3
				c0,0.1,0,0.2,0,0.2c7.6,2.1,16.1,3.9,25.6,5.3c0-0.1,0.1-0.1,0.1-0.2c0.9-2,1.8-3.9,1.8-3.9s0.4,0.1,1,0.2
				c0.6,0.1,1.4,0.2,2.2,0.3c1.6,0.2,3.3,0.3,3.3,0.3s0.4,2.1,0.8,4.3c0,0.1,0,0.2,0,0.2c6.6,0.7,13.6,1.2,21.1,1.5
				c1.5,0.1,3.1,0.1,4.8,0.1c0-0.1,0-0.1,0.1-0.2c0.7-2.1,1.3-4.1,1.3-4.1l6.5,0l1.3,4.3c6.6,0,12.3-0.1,12.7-0.1
				c2.2,0,4.2-1,5.7-2.5l6.4-6.8l37.2-1.1l11.7,8.9c1.4,1.1,3.1,1.6,4.8,1.6h12.5l1.3-4.3c0,0,1.6,0,3.2,0c1.6,0,3.3,0,3.3,0
				s0.7,2.1,1.4,4.1c0,0.1,0,0.1,0.1,0.2c9.1-0.2,18.1-1.1,25.8-2.1c0-0.1,0-0.1,0-0.2c0.3-2.1,0.7-4.3,0.7-4.3s1.6-0.2,3.2-0.5
				c1.6-0.2,3.2-0.5,3.2-0.5s0.9,2,1.9,3.9c0,0.1,0.1,0.1,0.1,0.2c7.4-1.2,12.3-2.2,12.7-2.3c3.7-0.8,6.3-4.1,6.3-7.8v-31
				c0-0.6-0.1-1.2-0.2-1.8c-0.5-10.7-1.9-33.6-5.7-50.4c-7.6-32.9,1.5-64.7,1.5-65c0.5-1.5,0.4-3.2-0.1-4.7l-5.6-17.1l7.8-18.2
				C339.8,135.2,340,134.4,340.1,133.5z M320.1,244.6c3.5,15.4,4.9,37.2,5.3,47.4c-8.2,1.6-22.1,4-34.2,4c-0.1,0-0.2,0-0.2,0
				c-0.2,0-10.6,0.5-27.7,1.1c1.8-11.5,5.7-25.6,10.6-28.5c7.5-4.4,33.3-21,45.3-28.8C319.4,241.5,319.8,243,320.1,244.6z
				 M327.3,98.3l-3.1,32.5l-8.5,19.8c-0.8,1.8-0.9,3.8-0.3,5.6l5.8,17.8c-1.9,7.6-6.9,31.3-3.3,58.3c-10.3,6.7-39.8,25.7-47.6,30.3
				c-4.9,2.9-8.8,10.2-11.8,22.5c-1.1,4.7-1.9,9.2-2.4,12.2c-1.8,0.1-3.6,0.1-5.5,0.2c-5.8-18.5-18.9-24.2-29.5-28.8
				c-4.8-2.1-9.2-4-11.9-6.7c19.6-15.9,25.5-41.5,25.8-42.6c0.3-1.3-0.2-2.6-1.1-3.4l-15.1-13c0.1-0.4,0.1-0.6,0.1-0.6
				c0.1-0.6,0.1-1.3,0-1.9l-2.5-21.8l-5.9-80.3H327.3z M103.4,263.4c8.1,1.5,28.5,4.2,55.7-0.6c27.5-4.8,42.4-21,50-33.7
				c4.1-6.9,6.6-13.5,8.1-18.5l10.7,9.2c-1.9,6.4-8.8,26.8-25.3,38.6c-1.4,1-1.9,3-1,4.5c3.4,6.3,10,9.2,17,12.2
				c9.8,4.2,19.9,8.6,24.9,22.5c-19.4,0.5-43.5,0.9-69.6,0.9c-22.8,0-58.7-8.4-83.6-21.6C96.3,269.6,100.8,265.4,103.4,263.4z
				 M283.5,321.9h-14.7l-11.9-9c-1.5-1.1-3.2-1.7-5.1-1.6l-43.3,1.3c-2.1,0.1-4.1,1-5.6,2.5l-6.3,6.8c-5.3,0.1-15.8,0.2-22.5-0.1
				c-58.2-2-86.4-20.4-95.1-27.3l2.7-10.8c26.9,15.5,67,24.8,92.1,24.8c63.3,0,114.7-2.4,117.6-2.6c12.2,0,25.7-2.1,34.3-3.8v15.5
				C316.8,319.3,299.8,321.9,283.5,321.9z"/>
			<rect x="249.6" y="76.8" fill="#CAF26E" width="34.5" height="59.5"/>
			<path fill="#7AAD38" d="M284.1,71.8h-34.5c-2.8,0-5,2.2-5,5v59.5c0,2.8,2.2,5,5,5h34.5c2.8,0,5-2.2,5-5V76.8
				C289.1,74,286.9,71.8,284.1,71.8z M279.1,131.3h-24.5V81.8h24.5V131.3z"/>
		</g>
	</g>
</g>
</svg>
