<?xml version="1.0" encoding="utf-8"?>
<!-- Generator: Adobe Illustrator 18.1.1, SVG Export Plug-In . SVG Version: 6.00 Build 0)  -->
<svg version="1.1" id="Layer_1" xmlns="http://www.w3.org/2000/svg" xmlns:xlink="http://www.w3.org/1999/xlink" x="0px" y="0px"
	 viewBox="0 0 420 420" enable-background="new 0 0 420 420" xml:space="preserve">
<symbol  id="New_Symbol_1_1_" viewBox="-210 -210 420 420">
	<g>
		<g>
			<path fill="#FFFFFF" d="M0-205c-113,0-205,92-205,205s92,205,205,205S205,113,205,0S113-205,0-205z"/>
			<path fill="#CAF26E" d="M0,200c27,0,53.2-5.3,77.8-15.7c23.8-10.1,45.2-24.5,63.6-42.9c18.4-18.4,32.8-39.8,42.9-63.6
				C194.7,53.2,200,27,200,0s-5.3-53.2-15.7-77.8c-10.1-23.8-24.5-45.2-42.9-63.6c-18.4-18.4-39.8-32.8-63.6-42.9
				C53.2-194.7,27-200,0-200s-53.2,5.3-77.8,15.7c-23.8,10.1-45.2,24.5-63.6,42.9c-18.4,18.4-32.8,39.8-42.9,63.6
				C-194.7-53.2-200-27-200,0s5.3,53.2,15.7,77.8c10.1,23.8,24.5,45.2,42.9,63.6c18.4,18.4,39.8,32.8,63.6,42.9
				C-53.2,194.7-27,200,0,200 M0,210c-116,0-210-94-210-210c0-116,94-210,210-210c116,0,210,94,210,210C210,116,116,210,0,210L0,210
				z"/>
		</g>
	</g>
</symbol>
<g id="New_Symbol_1">
	<g>
		
			<use xlink:href="#New_Symbol_1_1_"  width="420" height="420" x="-210" y="-210" transform="matrix(1 0 0 -1 210 210.0015)" overflow="visible"/>
		<circle fill="#CAF26E" stroke="#7AAD38" stroke-width="16" stroke-miterlimit="10" cx="210" cy="107" r="22.1"/>
		<g>
			<path fill="#7AAD38" d="M230.2,284.9c-0.9,12.6-1.7,26.2-1.7,30.3s-8.3,7.4-18.5,7.4c-10.2,0-18.5-3.3-18.5-7.4
				s-0.8-17.7-1.7-30.3l-5.7-78.3c-0.9-12.6,8.7-22.9,21.3-22.9h9.1c12.6,0,22.2,10.3,21.3,22.9L230.2,284.9z"/>
			<path fill="none" stroke="#7AAD38" stroke-width="16" stroke-miterlimit="10" d="M230.2,284.9c-0.9,12.6-1.7,26.2-1.7,30.3
				s-8.3,7.4-18.5,7.4c-10.2,0-18.5-3.3-18.5-7.4s-0.8-17.7-1.7-30.3l-5.7-78.3c-0.9-12.6,8.7-22.9,21.3-22.9h9.1
				c12.6,0,22.2,10.3,21.3,22.9L230.2,284.9z"/>
		</g>
		<g>
			<path fill="#CAF26E" d="M245.2,251.5c0,12.7,0,25.8,0,29.2c0,3.4-10.4,6.2-23,6.2h-24.3c-12.7,0-23-2.8-23-6.2
				c0-3.4,0-16.6,0-29.2v-91.6c0-12.6,10.3-23,23-23h24.3c12.6,0,23,10.4,23,23V251.5z"/>
			<path fill="none" stroke="#7AAD38" stroke-width="16" stroke-miterlimit="10" d="M245.2,251.5c0,12.7,0,25.8,0,29.2
				c0,3.4-10.4,6.2-23,6.2h-24.3c-12.7,0-23-2.8-23-6.2c0-3.4,0-16.6,0-29.2v-91.6c0-12.6,10.3-23,23-23h24.3c12.6,0,23,10.4,23,23
				V251.5z"/>
		</g>
		<g>
			<path fill="#CAF26E" d="M254.5,178.3c2.7,8.4-0.5,19.9-7.2,25.6l-7.2,6.1c-6.7,5.7-19.4,10.4-28.2,10.4h-3.8
				c-8.8,0-21.5-4.7-28.2-10.4l-7.2-6.1c-6.7-5.7-10-17.2-7.2-25.6l8.5-26.2c2.7-8.4,12.2-15.2,21-15.2H225c8.8,0,18.2,6.8,21,15.2
				L254.5,178.3z"/>
			<path fill="none" stroke="#7AAD38" stroke-width="16" stroke-miterlimit="10" d="M254.5,178.3c2.7,8.4-0.5,19.9-7.2,25.6
				l-7.2,6.1c-6.7,5.7-19.4,10.4-28.2,10.4h-3.8c-8.8,0-21.5-4.7-28.2-10.4l-7.2-6.1c-6.7-5.7-10-17.2-7.2-25.6l8.5-26.2
				c2.7-8.4,12.2-15.2,21-15.2H225c8.8,0,18.2,6.8,21,15.2L254.5,178.3z"/>
		</g>
		<path fill="#7AAD38" d="M219.3,199.8h-18.6l-17,13.5c0,0,13.7,6.7,26.3,6.7c12.6,0,26.3-6.7,26.3-6.7L219.3,199.8z"/>
	</g>
</g>
</svg>
