<?xml version="1.0" encoding="utf-8"?>
<!-- Generator: Adobe Illustrator 18.1.1, SVG Export Plug-In . SVG Version: 6.00 Build 0)  -->
<svg version="1.1" id="Layer_1" xmlns="http://www.w3.org/2000/svg" xmlns:xlink="http://www.w3.org/1999/xlink" x="0px" y="0px"
	 viewBox="0 0 420 420" enable-background="new 0 0 420 420" xml:space="preserve">
<symbol  id="New_Symbol_2" viewBox="-210 -210 420 420">
	<g>
		<g>
			<path fill="#FFFFFF" d="M0-205c-113,0-205,92-205,205s92,205,205,205S205,113,205,0S113-205,0-205z"/>
			<path fill="#CAF26E" d="M0,200c27,0,53.2-5.3,77.8-15.7c23.8-10.1,45.2-24.5,63.6-42.9c18.4-18.4,32.8-39.8,42.9-63.6
				C194.7,53.2,200,27,200,0s-5.3-53.2-15.7-77.8c-10.1-23.8-24.5-45.2-42.9-63.6c-18.4-18.4-39.8-32.8-63.6-42.9
				C53.2-194.7,27-200,0-200s-53.2,5.3-77.8,15.7c-23.8,10.1-45.2,24.5-63.6,42.9c-18.4,18.4-32.8,39.8-42.9,63.6
				C-194.7-53.2-200-27-200,0s5.3,53.2,15.7,77.8c10.1,23.8,24.5,45.2,42.9,63.6c18.4,18.4,39.8,32.8,63.6,42.9
				C-53.2,194.7-27,200,0,200 M0,210c-116,0-210-94-210-210c0-116,94-210,210-210c116,0,210,94,210,210C210,116,116,210,0,210L0,210
				z"/>
		</g>
	</g>
</symbol>
<use xlink:href="#New_Symbol_2"  width="420" height="420" x="-210" y="-210" transform="matrix(1 0 0 -1 210 210.0015)" overflow="visible"/>
<path fill="#7AAD38" d="M258.5,98.9v5h-22l-6.7-6.7c0,0-3.1,0-15.5,0c-53.7,0-66.1,36.2-73.2,46.6c-1.2,1.8-1.3,3-1.3,3l4.7,3.5
	c0,0,0.8-0.4,1.5-1.7c9.6-17.1,48.9-33.7,48.9-6.7c0,13.5,30.3,12.2,30.3-0.6c0-25.8,33.4-18.7,33.4-18.7v5.5h14.9V98.9H258.5z"/>
<g>
	<g>
		<path fill="#CAF26E" d="M194.1,332.1c-0.1,3.2,2.4,5.9,5.6,5.9h20.5c3.2,0,5.7-2.6,5.6-5.9l-7.2-171.8c-0.1-3.2-2.9-5.9-6.1-5.9
			h-5.2c-3.2,0-6,2.6-6.1,5.9L194.1,332.1z"/>
		<path fill="none" stroke="#7AAD38" stroke-width="13.2483" stroke-miterlimit="10" d="M194.1,332.1c-0.1,3.2,2.4,5.9,5.6,5.9h20.5
			c3.2,0,5.7-2.6,5.6-5.9l-7.2-171.8c-0.1-3.2-2.9-5.9-6.1-5.9h-5.2c-3.2,0-6,2.6-6.1,5.9L194.1,332.1z"/>
	</g>
	<polygon fill="#7AAD38" points="224.8,119.4 195.2,119.4 194.7,159.3 225.2,159.3 	"/>
</g>
</svg>
