<?xml version="1.0" encoding="utf-8"?>
<!-- Generator: Adobe Illustrator 18.1.1, SVG Export Plug-In . SVG Version: 6.00 Build 0)  -->
<svg version="1.1" id="Layer_1" xmlns="http://www.w3.org/2000/svg" xmlns:xlink="http://www.w3.org/1999/xlink" x="0px" y="0px"
	 viewBox="0 0 420 420" enable-background="new 0 0 420 420" xml:space="preserve">
<symbol  id="New_Symbol_1" viewBox="-210 -210 420 420">
	<g>
		<g>
			<path fill="#FFFFFF" d="M0-205c-113,0-205,92-205,205s92,205,205,205S205,113,205,0S113-205,0-205z"/>
			<path fill="#CAF26E" d="M0,200c27,0,53.2-5.3,77.8-15.7c23.8-10.1,45.2-24.5,63.6-42.9c18.4-18.4,32.8-39.8,42.9-63.6
				C194.7,53.2,200,27,200,0s-5.3-53.2-15.7-77.8c-10.1-23.8-24.5-45.2-42.9-63.6c-18.4-18.4-39.8-32.8-63.6-42.9
				C53.2-194.7,27-200,0-200s-53.2,5.3-77.8,15.7c-23.8,10.1-45.2,24.5-63.6,42.9c-18.4,18.4-32.8,39.8-42.9,63.6
				C-194.7-53.2-200-27-200,0s5.3,53.2,15.7,77.8c10.1,23.8,24.5,45.2,42.9,63.6c18.4,18.4,39.8,32.8,63.6,42.9
				C-53.2,194.7-27,200,0,200 M0,210c-116,0-210-94-210-210c0-116,94-210,210-210c116,0,210,94,210,210C210,116,116,210,0,210L0,210
				z"/>
		</g>
	</g>
</symbol>
<use xlink:href="#New_Symbol_1"  width="420" height="420" x="-210" y="-210" transform="matrix(1 0 0 -1 210 210.0015)" overflow="visible"/>
<g>
	<path fill="#7AAD38" d="M168.3,289.4c-3.1,0-5.6-2.5-5.6-5.6V114.3c0-3,2.6-5.6,5.6-5.6h83.4c3,0,5.6,2.6,5.6,5.6v169.6
		c0,3.1-2.5,5.6-5.6,5.6H168.3z"/>
	<path fill="#7AAD38" d="M249.3,116.7v164.7h-78.5V116.7H249.3 M251.7,100.7h-83.4c-7.5,0-13.6,6.1-13.6,13.6v169.6
		c0,7.5,6.1,13.6,13.6,13.6h83.4c7.5,0,13.6-6.1,13.6-13.6V114.3C265.3,106.8,259.1,100.7,251.7,100.7L251.7,100.7z"/>
</g>
<rect x="170.4" y="117.2" fill="#CAF26E" width="79.1" height="133.8"/>
<circle fill="#CAF26E" cx="209.9" cy="273.9" r="11.7"/>
</svg>
