<?xml version="1.0" encoding="utf-8"?>
<!-- Generator: Adobe Illustrator 18.1.1, SVG Export Plug-In . SVG Version: 6.00 Build 0)  -->
<svg version="1.1" id="Layer_1" xmlns="http://www.w3.org/2000/svg" xmlns:xlink="http://www.w3.org/1999/xlink" x="0px" y="0px"
	 viewBox="0 0 420 420" enable-background="new 0 0 420 420" xml:space="preserve">
<symbol  id="New_Symbol_1" viewBox="-210 -210 420 420">
	<g>
		<g>
			<path fill="#FFFFFF" d="M0-205c-113,0-205,92-205,205s92,205,205,205S205,113,205,0S113-205,0-205z"/>
			<path fill="#CAF26E" d="M0,200c27,0,53.2-5.3,77.8-15.7c23.8-10.1,45.2-24.5,63.6-42.9c18.4-18.4,32.8-39.8,42.9-63.6
				C194.7,53.2,200,27,200,0s-5.3-53.2-15.7-77.8c-10.1-23.8-24.5-45.2-42.9-63.6c-18.4-18.4-39.8-32.8-63.6-42.9
				C53.2-194.7,27-200,0-200s-53.2,5.3-77.8,15.7c-23.8,10.1-45.2,24.5-63.6,42.9c-18.4,18.4-32.8,39.8-42.9,63.6
				C-194.7-53.2-200-27-200,0s5.3,53.2,15.7,77.8c10.1,23.8,24.5,45.2,42.9,63.6c18.4,18.4,39.8,32.8,63.6,42.9
				C-53.2,194.7-27,200,0,200 M0,210c-116,0-210-94-210-210c0-116,94-210,210-210c116,0,210,94,210,210C210,116,116,210,0,210L0,210
				z"/>
		</g>
	</g>
</symbol>
<use xlink:href="#New_Symbol_1"  width="420" height="420" x="-210" y="-210" transform="matrix(1 0 0 -1 210 210.0015)" overflow="visible"/>
<path fill="#CAF26E" stroke="#7AAD38" stroke-width="16" stroke-miterlimit="10" d="M116,307.6l0-182.2c0-18.8,15.3-34.1,34.1-34.1
	s34.1,15.3,34.1,34.1l0,182.2"/>
<line fill="#F7F7F7" stroke="#7AAD38" stroke-width="10" stroke-linejoin="round" stroke-miterlimit="10" x1="116" y1="125.4" x2="184.2" y2="125.4"/>
<line fill="#F7F7F7" stroke="#7AAD38" stroke-width="10" stroke-linejoin="round" stroke-miterlimit="10" x1="116" y1="171.7" x2="181.1" y2="171.7"/>
<line fill="#F7F7F7" stroke="#7AAD38" stroke-width="10" stroke-linejoin="round" stroke-miterlimit="10" x1="116" y1="218" x2="167.9" y2="218"/>
<line fill="#F7F7F7" stroke="#7AAD38" stroke-width="10" stroke-linejoin="round" stroke-miterlimit="10" x1="116" y1="264.3" x2="167.9" y2="264.3"/>
<g>
	<g>
		<polygon fill="#CAF26E" points="314,308.7 314,194.4 299.1,163.3 241,126.6 182.9,163.3 168,194.4 168,308.7 		"/>
	</g>
	
		<line fill="#F7F7F7" stroke="#7AAD38" stroke-width="16" stroke-linecap="round" stroke-miterlimit="10" x1="168" y1="195.5" x2="168" y2="304"/>
	
		<line fill="#F7F7F7" stroke="#7AAD38" stroke-width="16" stroke-linecap="round" stroke-miterlimit="10" x1="314" y1="304" x2="314" y2="195.5"/>
	<polyline fill="none" stroke="#7AAD38" stroke-width="16" stroke-linecap="round" stroke-miterlimit="10" points="323.5,214.4 
		299.1,163.3 241,126.6 182.9,163.3 158.5,214.4 	"/>
</g>
<polyline fill="none" stroke="#7AAD38" stroke-width="10" stroke-linejoin="round" stroke-miterlimit="10" points="276.7,232.6 
	205.3,304 205.3,232.6 276.7,232.6 276.7,304 205.3,232.6 "/>
<g>
	<path fill="#7AAD38" d="M245.7,185v9.3h-9.3V185H245.7 M255.7,175h-29.3v29.3h29.3V175L255.7,175z"/>
</g>
<line fill="#F7F7F7" stroke="#7AAD38" stroke-width="10" stroke-linecap="round" stroke-linejoin="round" stroke-miterlimit="10" x1="314" y1="287.5" x2="365.8" y2="287.5"/>
<line fill="#F7F7F7" stroke="#7AAD38" stroke-width="10" stroke-linecap="round" stroke-linejoin="round" stroke-miterlimit="10" x1="77.9" y1="309.5" x2="352.8" y2="309.5"/>
<line fill="#F7F7F7" stroke="#7AAD38" stroke-width="10" stroke-linecap="round" stroke-linejoin="round" stroke-miterlimit="10" x1="339.9" y1="271.1" x2="339.9" y2="304"/>
<line fill="#F7F7F7" stroke="#7AAD38" stroke-width="10" stroke-linecap="round" stroke-linejoin="round" stroke-miterlimit="10" x1="168" y1="287.5" x2="64.1" y2="287.5"/>
<line fill="#F7F7F7" stroke="#7AAD38" stroke-width="10" stroke-linecap="round" stroke-linejoin="round" stroke-miterlimit="10" x1="90" y1="271.1" x2="90" y2="304"/>
<line fill="#F7F7F7" stroke="#7AAD38" stroke-width="10" stroke-linecap="round" stroke-linejoin="round" stroke-miterlimit="10" x1="141.9" y1="268.8" x2="141.9" y2="304"/>
<line fill="#F7F7F7" stroke="#7AAD38" stroke-width="10" stroke-linecap="round" stroke-linejoin="round" stroke-miterlimit="10" x1="116" y1="271.1" x2="116" y2="304"/>
</svg>
