<?xml version="1.0" encoding="utf-8"?>
<!-- Generator: Adobe Illustrator 18.1.1, SVG Export Plug-In . SVG Version: 6.00 Build 0)  -->
<svg version="1.1" id="Layer_1" xmlns="http://www.w3.org/2000/svg" xmlns:xlink="http://www.w3.org/1999/xlink" x="0px" y="0px"
	 viewBox="0 0 420 420" enable-background="new 0 0 420 420" xml:space="preserve">
<symbol  id="New_Symbol_1_1_" viewBox="-210 -210 420 420">
	<g>
		<g>
			<path fill="#FFFFFF" d="M0-205c-113,0-205,92-205,205s92,205,205,205S205,113,205,0S113-205,0-205z"/>
			<path fill="#CAF26E" d="M0,200c27,0,53.2-5.3,77.8-15.7c23.8-10.1,45.2-24.5,63.6-42.9c18.4-18.4,32.8-39.8,42.9-63.6
				C194.7,53.2,200,27,200,0s-5.3-53.2-15.7-77.8c-10.1-23.8-24.5-45.2-42.9-63.6c-18.4-18.4-39.8-32.8-63.6-42.9
				C53.2-194.7,27-200,0-200s-53.2,5.3-77.8,15.7c-23.8,10.1-45.2,24.5-63.6,42.9c-18.4,18.4-32.8,39.8-42.9,63.6
				C-194.7-53.2-200-27-200,0s5.3,53.2,15.7,77.8c10.1,23.8,24.5,45.2,42.9,63.6c18.4,18.4,39.8,32.8,63.6,42.9
				C-53.2,194.7-27,200,0,200 M0,210c-116,0-210-94-210-210c0-116,94-210,210-210c116,0,210,94,210,210C210,116,116,210,0,210L0,210
				z"/>
		</g>
	</g>
</symbol>
<g id="New_Symbol_1">
	<g>
		
			<use xlink:href="#New_Symbol_1_1_"  width="420" height="420" x="-210" y="-210" transform="matrix(1 0 0 -1 210.0001 210.0015)" overflow="visible"/>
		<defs>
			<filter id="Adobe_OpacityMaskFilter" filterUnits="userSpaceOnUse" x="727.4" y="-411.2" width="124.2" height="124.2">
				<feFlood  style="flood-color:white;flood-opacity:1" result="back"/>
				<feBlend  in="SourceGraphic" in2="back" mode="normal"/>
			</filter>
		</defs>
		<mask maskUnits="userSpaceOnUse" x="727.4" y="-411.2" width="124.2" height="124.2" id="SVGID_1_">
			<g filter="url(#Adobe_OpacityMaskFilter)">
				
					<line fill="none" stroke="#000000" stroke-width="10" stroke-linecap="round" stroke-linejoin="round" stroke-miterlimit="10" x1="798" y1="-349.1" x2="761" y2="-452.5"/>
			</g>
		</mask>
		
			<circle mask="url(#SVGID_1_)" fill="#CAF26E" stroke="#7AAD38" stroke-width="10" stroke-miterlimit="10" cx="789.5" cy="-349.1" r="57.1"/>
		<g>
			<path fill="#CAF26E" d="M210,327.9c-3.5,0-6.7-1.3-9.2-3.8L94.1,217.4c-2.5-2.5-3.8-5.7-3.8-9.2c0-3.5,1.4-6.7,3.8-9.2
				L200.8,92.3c2.5-2.5,5.7-3.8,9.2-3.8c3.5,0,6.7,1.4,9.2,3.8L325.9,199c5.1,5.1,5.1,13.3,0,18.4L219.2,324.1
				C216.7,326.6,213.5,327.9,210,327.9z"/>
			<g>
				<path fill="#7AAD38" d="M210,96.5c1.3,0,2.6,0.5,3.5,1.5l106.7,106.7c1.9,1.9,1.9,5.1,0,7.1L213.5,318.4c-1,1-2.3,1.5-3.5,1.5
					c-1.3,0-2.6-0.5-3.5-1.5L99.8,211.8c-1.9-1.9-1.9-5.1,0-7.1L206.5,98C207.4,97,208.7,96.5,210,96.5 M210,80.5
					c-5.6,0-10.9,2.2-14.8,6.1L88.5,193.4c-4,4-6.1,9.2-6.1,14.8c0,5.6,2.2,10.9,6.1,14.8l106.7,106.7c4,4,9.2,6.1,14.8,6.1
					c5.6,0,10.9-2.2,14.8-6.1l106.7-106.7c4-4,6.1-9.2,6.1-14.8c0-5.6-2.2-10.9-6.1-14.8L224.8,86.7C220.9,82.7,215.6,80.5,210,80.5
					L210,80.5z"/>
			</g>
		</g>
		<path fill="#7AAD38" d="M223.2,157.5c0.2-3.2-2.3-5.8-5.5-5.8h-15.5c-3.2,0-5.7,2.6-5.5,5.8l4.4,72.5c0.2,3.2,3,5.8,6.2,5.8h5.2
			c3.2,0,6-2.6,6.2-5.8L223.2,157.5z"/>
		<path fill="#7AAD38" d="M220.7,263.2c0,3.2-2.6,5.9-5.9,5.9h-9.7c-3.2,0-5.9-2.6-5.9-5.9v-9.7c0-3.2,2.6-5.9,5.9-5.9h9.7
			c3.2,0,5.9,2.6,5.9,5.9V263.2z"/>
	</g>
</g>
</svg>
