<?xml version="1.0" encoding="utf-8"?>
<!-- Generator: Adobe Illustrator 18.1.1, SVG Export Plug-In . SVG Version: 6.00 Build 0)  -->
<svg version="1.1" id="Layer_1" xmlns="http://www.w3.org/2000/svg" xmlns:xlink="http://www.w3.org/1999/xlink" x="0px" y="0px"
	 viewBox="0 0 420 420" enable-background="new 0 0 420 420" xml:space="preserve">
<symbol  id="New_Symbol_2" viewBox="-210 -210 420 420">
	<g>
		<g>
			<path fill="#FFFFFF" d="M0-205c-113,0-205,92-205,205s92,205,205,205S205,113,205,0S113-205,0-205z"/>
			<path fill="#CAF26E" d="M0,200c27,0,53.2-5.3,77.8-15.7c23.8-10.1,45.2-24.5,63.6-42.9c18.4-18.4,32.8-39.8,42.9-63.6
				C194.7,53.2,200,27,200,0s-5.3-53.2-15.7-77.8c-10.1-23.8-24.5-45.2-42.9-63.6c-18.4-18.4-39.8-32.8-63.6-42.9
				C53.2-194.7,27-200,0-200s-53.2,5.3-77.8,15.7c-23.8,10.1-45.2,24.5-63.6,42.9c-18.4,18.4-32.8,39.8-42.9,63.6
				C-194.7-53.2-200-27-200,0s5.3,53.2,15.7,77.8c10.1,23.8,24.5,45.2,42.9,63.6c18.4,18.4,39.8,32.8,63.6,42.9
				C-53.2,194.7-27,200,0,200 M0,210c-116,0-210-94-210-210c0-116,94-210,210-210c116,0,210,94,210,210C210,116,116,210,0,210L0,210
				z"/>
		</g>
	</g>
</symbol>
<use xlink:href="#New_Symbol_2"  width="420" height="420" x="-210" y="-210" transform="matrix(1 0 0 -1 210 210.0015)" overflow="visible"/>
<g>
	<path fill="#7AAD38" d="M72.5,155.6c0.5-0.1,1.3-0.1,2.2-0.1c0.5,0,1,0,1.5,0c0.6,0,1.2,0.1,1.8,0.1c2.5,0.2,5.8,0.8,9.4,2.4
		c1.8,0.8,3.5,2,5.2,3.5c1.7,1.5,3.2,3.3,4.4,5.4c0.3,0.5,0.6,1.1,0.9,1.6c0.3,0.5,0.6,1.1,0.8,1.7c0.5,1.1,1,2.5,1.3,3.8
		c0.6,2.7,0.6,5.5,0.2,8.3c-0.4,2.8-1.2,5.5-2.4,8.2c-0.6,1.3-1.4,2.7-2.3,4c-1,1.3-2.1,2.6-3.9,3.6c-0.9,0.5-2,1-3.3,1.1
		c-0.3,0-0.7,0.1-1,0l-0.5,0c-0.2,0-0.3,0-0.6-0.1c-0.4-0.1-0.9-0.2-1.2-0.3l-0.5-0.2l-0.1,0c-0.6-0.3-0.2-0.1-0.4-0.2l-0.1,0
		l-0.1-0.1c-0.2-0.1-0.4-0.2-0.6-0.4c-0.4-0.3-0.7-0.5-1-0.9c-0.3-0.3-0.6-0.7-0.7-1c-0.2-0.3-0.3-0.6-0.5-1
		c-0.2-0.3-0.2-0.6-0.3-0.9c-0.1-0.3-0.2-0.6-0.2-0.9c-0.1-0.5-0.2-1.1-0.1-1.6c0-2,0.3-3.7,0.8-5.2c0.5-1.6,1.1-3,1.9-4.4
		c1.5-2.7,3.4-5.2,5.7-7.3c2.3-2.1,4.9-3.8,7.7-4.9c5.7-2.3,12-2.2,17-0.8c1.1,0.3,2.2,0.7,3.2,1c1,0.4,2.1,0.9,3.1,1.3
		c2,1,4,2.2,5.7,3.6c3.6,2.8,6.2,6.4,7.7,9.6c1.6,3.2,2.3,6,2.8,7.8c0.5,1.7,0.7,2.7,0.7,2.7l-9,2.5c0,0-0.3-1.3-0.9-3.3
		c-0.5-1.9-1.3-4.4-2.7-6.7c-0.3-0.6-0.7-1.1-1.1-1.7c-0.4-0.5-0.8-1.1-1.3-1.6c-0.9-1-2.1-1.9-3.2-2.8c-2.4-1.6-5.2-2.7-7.4-3.3
		c-4.5-1.2-9-1-13,1.1c-1,0.5-1.9,1.1-2.8,1.8c-0.9,0.7-1.7,1.5-2.5,2.3c-1.5,1.7-2.8,3.7-3.6,5.6c-0.4,1-0.6,2-0.7,2.7
		c0,0.2,0,0.3,0,0.4c0,0.1,0,0.1,0,0.1c0,0,0,0,0,0c0,0,0,0,0,0c-0.1,0-0.2,0.1-0.2,0.1c-0.4,0.1-0.9,0.5-1,0.5
		c-0.1,0-0.1,0.1-0.1,0.1c-0.1,0.1,0,0,0,0c0,0,0,0,0,0l0,0l0,0c0.2-0.7-0.5,1.6,0.5-1.6l0.1,0c0.1,0.1,0.2,0.3,0.3,0.5l0,0.1l0,0
		l-0.1,0c0,0-0.1,0-0.1,0c-0.1,0.1-0.1-0.1-0.1-0.1c0,0,0,0,0-0.1c0-0.1,0-0.1,0-0.2c0,0,0,0,0.1,0c0.1,0,0.2,0,0.3-0.1
		c0.5-0.2,1.2-0.8,1.9-1.5c1.3-1.5,2.4-3.5,3.2-5.5c0.8-2,1.3-4.1,1.5-6.1c0.2-2,0-3.9-0.5-5.7c-0.6-1.9-1.4-3.7-2.3-5.2
		c-1.9-3.1-4.4-5.3-7-6.7c-2.6-1.4-5.2-2.1-7.3-2.6c-0.5-0.1-1-0.2-1.5-0.3c-0.5-0.1-0.9-0.1-1.3-0.2c-0.8-0.1-1.5-0.2-2-0.2
		C70.6,157.6,70.2,155.8,72.5,155.6z"/>
</g>
<g>
	<path fill="#CAF26E" d="M328,199.9c-1.7,0-8,0-12.8,0s-17.4-10.1-27.9-22.4c-3.8-4.5-7.8-8.9-11.5-12.7c-4.2,5-5.9,9.1-7.1,12.2
		c-4,10-16.3,9.6-16.3,9.6c-11.4-10.7,3.1-28,9.4-34.6c-0.1-0.1-0.2-0.1-0.3-0.2c-3.7-1.8-38.7-3.3-77.7-3.3S112.8,183,112.8,225
		c0,22.4,8.6,42.7,22.3,56.7c0,0,19.7,19.8,19.7,23.6c0.2,9.5,0.3,13.5,0.3,13.5c0.1,2.4,2.1,4.4,4.6,4.4h34.8
		c2.4,0,4.9-1.9,5.6-4.3l4.6-17.5c3.3,0,6.6,0,9.7,0l4.6,17.5c0.6,2.4,3.1,4.3,5.6,4.3h34.1c2.4,0,4.5-2,4.6-4.4
		c0,0,0.1-4.4,0.3-13.1c0.1-3.6,1.3-7.3,3.6-11.1c14.1-20.2,37-37.9,43.6-37.9c6.6,0,14.5-16.3,17.6-31.8
		C330.5,213.1,329.7,199.9,328,199.9z"/>
</g>
<g>
	<path fill="#7AAD38" d="M334.5,195c-1.6-2-4-3.1-6.5-3.1h-12.3c-3-1-12.5-8.1-22.3-19.6c-3-3.5-7.4-8.4-12-13.2
		c-5.4,4.8-8.4,9-10.2,12.4c3.1,3.2,6.5,7,10.1,11.2c2.2,2.6,21.9,25.2,34,25.2h6.4c0.1,4-0.2,9.8-1.3,15.5
		c-2.6,13.4-8.3,23.4-10.8,25.4c-12.2,1.3-36.4,23.1-49.1,41.3l-0.2,0.4c-3,4.9-4.7,10.1-4.8,15.1c-0.1,4.3-0.2,7.5-0.2,9.7h-29
		l-5.7-21.8h-22l-5.7,21.8h-29.7c-0.1-2.2-0.1-5.5-0.2-10.1c-0.1-2.8-0.1-7-22-29c-12.7-13.1-20-31.7-20-51.1
		c0-37.8,28.2-68.5,62.9-68.5c36.5,0,63.2,1.3,72.1,2.3c4.2-5.5,8.5-9.4,8.5-9.4s2.3-0.5,5.6-1.2c-2-1.6-3.7-2.9-5.1-3.6
		c-1.7-0.8-4.3-2.1-28.8-3.1c-14.8-0.6-33.4-1-52.4-1c-43.5,0-78.9,37.9-78.9,84.5c0,23.6,9,46.3,24.6,62.3
		c7,7.1,15.3,16.1,17.4,19.6c0.2,8.4,0.3,12,0.3,12.2c0.2,6.7,5.9,12.2,12.6,12.2h34.8c6.1,0,11.8-4.4,13.3-10.3l1.7-6.4l1.7,6.4
		c1.5,5.9,7.3,10.3,13.3,10.3h34.1c6.8,0,12.4-5.5,12.5-12.2c0,0,0.1-4.4,0.3-13.1c0-2.1,0.8-4.4,2.3-6.9
		c13.1-18.7,32.3-33,37.3-34.3c17.4-0.5,24.7-36.7,25-38.3C336,226.3,340.3,202.1,334.5,195z"/>
</g>
<circle fill="#7AAD38" cx="208.9" cy="106.2" r="22.8"/>
<ellipse transform="matrix(0.7546 -0.6562 0.6562 0.7546 -61.9226 226.2912)" fill="#7AAD38" cx="271.6" cy="195.9" rx="4" ry="8.1"/>
<g>
	<path fill="#7AAD38" d="M229.6,161c0,0,18.5-26,48.1-25.6c7.7,0.1,3.7,5.6,2.3,7.2c-14.4,16.2-23.8,29.4-27.7,44.1
		C236.7,190.6,220.2,180.5,229.6,161z"/>
</g>
</svg>
