<?xml version="1.0" encoding="utf-8"?>
<!-- Generator: Adobe Illustrator 18.1.1, SVG Export Plug-In . SVG Version: 6.00 Build 0)  -->
<svg version="1.1" id="Layer_1" xmlns="http://www.w3.org/2000/svg" xmlns:xlink="http://www.w3.org/1999/xlink" x="0px" y="0px"
	 viewBox="0 0 420 420" enable-background="new 0 0 420 420" xml:space="preserve">
<symbol  id="New_Symbol_2" viewBox="-210 -210 420 420">
	<g>
		<g>
			<path fill="#FFFFFF" d="M0-205c-113,0-205,92-205,205s92,205,205,205S205,113,205,0S113-205,0-205z"/>
			<path fill="#CAF26E" d="M0,200c27,0,53.2-5.3,77.8-15.7c23.8-10.1,45.2-24.5,63.6-42.9c18.4-18.4,32.8-39.8,42.9-63.6
				C194.7,53.2,200,27,200,0s-5.3-53.2-15.7-77.8c-10.1-23.8-24.5-45.2-42.9-63.6c-18.4-18.4-39.8-32.8-63.6-42.9
				C53.2-194.7,27-200,0-200s-53.2,5.3-77.8,15.7c-23.8,10.1-45.2,24.5-63.6,42.9c-18.4,18.4-32.8,39.8-42.9,63.6
				C-194.7-53.2-200-27-200,0s5.3,53.2,15.7,77.8c10.1,23.8,24.5,45.2,42.9,63.6c18.4,18.4,39.8,32.8,63.6,42.9
				C-53.2,194.7-27,200,0,200 M0,210c-116,0-210-94-210-210c0-116,94-210,210-210c116,0,210,94,210,210C210,116,116,210,0,210L0,210
				z"/>
		</g>
	</g>
</symbol>
<g id="New_Symbol_1">
	
		<use xlink:href="#New_Symbol_2"  width="420" height="420" x="-210" y="-210" transform="matrix(1 0 0 -1 210 210.0015)" overflow="visible"/>
</g>
<g>
	<g>
		<path fill="#CAF26E" d="M327.7,200.2c0,56.6-20.1,87-20.1,87l-57.3,28.4L210,339.3l-41.1-23.7l-57.3-28.4c0,0-19.4-28.6-19.4-87
			c0-84.3,74.9-124.1,74.9-124.1h85.6C252.8,76.1,327.7,112.3,327.7,200.2z"/>
		<path fill="#7AAD38" d="M210,348.5l-44.9-25.9l-58.9-29.2l-1.2-1.7c-0.8-1.3-20.7-31.3-20.7-91.5c0-36.5,13.7-70.8,39.6-99
			c19.4-21.3,38.8-31.7,39.6-32.1l1.8-0.9h89.5l1.6,0.8c0.8,0.4,20.3,9.9,39.8,30.8c18.1,19.3,39.6,52.4,39.6,100.5
			c0,58.4-20.6,90.1-21.5,91.4l-1.2,1.8l-58.9,29.2L210,348.5z M117.3,281.1l55.6,27.6L210,330l36.8-21.6l55.2-27.3
			c1.6-2.9,5-9.5,8.4-19.4c4.3-12.7,9.4-33.7,9.4-61.5c0-34.1-11.7-64.1-34.9-89.1c-14.5-15.7-29.3-24.4-34-27h-81.5
			c-4.8,2.9-19.5,12.3-34,28.2c-23.2,25.6-35,55.1-35,87.8C100.3,247.9,113.5,274.5,117.3,281.1z"/>
	</g>
	<g>
		<path fill="#CAF26E" d="M273.8,186.8c0,35.9-34.7,77.9-34.7,77.9l-3.6,18l-25.6,15l-26.1-15l-3.6-18c0,0-34.2-40.9-34.2-77.9
			c0-53.5,46.8-59.1,46.8-59.1l17,14.3l17-14.3C227,127.7,273.8,131.1,273.8,186.8z"/>
		<path fill="#7AAD38" d="M210,307l-33.2-19.1l-4-19.6c-6.6-8.3-34.7-45.8-34.7-81.4c0-31.1,14.6-47.7,26.9-56.2
			c13.2-9.1,26.5-10.8,27-10.9l3.5-0.4l14.5,12.2l14.3-12.1l3.2,0.2c0.6,0,14,1.1,27.3,10c12.3,8.2,27,24.8,27,57.1
			c0,34.7-28.6,73-35.2,81.4l-3.9,19.6L210,307z M191.1,277.6l18.9,10.9l18.5-10.8l3.3-16.5l1.3-1.5c0.3-0.4,32.8-40.3,32.8-72.8
			c0-20.3-6.7-35-19.9-43.8c-6.5-4.3-13-6.1-16.6-6.9L210,152.5l-19.2-16.2c-9.5,2.3-36.6,12.2-36.6,50.5c0,33.7,32,72.4,32.3,72.8
			l1.3,1.6L191.1,277.6z"/>
	</g>
	<g>
		<path fill="#CAF26E" d="M273.8,174.8c0,35.9-34.7,77.9-34.7,77.9l-3.6,18l-25.6,15l-26.1-15l-3.6-18c0,0-34.2-40.9-34.2-77.9
			c0-53.5,46.8-59.1,46.8-59.1l17,14.3l17-14.3C227,115.7,273.8,119.1,273.8,174.8z"/>
		<path fill="#7AAD38" d="M210,295l-33.2-19.1l-4-19.6c-6.6-8.3-34.7-45.8-34.7-81.4c0-31.1,14.6-47.7,26.9-56.2
			c13.2-9.1,26.5-10.8,27-10.9l3.5-0.4l14.5,12.2l14.3-12.1l3.2,0.2c0.6,0,14,1.1,27.3,10c12.3,8.2,27,24.8,27,57.1
			c0,34.7-28.6,73-35.2,81.4l-3.9,19.6L210,295z M191.1,265.6l18.9,10.9l18.5-10.8l3.3-16.5l1.3-1.5c0.3-0.4,32.8-40.3,32.8-72.8
			c0-20.3-6.7-35-19.9-43.8c-6.5-4.3-13-6.1-16.6-6.9L210,140.5l-19.2-16.2c-9.5,2.3-36.6,12.2-36.6,50.5c0,33.7,32,72.4,32.3,72.8
			l1.3,1.6L191.1,265.6z"/>
	</g>
	<g>
		<g>
			<path fill="#7AAD38" d="M227.2,194.9l-17.2,8.6l-17.2-8.6c-1.8-0.9-6.4,4.8-10.4,12.7l27.6,13.8l27.6-13.8
				C233.7,199.7,229,194,227.2,194.9z"/>
		</g>
	</g>
	<g>
		<g>
			<path fill="#7AAD38" d="M192.7,257.2l17.3-12.7l17.3,12.7c1.8,1.3,6.4-2,10.4-7.3L210,229.5l-27.6,20.4
				C186.3,255.2,191,258.5,192.7,257.2z"/>
		</g>
	</g>
	<g>
		<rect x="204" y="212.4" fill="#7AAD38" width="12" height="24.5"/>
	</g>
</g>
<g>
	<g>
		<path fill="#7AAD38" d="M250.3,146.2l-24.4,13.6l10,22.2c4-1.8,5.8-4.9,5.5-8.1l-3.3-7.7c-0.3-0.4-0.4-0.8-0.5-1.3l-0.1-0.2l0.1,0
			c0-0.2-0.1-0.3-0.1-0.5c0-1.8,1.5-3.3,3.3-3.3s3.3,1.5,3.3,3.3c0,0.1,0,0.3,0,0.4l8.6-0.1C255.6,163.1,252.4,150.1,250.3,146.2z"
			/>
	</g>
	<g>
		<path fill="#7AAD38" d="M167.5,164.7l8.6,0.1c0-0.1,0-0.3,0-0.4c0-1.8,1.5-3.3,3.3-3.3c1.8,0,3.3,1.5,3.3,3.3c0,0.2,0,0.3-0.1,0.5
			l0.1,0l-0.1,0.2c-0.1,0.5-0.3,0.9-0.5,1.3l-3.3,7.7c-0.3,3.2,1.5,6.2,5.5,8.1l10-22.2L170,146.2
			C167.8,150.1,164.6,163.1,167.5,164.7z"/>
	</g>
</g>
</svg>
