<?xml version="1.0" encoding="utf-8"?>
<!-- Generator: Adobe Illustrator 18.1.1, SVG Export Plug-In . SVG Version: 6.00 Build 0)  -->
<svg version="1.1" id="Layer_1" xmlns="http://www.w3.org/2000/svg" xmlns:xlink="http://www.w3.org/1999/xlink" x="0px" y="0px"
	 viewBox="0 0 420 420" enable-background="new 0 0 420 420" xml:space="preserve">
<symbol  id="New_Symbol_1" viewBox="-210 -210 420 420">
	<g>
		<g>
			<path fill="#FFFFFF" d="M0-205c-113,0-205,92-205,205s92,205,205,205S205,113,205,0S113-205,0-205z"/>
			<path fill="#CAF26E" d="M0,200c27,0,53.2-5.3,77.8-15.7c23.8-10.1,45.2-24.5,63.6-42.9c18.4-18.4,32.8-39.8,42.9-63.6
				C194.7,53.2,200,27,200,0s-5.3-53.2-15.7-77.8c-10.1-23.8-24.5-45.2-42.9-63.6c-18.4-18.4-39.8-32.8-63.6-42.9
				C53.2-194.7,27-200,0-200s-53.2,5.3-77.8,15.7c-23.8,10.1-45.2,24.5-63.6,42.9c-18.4,18.4-32.8,39.8-42.9,63.6
				C-194.7-53.2-200-27-200,0s5.3,53.2,15.7,77.8c10.1,23.8,24.5,45.2,42.9,63.6c18.4,18.4,39.8,32.8,63.6,42.9
				C-53.2,194.7-27,200,0,200 M0,210c-116,0-210-94-210-210c0-116,94-210,210-210c116,0,210,94,210,210C210,116,116,210,0,210L0,210
				z"/>
		</g>
	</g>
</symbol>
<use xlink:href="#New_Symbol_1"  width="420" height="420" x="-210" y="-210" transform="matrix(1 0 0 -1 210 210.0015)" overflow="visible"/>
<g>
	<path fill="#CAF26E" d="M353.2,174c-9.3-24-11.3-9.3-16.7-4s-21.3,18-43.9,15.6c-28.8-3.1-52-36.6-52-36.6s-2.2,2.1-6.3,5.4l4.6,6
		c1.7,2.2,1.2,5.3-1,7c-0.9,0.7-2,1-3,1c-1.5,0-3-0.7-4-2l-4.7-6.2c-4.1,2.8-9.1,5.8-15,8.9l4.8,8.2c1.4,2.4,0.6,5.4-1.7,6.9
		c-0.8,0.5-1.7,0.7-2.5,0.7c-1.7,0-3.4-0.9-4.3-2.4l-5.2-8.8c-5.2,2.4-10.8,4.7-17,6.8l2.9,7.5c1,2.6-0.3,5.5-2.9,6.5
		c-0.6,0.2-1.2,0.3-1.8,0.3c-2,0-3.9-1.2-4.7-3.2l-3.1-8.1c-5.5,1.6-11.3,3-17.4,4.1l2.5,11.2c0.6,2.7-1.1,5.4-3.8,6
		c-0.4,0.1-0.7,0.1-1.1,0.1c-2.3,0-4.3-1.6-4.9-3.9l-2.7-11.7c-49.6,7.9-70.1,2.6-70.1,2.6s-12.3,1-25.8,20.2v12v19
		c0,0,46,32,122,32s104.4,0,127.3,0c28.5,0,58.2-6.5,58.2-6.5v-31C359.8,237.5,362.5,198,353.2,174z"/>
</g>
<path fill="#CAF26E" stroke="#7AAD38" stroke-width="16" stroke-linecap="round" stroke-linejoin="round" stroke-miterlimit="10" d="
	M240.5,149c9-9.6,15.5-15.8,15.5-15.8s23.8,13.9,18,42.8"/>
<g>
	<path fill="#7AAD38" d="M301.6,283H174.3c-77.6,0-124.6-32.1-126.6-33.4c-2.1-1.5-3.4-3.9-3.4-6.6v-31c0-4.4,3.6-8,8-8s8,3.6,8,8
		v26.6c11.8,6.9,53.1,28.4,114,28.4h127.3c19.6,0,40.2-3.2,50.2-5.1v-29.4c0-4.4,3.6-8,8-8s8,3.6,8,8v36c0,3.8-2.6,7-6.3,7.8
		C360.3,276.6,330.6,283,301.6,283z"/>
</g>
<g>
	
		<line fill="none" stroke="#7AAD38" stroke-width="10" stroke-linecap="round" stroke-linejoin="round" stroke-miterlimit="10" x1="220.2" y1="158" x2="233.7" y2="175.7"/>
	
		<line fill="none" stroke="#7AAD38" stroke-width="10" stroke-linecap="round" stroke-linejoin="round" stroke-miterlimit="10" x1="198.3" y1="169.3" x2="208.7" y2="188.3"/>
	
		<line fill="none" stroke="#7AAD38" stroke-width="10" stroke-linecap="round" stroke-linejoin="round" stroke-miterlimit="10" x1="172.2" y1="178.7" x2="179.7" y2="199"/>
	
		<line fill="none" stroke="#7AAD38" stroke-width="10" stroke-linecap="round" stroke-linejoin="round" stroke-miterlimit="10" x1="146.1" y1="185.1" x2="150.7" y2="206.7"/>
</g>
<path fill="none" stroke="#7AAD38" stroke-width="10" stroke-linecap="round" stroke-linejoin="round" stroke-miterlimit="10" d="
	M100.8,199.5l1,33c19.2,5.1,40,12,72.5,12c76,0,136.3-3,136.3-3c22.5,0,49.2-6.5,49.2-6.5"/>
<circle fill="#7AAD38" cx="150.7" cy="206.7" r="6.1"/>
<circle fill="#7AAD38" cx="179.7" cy="199" r="6.1"/>
<circle fill="#7AAD38" cx="208.7" cy="188.3" r="6.1"/>
<circle fill="#7AAD38" cx="233.7" cy="175.7" r="6.1"/>
<g>
	<path fill="#7AAD38" d="M208,164l6.2,10.4c6.1-3.2,11.3-6.4,15.6-9.3l-7.3-9.6C218.5,158.1,213.6,161,208,164z"/>
	<path fill="#7AAD38" d="M156.8,181.7l2.7,11.7c6.4-1.2,12.5-2.7,18.3-4.4l-4.4-11.2C168.2,179.3,162.6,180.6,156.8,181.7z"/>
	<path fill="#7AAD38" d="M182.9,174.8l4.4,11.2c6.5-2.2,12.5-4.7,17.9-7.2l-6.2-10.4C194.1,170.6,188.8,172.8,182.9,174.8z"/>
	<path fill="#7AAD38" d="M358.8,171.8c-4-10.2-7.6-16.6-13.5-17.1c-5.6-0.5-8.6,4.4-10.6,7.7c-0.8,1.3-1.7,2.7-2.4,3.4
		c-2.7,2.7-17.4,16.2-39.1,13.9c-25.7-2.8-47.5-33.7-47.7-34c-1-1.5-2.6-2.4-4.4-2.6c-1.8-0.2-3.5,0.5-4.8,1.7c-0.1,0.1-2,2-5.8,4.9
		l7.3,9.6c0.7-0.5,1.3-1,1.8-1.5c8.2,10.1,28.1,31.2,52.2,33.8c2.2,0.2,4.4,0.3,6.4,0.3c22.8,0,38-13.3,42.4-17.7
		c1.5-1.5,2.7-3.4,3.8-5.1c0.8,1.5,1.8,3.7,3.1,7c8.7,22.5,6.3,60.5,6.3,60.9c-0.2,3.3,2.3,6.2,5.6,6.4c0.1,0,0.3,0,0.4,0
		c3.1,0,5.8-2.4,6-5.6C365.9,236.2,368.5,196.7,358.8,171.8z"/>
	<path fill="#7AAD38" d="M79.7,186c-0.7-0.2-1.3-0.2-2-0.2c-1.5,0.1-15.6,1.8-30.3,22.7c-0.7,1-1.1,2.2-1.1,3.5v12c0,3.3,2.7,6,6,6
		s6-2.7,6-6v-10.1c9.2-12.4,17.4-15.4,19.7-16c5.6,1.1,27.6,4.2,71.5-2.8l-2.7-11.7C99.9,190.8,79.9,186,79.7,186z"/>
</g>
</svg>
