<?xml version="1.0" encoding="utf-8"?>
<!-- Generator: Adobe Illustrator 18.1.1, SVG Export Plug-In . SVG Version: 6.00 Build 0)  -->
<svg version="1.1" id="Layer_1" xmlns="http://www.w3.org/2000/svg" xmlns:xlink="http://www.w3.org/1999/xlink" x="0px" y="0px"
	 viewBox="0 0 420 420" enable-background="new 0 0 420 420" xml:space="preserve">
<symbol  id="New_Symbol_1" viewBox="-210 -210 420 420">
	<g>
		<g>
			<path fill="#FFFFFF" d="M0-205c-113,0-205,92-205,205s92,205,205,205S205,113,205,0S113-205,0-205z"/>
			<path fill="#CAF26E" d="M0,200c27,0,53.2-5.3,77.8-15.7c23.8-10.1,45.2-24.5,63.6-42.9c18.4-18.4,32.8-39.8,42.9-63.6
				C194.7,53.2,200,27,200,0s-5.3-53.2-15.7-77.8c-10.1-23.8-24.5-45.2-42.9-63.6c-18.4-18.4-39.8-32.8-63.6-42.9
				C53.2-194.7,27-200,0-200s-53.2,5.3-77.8,15.7c-23.8,10.1-45.2,24.5-63.6,42.9c-18.4,18.4-32.8,39.8-42.9,63.6
				C-194.7-53.2-200-27-200,0s5.3,53.2,15.7,77.8c10.1,23.8,24.5,45.2,42.9,63.6c18.4,18.4,39.8,32.8,63.6,42.9
				C-53.2,194.7-27,200,0,200 M0,210c-116,0-210-94-210-210c0-116,94-210,210-210c116,0,210,94,210,210C210,116,116,210,0,210L0,210
				z"/>
		</g>
	</g>
</symbol>
<use xlink:href="#New_Symbol_1"  width="420" height="420" x="-210" y="-210" transform="matrix(1 0 0 -1 210 210.0015)" overflow="visible"/>
<path fill="#CAF26E" stroke="#7AAD38" stroke-width="16" stroke-miterlimit="10" d="M195.8,61.4v25l-89,69l23,30l32-10l35,1l18-15
	c0,0-10,39-65,63c19,39,19,39,19,39s65,0,80,0c15,0,58-30,58-30s2-80-37-123c-31.9-35.1-48-28-48-28S221.8,68.4,195.8,61.4z"/>
<line fill="#F7F7F7" stroke="#7AAD38" stroke-width="16" stroke-miterlimit="10" x1="162.2" y1="288.4" x2="282.5" y2="288.4"/>
<rect x="143.8" y="312.4" fill="#CAF26E" stroke="#7AAD38" stroke-width="16" stroke-miterlimit="10" width="157" height="24"/>
<g>
	<path fill="#7AAD38" d="M285.1,225.4c0,0,0-0.5-0.1-1.3c-0.1-0.8-0.2-2.1-0.3-3.7c-0.2-3.2-0.7-7.7-1.3-13.1
		c-1.3-10.8-3.7-25.1-7.9-39c-2.1-6.9-4.5-13.8-7.3-19.9c-0.6-1.6-1.4-3-2.1-4.5c-0.7-1.5-1.4-2.9-2.2-4.2c-0.8-1.3-1.5-2.7-2.2-3.9
		c-0.8-1.2-1.5-2.4-2.2-3.6c-2.9-4.5-5.7-8-7.8-10.4c-0.5-0.6-0.9-1.1-1.3-1.6c-0.4-0.4-0.8-0.8-1.1-1.1c-0.6-0.6-0.9-0.9-0.9-0.9
		c-2.2-2.4-4.7-4.1-6.9-5.6c-1.1-0.7-2.3-1.2-3.3-1.7c-1.1-0.5-2-0.9-3-1.2c-3.9-0.9-6.4-0.5-7.6,1.4c0,0,0.5,0.3,1.3,0.9
		c0.4,0.3,1,0.7,1.6,1.1c0.3,0.2,0.6,0.4,1,0.7c0.4,0.2,0.7,0.5,1.1,0.8c3,2.4,7.2,6.1,11.4,11.4c4.2,5.3,8.4,12.3,11.8,20.4
		c3.5,8.1,6.2,17.3,8.3,26.7c4,18.8,5.1,38.5,4.9,53.1c-0.1,7.3-0.3,13.4-0.6,17.7c-0.1,2.1-0.3,3.8-0.4,4.9
		c-0.1,1.1-0.2,1.6-0.2,1.6c2.2,0.4,6.5-2.1,10.2-6.6C281.9,239.4,285.1,232.8,285.1,225.4z"/>
</g>
<g>
	<path fill="none" stroke="#7AAD38" stroke-width="10" stroke-linejoin="round" stroke-miterlimit="10" d="M188.9,124.7
		c2.9-2.2,3.5-6.4,1.3-9.3l-10.6,8.1C181.7,126.4,185.9,127,188.9,124.7z"/>
</g>
</svg>
