<?xml version="1.0" encoding="utf-8"?>
<!-- Generator: Adobe Illustrator 18.1.1, SVG Export Plug-In . SVG Version: 6.00 Build 0)  -->
<svg version="1.1" id="Layer_1" xmlns="http://www.w3.org/2000/svg" xmlns:xlink="http://www.w3.org/1999/xlink" x="0px" y="0px"
	 viewBox="0 0 420 420" enable-background="new 0 0 420 420" xml:space="preserve">
<symbol  id="New_Symbol_1" viewBox="-210 -210 420 420">
	<g>
		<g>
			<path fill="#FFFFFF" d="M0-205c-113,0-205,92-205,205s92,205,205,205S205,113,205,0S113-205,0-205z"/>
			<path fill="#CAF26E" d="M0,200c27,0,53.2-5.3,77.8-15.7c23.8-10.1,45.2-24.5,63.6-42.9c18.4-18.4,32.8-39.8,42.9-63.6
				C194.7,53.2,200,27,200,0s-5.3-53.2-15.7-77.8c-10.1-23.8-24.5-45.2-42.9-63.6c-18.4-18.4-39.8-32.8-63.6-42.9
				C53.2-194.7,27-200,0-200s-53.2,5.3-77.8,15.7c-23.8,10.1-45.2,24.5-63.6,42.9c-18.4,18.4-32.8,39.8-42.9,63.6
				C-194.7-53.2-200-27-200,0s5.3,53.2,15.7,77.8c10.1,23.8,24.5,45.2,42.9,63.6c18.4,18.4,39.8,32.8,63.6,42.9
				C-53.2,194.7-27,200,0,200 M0,210c-116,0-210-94-210-210c0-116,94-210,210-210c116,0,210,94,210,210C210,116,116,210,0,210L0,210
				z"/>
		</g>
	</g>
</symbol>
<use xlink:href="#New_Symbol_1"  width="420" height="420" x="-210" y="-210" transform="matrix(1 0 0 -1 210 210.0015)" overflow="visible"/>
<g>
	<g>
		<path fill="#CAF26E" d="M210.5,328.2c-1.1,0-2.3-0.4-3.2-1.2c-0.3-0.2-21.9-18.1-46.6-18.1c-13.1,0-27.4-5.9-39.2-16.2
			c-12.2-10.5-18.9-24.3-18.9-38.7c0-14.5,5.1-29.9,9.5-43.5c2.9-8.8,5.9-18,5.9-22.7c0-8.3-9.4-25-13.7-31.4l-3.8-5.7
			c-1.4-2-1.1-4.8,0.7-6.5l38-35.5c1-0.9,2.2-1.3,3.4-1.3c1.1,0,2.3,0.4,3.2,1.2l5.4,4.5c6.5,5.4,14.1,8.2,22.5,8.2
			c15.3,0,28.8-8.9,29-8.9l4.5-3c0.8-0.6,1.8-0.9,2.8-0.9s2,0.3,2.8,0.9l4.5,3c0.1,0.1,13.7,8.9,29,8.9c8.4,0,16-2.7,22.5-8.2
			l5.4-4.5c0.9-0.8,2.1-1.2,3.2-1.2c1.2,0,2.5,0.5,3.4,1.4l37.8,35.5c1.8,1.7,2.1,4.4,0.7,6.4l-3.8,5.7
			c-6.6,9.8-13.7,24.5-13.7,31.4c0,4.7,3,13.9,5.9,22.7c4.5,13.6,9.5,29,9.5,43.5c0,14.4-6.7,28.2-19,38.9
			c-11.8,10.2-26.1,16.1-39.3,16.1c-23.9,0-45.2,17.9-45.4,18.1C212.8,327.8,211.7,328.2,210.5,328.2z"/>
		<g>
			<path fill="#7AAD38" d="M277.5,112.5l37.8,35.5l-3.8,5.7c-5.6,8.3-14.6,25-14.6,34.2c0,5.5,3,14.6,6.2,24.3
				c4.4,13.2,9.3,28.2,9.3,42c0,13-6.1,25.4-17.3,35.1c-10.1,8.7-23.2,14.8-36,14.8c-26,0-48.6,19.3-48.6,19.3S187.7,304,160.7,304
				c-12.9,0-26-6.4-36-15c-11-9.6-17.1-22-17.1-35c0-13.7,4.9-28.7,9.3-42c3.2-9.6,6.2-18.7,6.2-24.3c0-10.3-10.8-28.6-14.6-34.2
				l-3.8-5.7l38-35.5l5.4,4.5c7.4,6.2,16.1,9.3,25.7,9.3c0,0,0,0,0,0c17,0,31.6-9.7,31.7-9.8l4.5-3l4.5,3c0.1,0.1,14.8,9.8,31.8,9.8
				c0,0,0,0,0,0c9.6,0,18.3-3.1,25.7-9.3L277.5,112.5 M277.5,102.5c-2.3,0-4.5,0.8-6.4,2.3l-5.4,4.5c-5.7,4.7-12,7-19.3,7
				c-13.5,0-25.8-7.8-26.3-8.1l-4.5-3c-1.7-1.1-3.6-1.7-5.6-1.7c-1.9,0-3.9,0.6-5.6,1.7l-4.5,3c-0.5,0.3-12.7,8.1-26.2,8.1
				c-7.3,0-13.6-2.3-19.3-7l-5.4-4.5c-1.9-1.5-4.1-2.3-6.4-2.3c-2.5,0-4.9,0.9-6.8,2.7l-38,35.5c-3.6,3.4-4.2,8.8-1.5,12.9l3.8,5.7
				c5.4,7.9,12.9,22.6,12.9,28.6c0,3.9-3,13.1-5.7,21.1c-4.6,13.9-9.8,29.8-9.8,45.1c0,15.9,7.3,31,20.6,42.5
				c12.8,11.1,28.3,17.4,42.5,17.4c22.7,0,43.2,16.7,43.4,16.9c1.9,1.6,4.2,2.4,6.4,2.4c2.3,0,4.6-0.8,6.5-2.4
				c0.2-0.2,20.2-16.9,42.1-16.9c14.4,0,29.9-6.3,42.5-17.3c13.4-11.6,20.7-26.7,20.7-42.6c0-15.3-5.2-31.1-9.8-45.1
				c-2.7-8.1-5.7-17.2-5.7-21.1c0-5,6.1-18.6,12.9-28.6l3.8-5.7c2.8-4.1,2.1-9.5-1.4-12.9l-37.8-35.5
				C282.4,103.4,280,102.5,277.5,102.5L277.5,102.5z"/>
		</g>
	</g>
	<g>
		<g>
			<path fill="#7AAD38" d="M210,142.5c6.8,3.6,19.2,8.7,33.3,8.7c10,0,19.1-2.5,27.4-7.4l13.5,12.7c-4.9,8.5-11.8,22.5-11.8,33.8
				c0,7.8,3,17,6.5,27.7c3.6,10.9,7.7,23.3,7.7,33.1c0,9.2-6.2,15.9-9.9,19.1c-6.3,5.5-14.8,9-22.6,9.4c0,0,0,0-0.1,0
				c-14.5,0.9-32.9,5.7-44.2,12.7c-11.3-6.8-29.5-11.6-43.8-12.7c0,0,0,0-0.1,0c-8.2-0.6-16.5-4-22.9-9.5c-3.6-3.1-9.7-9.8-9.7-19
				c0-9.8,4.1-22.2,7.7-33.1c3.5-10.7,6.5-19.9,6.5-27.7c0-11.3-6.9-25.3-11.8-33.8l13.6-12.7c8.3,4.9,17.4,7.4,27.4,7.4
				C190.8,151.2,203.2,146.1,210,142.5 M271.7,131c-9.2,7.7-19.2,10.3-28.3,10.3c-18.3,0-33.4-10.3-33.4-10.3s-15,10.3-33.3,10.3
				c-9.1,0-19-2.6-28.3-10.3l-25.5,23.8c0,0,14.6,21.6,14.6,35.5c0,13.9-14.2,40-14.2,60.8c0,20.9,21.2,37,41.9,38.5
				c17.7,1.3,39.3,8.7,44.7,15.4c5.1-6.7,26.6-14.3,44.7-15.4c20.4-1.1,41.9-17.6,41.9-38.5c0-20.7-14.2-46.9-14.2-60.8
				c0-13.9,14.6-35.5,14.6-35.5L271.7,131L271.7,131z"/>
		</g>
	</g>
	<g>
		<path fill="#7AAD38" d="M191.3,216.7c0-1-0.4-2.2-1.2-3.4c-1.3-2-3.4-3-6.1-3c-4.1,0-7,2.3-8.7,6.9c-0.9,2.5-1.6,6.2-1.9,11.2
			c1.6-1.8,3.4-3.2,5.4-4c2-0.8,4.4-1.3,7-1.3c5.7,0,10.3,1.9,13.9,5.8s5.4,8.7,5.4,14.7c0,5.9-1.8,11.2-5.3,15.7
			c-3.5,4.5-9.1,6.8-16.5,6.8c-8,0-13.9-3.4-17.8-10.1c-3-5.2-4.4-12-4.4-20.3c0-4.9,0.2-8.8,0.6-11.9c0.7-5.4,2.2-9.9,4.3-13.5
			c1.8-3.1,4.2-5.6,7.1-7.4s6.5-2.8,10.6-2.8c5.9,0,10.6,1.5,14.2,4.5c3.5,3,5.5,7.1,5.9,12.1H191.3z M176.5,252.6
			c1.8,2.2,4.2,3.3,7,3.3c2.8,0,5-1,6.6-3.1c1.6-2.1,2.4-4.8,2.4-8.2c0-3.7-0.9-6.6-2.7-8.5c-1.8-2-4-3-6.7-3c-2.1,0-4,0.6-5.7,1.9
			c-2.5,1.9-3.7,5-3.7,9.2C173.7,247.6,174.6,250.4,176.5,252.6z"/>
		<path fill="#7AAD38" d="M241.9,216.7c0-1-0.4-2.2-1.2-3.4c-1.3-2-3.4-3-6.1-3c-4.1,0-7,2.3-8.7,6.9c-0.9,2.5-1.6,6.2-1.9,11.2
			c1.6-1.8,3.4-3.2,5.4-4s4.4-1.3,7-1.3c5.7,0,10.3,1.9,13.9,5.8c3.6,3.8,5.4,8.7,5.4,14.7c0,5.9-1.8,11.2-5.3,15.7
			s-9.1,6.8-16.5,6.8c-8,0-13.9-3.4-17.8-10.1c-3-5.2-4.4-12-4.4-20.3c0-4.9,0.2-8.8,0.6-11.9c0.7-5.4,2.2-9.9,4.3-13.5
			c1.8-3.1,4.2-5.6,7.1-7.4s6.5-2.8,10.6-2.8c5.9,0,10.6,1.5,14.2,4.5c3.5,3,5.5,7.1,5.9,12.1H241.9z M227,252.6
			c1.8,2.2,4.2,3.3,7,3.3c2.8,0,5-1,6.6-3.1c1.6-2.1,2.4-4.8,2.4-8.2c0-3.7-0.9-6.6-2.7-8.5c-1.8-2-4-3-6.7-3c-2.1,0-4,0.6-5.7,1.9
			c-2.5,1.9-3.7,5-3.7,9.2C224.3,247.6,225.2,250.4,227,252.6z"/>
	</g>
</g>
<g>
	<path fill="#7AAD38" d="M297.1,154.8L271.7,131c-27.7,23.1-61.7,0-61.7,0s-33.8,23.1-61.6,0l-25.5,23.8c0,0,13.6,20.1,14.6,34h145
		C283.5,174.9,297.1,154.8,297.1,154.8z"/>
</g>
</svg>
