<?xml version="1.0" encoding="utf-8"?>
<!-- Generator: Adobe Illustrator 18.1.1, SVG Export Plug-In . SVG Version: 6.00 Build 0)  -->
<svg version="1.1" id="Layer_1" xmlns="http://www.w3.org/2000/svg" xmlns:xlink="http://www.w3.org/1999/xlink" x="0px" y="0px"
	 viewBox="0 0 420 420" enable-background="new 0 0 420 420" xml:space="preserve">
<symbol  id="New_Symbol_1" viewBox="-210 -210 420 420">
	<g>
		<g>
			<path fill="#FFFFFF" d="M0-205c-113,0-205,92-205,205s92,205,205,205S205,113,205,0S113-205,0-205z"/>
			<path fill="#CAF26E" d="M0,200c27,0,53.2-5.3,77.8-15.7c23.8-10.1,45.2-24.5,63.6-42.9c18.4-18.4,32.8-39.8,42.9-63.6
				C194.7,53.2,200,27,200,0s-5.3-53.2-15.7-77.8c-10.1-23.8-24.5-45.2-42.9-63.6c-18.4-18.4-39.8-32.8-63.6-42.9
				C53.2-194.7,27-200,0-200s-53.2,5.3-77.8,15.7c-23.8,10.1-45.2,24.5-63.6,42.9c-18.4,18.4-32.8,39.8-42.9,63.6
				C-194.7-53.2-200-27-200,0s5.3,53.2,15.7,77.8c10.1,23.8,24.5,45.2,42.9,63.6c18.4,18.4,39.8,32.8,63.6,42.9
				C-53.2,194.7-27,200,0,200 M0,210c-116,0-210-94-210-210c0-116,94-210,210-210c116,0,210,94,210,210C210,116,116,210,0,210L0,210
				z"/>
		</g>
	</g>
</symbol>
<use xlink:href="#New_Symbol_1"  width="420" height="420" x="-210" y="-210" transform="matrix(1 0 0 -1 210 210.0015)" overflow="visible"/>
<g>
	<path fill="#CAF26E" d="M255.4,154.4c-22-22-41.2-44.3-42.7-49.5c-1.5-5.2-3.8-5.3-5.3-0.2s-20.6,27.4-42.7,49.5
		s-22.1,58.2-0.1,80.2c18.9,18.9,35.7,35.7,41,41l0.3-138.6c0-4.2,5.6-3.4,5.6,1c0,46.7,2.5,98.2,4.8,135.4c7.2-7.2,21.7-21.7,38-38
		C277,212.8,277.4,176.4,255.4,154.4z"/>
</g>
<g>
	<path fill="#7AAD38" d="M260.2,240.9c12.4-12.4,19.3-28.8,19.5-46.2c0.2-17.5-6.4-33.8-18.6-46c-22.5-22.5-38.8-41.9-40.7-46.2
		c-2.4-8.3-7.5-9.5-10.3-9.5c-2.3,0-7.8,0.9-10.2,9.4c-2,4.2-17.4,22.9-40.7,46.2c-25.3,25.3-25.3,66.3-0.1,91.5l42.7,42.7
		c1.1,1.1,2.4,2,3.8,2.6l0.5-21l-35.6-35.6c-19-19-18.9-49.9,0.1-68.9c1.4-1.4,28-28.1,39.6-44.1c11.5,16,38.3,42.8,39.7,44.2
		c9.1,9.1,14,21.4,13.9,34.5c-0.1,13.2-5.4,25.7-14.8,35.1l-33,33c0.4,7.6,0.9,14.7,1.3,21.3c0.1-0.1,0.2-0.2,0.3-0.3L260.2,240.9z"
		/>
</g>
<path fill="#7AAD38" d="M208.8,138.9c0,6,0,196.3,0,196.3c0,2.8-1.6,3.4-3.6,1.5l-7.9-7.7c-2-1.9-3.4-5.8-3.3-8.5l11.2-182.1
	C205.3,133.9,208.8,132.9,208.8,138.9z"/>
</svg>
