<?xml version="1.0" encoding="utf-8"?>
<!-- Generator: Adobe Illustrator 18.1.1, SVG Export Plug-In . SVG Version: 6.00 Build 0)  -->
<svg version="1.1" id="Layer_1" xmlns="http://www.w3.org/2000/svg" xmlns:xlink="http://www.w3.org/1999/xlink" x="0px" y="0px"
	 viewBox="0 0 420 420" enable-background="new 0 0 420 420" xml:space="preserve">
<symbol  id="New_Symbol_68" viewBox="-210 -210 420 420">
	<g id="New_Symbol_16_7_">
		<g>
			<path fill="#C5E29F" d="M0,200c27,0,53.2-5.3,77.8-15.7c23.8-10.1,45.2-24.5,63.6-42.9c18.4-18.4,32.8-39.8,42.9-63.6
				C194.7,53.2,200,27,200,0s-5.3-53.2-15.7-77.8c-10.1-23.8-24.5-45.2-42.9-63.6c-18.4-18.4-39.8-32.8-63.6-42.9
				C53.2-194.7,27-200,0-200s-53.2,5.3-77.8,15.7c-23.8,10.1-45.2,24.5-63.6,42.9c-18.4,18.4-32.8,39.8-42.9,63.6
				C-194.7-53.2-200-27-200,0s5.3,53.2,15.7,77.8c10.1,23.8,24.5,45.2,42.9,63.6c18.4,18.4,39.8,32.8,63.6,42.9
				C-53.2,194.7-27,200,0,200 M0,210c-116,0-210-94-210-210s94-210,210-210c116,0,210,94,210,210S116,210,0,210L0,210z"/>
			<path opacity="0.75" fill="#CAF26E" d="M210,0c0-116-94-210-210-210S-210-116-210,0s94,210,210,210S210,116,210,0z"/>
		</g>
		<g opacity="0.7">
			<polygon points="-23.9,-96.9 -65.4,-55.3 71.6,81.7 113.2,40.1 			"/>
			<polygon points="17.7,-55.3 -23.9,-96.9 -111,-9.7 -69.5,31.8 			"/>
		</g>
	</g>
</symbol>
<use xlink:href="#New_Symbol_68"  width="420" height="420" x="-210" y="-210" transform="matrix(1 0 0 -1 209.9997 210)" overflow="visible"/>
</svg>
