<?xml version="1.0" encoding="utf-8"?>
<!-- Generator: Adobe Illustrator 18.1.1, SVG Export Plug-In . SVG Version: 6.00 Build 0)  -->
<svg version="1.1" id="Layer_1" xmlns="http://www.w3.org/2000/svg" xmlns:xlink="http://www.w3.org/1999/xlink" x="0px" y="0px"
	 viewBox="0 0 420 420" enable-background="new 0 0 420 420" xml:space="preserve">
<symbol  id="New_Symbol_1" viewBox="-210 -210 420 420">
	<g>
		<g>
			<path fill="#FFFFFF" d="M0-205c-113,0-205,92-205,205s92,205,205,205S205,113,205,0S113-205,0-205z"/>
			<path fill="#CAF26E" d="M0,200c27,0,53.2-5.3,77.8-15.7c23.8-10.1,45.2-24.5,63.6-42.9c18.4-18.4,32.8-39.8,42.9-63.6
				C194.7,53.2,200,27,200,0s-5.3-53.2-15.7-77.8c-10.1-23.8-24.5-45.2-42.9-63.6c-18.4-18.4-39.8-32.8-63.6-42.9
				C53.2-194.7,27-200,0-200s-53.2,5.3-77.8,15.7c-23.8,10.1-45.2,24.5-63.6,42.9c-18.4,18.4-32.8,39.8-42.9,63.6
				C-194.7-53.2-200-27-200,0s5.3,53.2,15.7,77.8c10.1,23.8,24.5,45.2,42.9,63.6c18.4,18.4,39.8,32.8,63.6,42.9
				C-53.2,194.7-27,200,0,200 M0,210c-116,0-210-94-210-210c0-116,94-210,210-210c116,0,210,94,210,210C210,116,116,210,0,210L0,210
				z"/>
		</g>
	</g>
</symbol>
<use xlink:href="#New_Symbol_1"  width="420" height="420" x="-210" y="-210" transform="matrix(1 0 0 -1 210 210.0015)" overflow="visible"/>
<g>
	<g>
		<polygon fill="#CAF26E" points="325.5,180.7 301.4,156.5 244.5,155.6 193.1,207 246.1,260.1 239.1,267.1 186.1,214 132.5,267.6 
			214.4,349.6 326.4,237.6 		"/>
	</g>
</g>
<g>
	<g>
		<path fill="#7AAD38" d="M179.2,83c-11,0-20,14.3-20,31.8v92.2l20-20V83z"/>
	</g>
</g>
<g>
	<circle fill="#7AAD38" cx="283.9" cy="198.1" r="13.1"/>
</g>
<g>
	<path fill="#7AAD38" d="M236.7,222.4l-98.1-98.1c-12.9-12.9-29.9-17.2-37.7-9.4l145.2,145.2C253.9,252.3,249.7,235.4,236.7,222.4z"
		/>
</g>
<g>
	<circle fill="#FFFFFF" cx="117.7" cy="133.7" r="23.9"/>
	<path fill="#7AAD38" d="M117.7,165.6c-8.5,0-16.5-3.3-22.6-9.3c-6-6-9.3-14-9.3-22.6c0-8.5,3.3-16.5,9.3-22.6s14-9.3,22.6-9.3
		c8.5,0,16.5,3.3,22.6,9.3c12.4,12.4,12.4,32.7,0,45.1C134.3,162.3,126.2,165.6,117.7,165.6z M117.7,117.8c-4.2,0-8.2,1.7-11.2,4.7
		s-4.7,7-4.7,11.2c0,4.2,1.7,8.2,4.7,11.2s7,4.7,11.2,4.7c4.2,0,8.2-1.7,11.2-4.7c6.2-6.2,6.2-16.3,0-22.5
		C126,119.4,122,117.8,117.7,117.8z"/>
</g>
<g>
	<polygon fill="#7AAD38" points="329.1,181.7 300.4,152.9 236.9,151.9 187.4,201.4 198.7,212.7 243.4,168 293.7,168.8 313.2,188.4 
		314,238.7 210.1,342.6 139.4,272 191.7,219.7 180.4,208.4 116.8,272 210.1,365.3 330.2,245.2 	"/>
</g>
<g>
	<circle fill="#FFFFFF" cx="180.6" cy="108.1" r="23.9"/>
</g>
<path fill="#7AAD38" d="M180.6,140c-17.6,0-31.9-14.3-31.9-31.9s14.3-31.9,31.9-31.9s31.9,14.3,31.9,31.9S198.2,140,180.6,140z
	 M180.6,92.2c-8.8,0-15.9,7.1-15.9,15.9s7.1,15.9,15.9,15.9s15.9-7.1,15.9-15.9S189.4,92.2,180.6,92.2z"/>
</svg>
