<?xml version="1.0" encoding="utf-8"?>
<!-- Generator: Adobe Illustrator 18.1.1, SVG Export Plug-In . SVG Version: 6.00 Build 0)  -->
<svg version="1.1" id="Layer_1" xmlns="http://www.w3.org/2000/svg" xmlns:xlink="http://www.w3.org/1999/xlink" x="0px" y="0px"
	 viewBox="0 0 420 420" enable-background="new 0 0 420 420" xml:space="preserve">
<symbol  id="New_Symbol_1" viewBox="-210 -210 420 420">
	<g>
		<g>
			<path fill="#FFFFFF" d="M0-205c-113,0-205,92-205,205s92,205,205,205S205,113,205,0S113-205,0-205z"/>
			<path fill="#CAF26E" d="M0,200c27,0,53.2-5.3,77.8-15.7c23.8-10.1,45.2-24.5,63.6-42.9c18.4-18.4,32.8-39.8,42.9-63.6
				C194.7,53.2,200,27,200,0s-5.3-53.2-15.7-77.8c-10.1-23.8-24.5-45.2-42.9-63.6c-18.4-18.4-39.8-32.8-63.6-42.9
				C53.2-194.7,27-200,0-200s-53.2,5.3-77.8,15.7c-23.8,10.1-45.2,24.5-63.6,42.9c-18.4,18.4-32.8,39.8-42.9,63.6
				C-194.7-53.2-200-27-200,0s5.3,53.2,15.7,77.8c10.1,23.8,24.5,45.2,42.9,63.6c18.4,18.4,39.8,32.8,63.6,42.9
				C-53.2,194.7-27,200,0,200 M0,210c-116,0-210-94-210-210c0-116,94-210,210-210c116,0,210,94,210,210C210,116,116,210,0,210L0,210
				z"/>
		</g>
	</g>
</symbol>
<use xlink:href="#New_Symbol_1"  width="420" height="420" x="-210" y="-210" transform="matrix(1 0 0 -1 210 210.0015)" overflow="visible"/>
<path fill="#CAF26E" stroke="#7AAD38" stroke-width="16" stroke-miterlimit="10" d="M255.5,210.6c0,59.9-21.5,94.5-21.5,94.5
	s-18.6,0-20.5,0c-2,0-21.5,0-21.5,0s-20.5-32.6-20.5-94.5c0-88.2,42-123,42-123S255.5,122.4,255.5,210.6z"/>
<circle fill="#7AAD38" cx="213.5" cy="188.9" r="14.8"/>
<line fill="#CAF26E" stroke="#7AAD38" stroke-width="16" stroke-miterlimit="10" x1="193.7" y1="320.1" x2="233.2" y2="320.1"/>
<line fill="#CAF26E" stroke="#7AAD38" stroke-width="16" stroke-miterlimit="10" x1="182.5" y1="129.6" x2="244.4" y2="129.6"/>
<g>
	<path fill="#7AAD38" d="M214.5,47.5c0.6,2.6,3.3,19.7,3.3,30.4c0,4.7,0,9.6,0,9.6h-8.5c0,0,0-6.3,0-9.6c0-13.3,2.8-27.9,3.4-30.4
		C212.7,46.9,214.3,46.9,214.5,47.5z"/>
</g>
<g>
	<path fill="#7AAD38" d="M151.4,247.7c1.3,6.3,6.6,48.2,6.6,74.4c0,11.4,0,23.4,0,23.4h-17c0,0,0-15.4,0-23.4
		c0-32.6,5.7-68.2,6.9-74.3C147.8,246.3,151.1,246.1,151.4,247.7z"/>
</g>
<polygon fill="#7AAD38" points="154,273.6 179.1,255.6 194.3,301 152.2,327.1 "/>
<g>
	<path fill="#7AAD38" d="M278.4,247.7c1.3,6.3,6.6,48.2,6.6,74.4c0,11.4,0,23.4,0,23.4h-17c0,0,0-15.4,0-23.4
		c0-32.6,5.7-68.2,6.9-74.3C274.8,246.3,278.1,246.1,278.4,247.7z"/>
</g>
<polygon fill="#7AAD38" points="272,273.6 246.8,255.6 231.6,301 273.8,327.1 "/>
</svg>
