<?xml version="1.0" encoding="utf-8"?>
<!-- Generator: Adobe Illustrator 18.1.1, SVG Export Plug-In . SVG Version: 6.00 Build 0)  -->
<svg version="1.1" id="Layer_1" xmlns="http://www.w3.org/2000/svg" xmlns:xlink="http://www.w3.org/1999/xlink" x="0px" y="0px"
	 viewBox="0 0 420 420" enable-background="new 0 0 420 420" xml:space="preserve">
<g id="New_Symbol_1">
	<g>
		<g>
			<path fill="#FFFFFF" d="M210,415C97,415,5,323,5,210S97,5,210,5s205,92,205,205S323,415,210,415z"/>
			<path fill="#CAF26E" d="M210,10c27,0,53.2,5.3,77.8,15.7c23.8,10.1,45.2,24.5,63.6,42.9c18.4,18.4,32.8,39.8,42.9,63.6
				C404.7,156.8,410,183,410,210s-5.3,53.2-15.7,77.8c-10.1,23.8-24.5,45.2-42.9,63.6c-18.4,18.4-39.8,32.8-63.6,42.9
				C263.2,404.7,237,410,210,410s-53.2-5.3-77.8-15.7c-23.8-10.1-45.2-24.5-63.6-42.9c-18.4-18.4-32.8-39.8-42.9-63.6
				C15.3,263.2,10,237,10,210s5.3-53.2,15.7-77.8c10.1-23.8,24.5-45.2,42.9-63.6c18.4-18.4,39.8-32.8,63.6-42.9
				C156.8,15.3,183,10,210,10 M210,0C94,0,0,94,0,210c0,116,94,210,210,210c116,0,210-94,210-210C420,94,326,0,210,0L210,0z"/>
		</g>
	</g>
</g>
<g>
	<path fill="#CAF26E" d="M298.2,210c0-25.5-10.8-48.5-28.2-64.6l-13.2-41.9h-93.5L150,145.4c-17.3,16.1-28.2,39.1-28.2,64.6
		s10.8,48.5,28.2,64.6l13.2,41.9h93.5l13.2-41.9C287.3,258.5,298.2,235.5,298.2,210z"/>
	<path fill="#7AAD38" d="M256.8,321.5h-93.5c-2.2,0-4.1-1.4-4.8-3.5l-12.8-40.7c-18.3-17.5-28.8-42-28.8-67.3
		c0-25.3,10.5-49.8,28.8-67.3l12.8-40.7c0.7-2.1,2.6-3.5,4.8-3.5h93.5c2.2,0,4.1,1.4,4.8,3.5l12.8,40.7c18.3,17.5,28.8,42,28.8,67.3
		c0,25.3-10.5,49.8-28.8,67.3L261.5,318C260.9,320.1,258.9,321.5,256.8,321.5z M166.9,311.5h86.2l12.1-38.4c0.3-0.8,0.7-1.6,1.4-2.2
		c16.9-15.7,26.6-37.9,26.6-60.9s-9.7-45.2-26.6-60.9c-0.6-0.6-1.1-1.3-1.4-2.2l-12.1-38.4h-86.2l-12.1,38.4
		c-0.3,0.8-0.7,1.6-1.4,2.2c-16.9,15.7-26.6,37.9-26.6,60.9c0,23,9.7,45.2,26.6,60.9c0.6,0.6,1.1,1.3,1.4,2.2L166.9,311.5z"/>
</g>
<g>
	<circle fill="#CAF26E" cx="210" cy="210" r="88.2"/>
	<path fill="#7AAD38" d="M210,306.2c-53,0-96.2-43.1-96.2-96.2c0-53,43.1-96.2,96.2-96.2c53,0,96.2,43.1,96.2,96.2
		C306.2,263,263,306.2,210,306.2z M210,129.9c-44.2,0-80.2,36-80.2,80.2c0,44.2,36,80.2,80.2,80.2c44.2,0,80.2-36,80.2-80.2
		C290.2,165.8,254.2,129.9,210,129.9z"/>
</g>
<g>
	<path fill="#7AAD38" d="M210,279.5c-38.3,0-69.5-31.2-69.5-69.5s31.2-69.5,69.5-69.5s69.5,31.2,69.5,69.5S248.3,279.5,210,279.5z
		 M210,150.5c-32.8,0-59.5,26.7-59.5,59.5c0,32.8,26.7,59.5,59.5,59.5c32.8,0,59.5-26.7,59.5-59.5
		C269.5,177.2,242.8,150.5,210,150.5z"/>
</g>
<g>
	<circle fill="#7AAD38" cx="210" cy="210" r="7.2"/>
</g>
<g>
	<rect x="177.2" y="301.5" fill="#CAF26E" width="65.7" height="24"/>
	<path fill="#7AAD38" d="M247.9,330.5h-75.7v-34h75.7V330.5z M182.2,320.5h55.7v-14h-55.7V320.5z"/>
</g>
<g>
	<rect x="301.6" y="198" fill="#7AAD38" width="9.1" height="24"/>
</g>
<g>
	<rect x="109.3" y="198" fill="none" width="9.1" height="24"/>
</g>
<g>
	<rect x="288.7" y="246.1" transform="matrix(0.866 0.5 -0.5 0.866 168.3332 -112.0629)" fill="#7AAD38" width="9.1" height="24"/>
</g>
<g>
	<rect x="122.2" y="149.9" transform="matrix(-0.866 -0.5 0.5 -0.866 155.5046 365.5081)" fill="none" width="9.1" height="24"/>
</g>
<g>
	<rect x="288.7" y="149.9" transform="matrix(0.866 -0.5 0.5 0.866 -41.6683 168.3326)" fill="#7AAD38" width="9.1" height="24"/>
</g>
<g>
	<rect x="122.2" y="246.1" transform="matrix(-0.866 0.5 -0.5 -0.866 365.506 418.2279)" fill="none" width="9.1" height="24"/>
</g>
<g>
	<rect x="177.2" y="325.5" fill="#CAF26E" width="65.7" height="24"/>
	<path fill="#7AAD38" d="M247.9,354.5h-75.7v-34h75.7V354.5z M182.2,344.5h55.7v-14h-55.7V344.5z"/>
</g>
<g>
	<rect x="177.1" y="94.5" fill="#CAF26E" width="65.7" height="24"/>
	<path fill="#7AAD38" d="M247.8,123.5h-75.7v-34h75.7V123.5z M182.2,113.5h55.7v-14h-55.7V113.5z"/>
</g>
<g>
	<rect x="177.1" y="70.5" fill="#CAF26E" width="65.7" height="24"/>
	<path fill="#7AAD38" d="M247.8,99.5h-75.7v-34h75.7V99.5z M182.2,89.5h55.7v-14h-55.7V89.5z"/>
</g>
<g>
	<rect x="205" y="169.8" fill="#7AAD38" width="10" height="40.2"/>
</g>
<g>
	<rect x="205" y="145.5" fill="#7AAD38" width="10" height="15.9"/>
</g>
<g>
	<rect x="205" y="258.6" fill="#7AAD38" width="10" height="15.9"/>
</g>
<g>
	<rect x="145.5" y="205" fill="#7AAD38" width="15.9" height="10"/>
</g>
<g>
	<rect x="258.6" y="205" fill="#7AAD38" width="15.9" height="10"/>
</g>
<g>
	
		<rect x="216.3" y="182.8" transform="matrix(0.7071 0.7071 -0.7071 0.7071 205.3396 -98.2385)" fill="#7AAD38" width="10" height="31.8"/>
</g>
</svg>
