<?xml version="1.0" encoding="utf-8"?>
<!-- Generator: Adobe Illustrator 18.1.1, SVG Export Plug-In . SVG Version: 6.00 Build 0)  -->
<svg version="1.1" id="Layer_1" xmlns="http://www.w3.org/2000/svg" xmlns:xlink="http://www.w3.org/1999/xlink" x="0px" y="0px"
	 viewBox="0 0 420 420" enable-background="new 0 0 420 420" xml:space="preserve">
<symbol  id="New_Symbol_1" viewBox="-210 -210 420 420">
	<g>
		<g>
			<path fill="#FFFFFF" d="M0-205c-113,0-205,92-205,205s92,205,205,205S205,113,205,0S113-205,0-205z"/>
			<path fill="#CAF26E" d="M0,200c27,0,53.2-5.3,77.8-15.7c23.8-10.1,45.2-24.5,63.6-42.9c18.4-18.4,32.8-39.8,42.9-63.6
				C194.7,53.2,200,27,200,0s-5.3-53.2-15.7-77.8c-10.1-23.8-24.5-45.2-42.9-63.6c-18.4-18.4-39.8-32.8-63.6-42.9
				C53.2-194.7,27-200,0-200s-53.2,5.3-77.8,15.7c-23.8,10.1-45.2,24.5-63.6,42.9c-18.4,18.4-32.8,39.8-42.9,63.6
				C-194.7-53.2-200-27-200,0s5.3,53.2,15.7,77.8c10.1,23.8,24.5,45.2,42.9,63.6c18.4,18.4,39.8,32.8,63.6,42.9
				C-53.2,194.7-27,200,0,200 M0,210c-116,0-210-94-210-210c0-116,94-210,210-210c116,0,210,94,210,210C210,116,116,210,0,210L0,210
				z"/>
		</g>
	</g>
</symbol>
<use xlink:href="#New_Symbol_1"  width="420" height="420" x="-210" y="-210" transform="matrix(1 0 0 -1 210 210.0015)" overflow="visible"/>
<g>
	<path fill="#CAF26E" d="M175.5,81.5c-16.5,0-30,8.7-30,19.3s3,24,6.7,29.6c3.7,5.6,3.7,14.9,0,20.5c-3.7,5.6-6.7,23.8-6.7,40.3
		v33.2c0,16.5,0.3,34.6,0.7,40.3c0.4,5.6,0.4,14.9,0,20.5c-0.4,5.6-0.7,20.2-0.7,32.3c0,12.1,13.5,22,30,22h69c16.5,0,30-9.9,30-22
		c0-12.1-0.3-26.6-0.7-32.3c-0.4-5.6-0.4-14.9,0-20.5c0.4-5.6,0.7-23.8,0.7-40.3v-33.2c0-16.5-3-34.6-6.7-40.3
		c-3.7-5.6-3.7-14.9,0-20.5c3.7-5.6,6.7-19,6.7-29.6s-13.5-19.3-30-19.3H175.5z"/>
	<path fill="none" stroke="#7AAD38" stroke-width="16" stroke-miterlimit="10" d="M175.5,81.5c-16.5,0-30,8.7-30,19.3s3,24,6.7,29.6
		c3.7,5.6,3.7,14.9,0,20.5c-3.7,5.6-6.7,23.8-6.7,40.3v33.2c0,16.5,0.3,34.6,0.7,40.3c0.4,5.6,0.4,14.9,0,20.5
		c-0.4,5.6-0.7,20.2-0.7,32.3c0,12.1,13.5,22,30,22h69c16.5,0,30-9.9,30-22c0-12.1-0.3-26.6-0.7-32.3c-0.4-5.6-0.4-14.9,0-20.5
		c0.4-5.6,0.7-23.8,0.7-40.3v-33.2c0-16.5-3-34.6-6.7-40.3c-3.7-5.6-3.7-14.9,0-20.5c3.7-5.6,6.7-19,6.7-29.6s-13.5-19.3-30-19.3
		H175.5z"/>
</g>
<line fill="#CAF26E" stroke="#7AAD38" stroke-width="16" stroke-miterlimit="10" x1="158.8" y1="140.7" x2="261.2" y2="140.7"/>
<line fill="#CAF26E" stroke="#7AAD38" stroke-width="16" stroke-miterlimit="10" x1="146.9" y1="274.9" x2="273.1" y2="274.9"/>
<line fill="#F7F7F7" stroke="#7AAD38" stroke-width="10" stroke-miterlimit="10" x1="170.1" y1="164.3" x2="251.7" y2="212.3"/>
<line fill="#F7F7F7" stroke="#7AAD38" stroke-width="10" stroke-miterlimit="10" x1="170.1" y1="197.3" x2="251.7" y2="245.3"/>
<line fill="#F7F7F7" stroke="#7AAD38" stroke-width="10" stroke-miterlimit="10" x1="251.7" y1="164.3" x2="170.1" y2="212.3"/>
<line fill="#F7F7F7" stroke="#7AAD38" stroke-width="10" stroke-miterlimit="10" x1="251.7" y1="197.3" x2="170.1" y2="245.3"/>
<line fill="#F7F7F7" stroke="#7AAD38" stroke-width="10" stroke-miterlimit="10" x1="210.4" y1="80" x2="210.4" y2="123.3"/>
<line fill="#F7F7F7" stroke="#7AAD38" stroke-width="10" stroke-miterlimit="10" x1="170.4" y1="142.3" x2="170.4" y2="256.3"/>
<line fill="#F7F7F7" stroke="#7AAD38" stroke-width="10" stroke-miterlimit="10" x1="249.4" y1="142.3" x2="249.4" y2="256.3"/>
<path fill="none" stroke="#7AAD38" stroke-width="10" stroke-miterlimit="10" d="M274.4,164.9c0,0,24,5,24,19s0,77,0,77s-2,14-24,14
	"/>
<path fill="none" stroke="#7AAD38" stroke-width="10" stroke-miterlimit="10" d="M144.4,164.9c0,0-24,5-24,19s0,77,0,77s2,14,24,14"
	/>
<line fill="#F7F7F7" stroke="#7AAD38" stroke-width="10" stroke-miterlimit="10" x1="276.4" y1="208.3" x2="297.4" y2="208.3"/>
<line fill="#F7F7F7" stroke="#7AAD38" stroke-width="10" stroke-miterlimit="10" x1="122.4" y1="208.3" x2="143.4" y2="208.3"/>
<rect x="148.4" y="307.3" fill="#7AAD38" width="121" height="27"/>
<path fill="none" stroke="#7AAD38" stroke-width="10" stroke-miterlimit="10" d="M264.5,83.3c0,0-1.8,7-4,15.5
	c-2.2,8.5-13,15.5-24,15.5h-54.3c-11,0-21.8-7-24-15.5s-4-15.5-4-15.5"/>
</svg>
