<?xml version="1.0" encoding="utf-8"?>
<!-- Generator: Adobe Illustrator 18.1.1, SVG Export Plug-In . SVG Version: 6.00 Build 0)  -->
<svg version="1.1" id="Layer_1" xmlns="http://www.w3.org/2000/svg" xmlns:xlink="http://www.w3.org/1999/xlink" x="0px" y="0px"
	 viewBox="0 0 420 420" enable-background="new 0 0 420 420" xml:space="preserve">
<g id="New_Symbol_1">
	<g>
		<g>
			<path fill="#FFFFFF" d="M210,415C97,415,5,323,5,210C5,97,97,5,210,5s205,92,205,205C415,323,323,415,210,415z"/>
			<path fill="#CAF26E" d="M210,10c27,0,53.2,5.3,77.8,15.7c23.8,10.1,45.2,24.5,63.6,42.9c18.4,18.4,32.8,39.8,42.9,63.6
				C404.7,156.8,410,183,410,210s-5.3,53.2-15.7,77.8c-10.1,23.8-24.5,45.2-42.9,63.6c-18.4,18.4-39.8,32.8-63.6,42.9
				C263.2,404.7,237,410,210,410s-53.2-5.3-77.8-15.7c-23.8-10.1-45.2-24.5-63.6-42.9c-18.4-18.4-32.8-39.8-42.9-63.6
				C15.3,263.2,10,237,10,210s5.3-53.2,15.7-77.8c10.1-23.8,24.5-45.2,42.9-63.6c18.4-18.4,39.8-32.8,63.6-42.9
				C156.8,15.3,183,10,210,10 M210,0C94,0,0,94,0,210c0,116,94,210,210,210s210-94,210-210C420,94,326,0,210,0L210,0z"/>
		</g>
	</g>
</g>
<g>
	<g>
		<path fill="#CAF26E" d="M128.7,252.6c0,0-1.1,33.8,10.2,44.5c10.7,10.2,30.8,11.7,44.3,2.8c11.9-7.8,22.4-35.5,16.4-47.1
			c0,0-15.1-4.3-34.1-6.1C147.2,245,128.7,252.6,128.7,252.6z"/>
		<path fill="#7AAD38" d="M162.8,310.8C162.8,310.8,162.8,310.8,162.8,310.8c-10.6,0-20.6-3.7-27.3-10
			c-12.6-11.9-11.8-44.6-11.7-48.3c0.1-2,1.3-3.7,3.1-4.5c0.6-0.3,16.1-6.6,33.1-6.6c2,0,4,0.1,6,0.3c19.2,1.8,34.4,6.1,35.1,6.3
			c1.3,0.4,2.4,1.3,3.1,2.5c7.5,14.4-4.6,44.7-18.1,53.6C179.4,308.4,171.2,310.8,162.8,310.8z M133.7,256.1
			c0,12.5,2.2,31.3,8.7,37.4c4.9,4.6,12.3,7.3,20.4,7.3c0,0,0,0,0,0c6.5,0,12.8-1.8,17.7-5c9.6-6.3,18.1-28.7,15.4-38.8
			c-4.9-1.2-16.9-4-30.9-5.3c-1.6-0.2-3.3-0.2-5-0.2C149.1,251.5,138.7,254.5,133.7,256.1z"/>
	</g>
	<g>
		<path fill="#7AAD38" d="M130.1,279.8c-2.3,0-4.4-1.6-4.9-4c-1.4-6.8-6.6-9.8-6.8-9.9c-1.6-0.9-2.6-2.5-2.6-4.4v-7.1
			c0-2.8,2.2-5,5-5c-0.1,0,2.1-0.1,6.1-1.5c1.7-0.7,20.3-8,39-6.2c18.9,1.8,33.8,5.9,35,6.3c5,1.3,6.8,1.5,10.5,1.5c2.8,0,5,2.2,5,5
			v7.9c0,1.4-0.6,2.8-1.7,3.8s-2.5,1.4-4,1.2c-0.1,0-4.4-0.5-5.3,2.3c-0.8,2.4-3.2,3.8-5.7,3.3c-2.5-0.5-4.2-2.7-4.1-5.2
			c0,0,0.2-4.6,0.1-9.5c-0.1-0.3-0.5-1.1-0.8-1.4c0,0,0.2,0.1,0.5,0.2l0.1-0.2c-5-1.3-16.9-4-30.7-5.3c-11.8-1.1-23.9,2.1-30.1,4.1
			l0.1,0.1l0,0c-0.5,0.3-1.3,1.6-1.3,2.3c0,7.2,1.5,15.7,1.5,15.8c0.5,2.7-1.3,5.2-4,5.8C130.8,279.8,130.4,279.8,130.1,279.8z"/>
	</g>
</g>
<g>
	<path fill="#CAF26E" d="M291.3,252.6c0,0,1.1,33.8-10.2,44.5c-10.7,10.2-30.8,11.7-44.3,2.8c-11.9-7.8-22.4-35.5-16.4-47.1
		c0,0,15.1-4.3,34.1-6.1C272.8,245,291.3,252.6,291.3,252.6z"/>
	<path fill="#7AAD38" d="M257.2,310.8c-8.4,0-16.7-2.4-23.2-6.7c-13.5-8.9-25.5-39.2-18.1-53.6c0.6-1.2,1.7-2.1,3.1-2.5
		c0.6-0.2,15.8-4.5,35.1-6.3c1.9-0.2,3.9-0.3,6-0.3c17,0,32.5,6.3,33.1,6.6c1.8,0.7,3,2.5,3.1,4.5c0.1,3.7,0.8,36.4-11.7,48.3
		C277.8,307.1,267.9,310.8,257.2,310.8z M224.2,257c-2.7,10.1,5.8,32.5,15.4,38.8c4.9,3.2,11.2,5,17.7,5c8.1,0,15.5-2.7,20.4-7.3
		c6.4-6.1,8.6-24.9,8.7-37.4c-5-1.7-15.4-4.7-26.3-4.7c-1.7,0-3.4,0.1-5,0.2C241,253,229.1,255.8,224.2,257z"/>
</g>
<g>
	<path fill="#7AAD38" d="M289.9,279.8c-0.3,0-0.6,0-1-0.1c-2.7-0.5-4.4-3.1-4-5.8c0-0.1,1.5-8.7,1.5-15.8c0-0.7-0.8-2-1.3-2.3
		l0.1-0.1c-6.2-2-18.4-5.2-30.1-4.1c-13.9,1.3-25.7,4-30.7,5.3l0.1,0.2c0.4-0.1,0.5-0.2,0.5-0.2c-0.3,0.2-0.8,1.1-0.8,1.5
		c-0.1,4.8,0.1,9.4,0.1,9.4c0.1,2.5-1.6,4.7-4.1,5.2c-2.5,0.5-4.9-1-5.7-3.3c-0.9-2.7-5.2-2.3-5.3-2.3c-1.4,0.2-2.9-0.3-3.9-1.2
		c-1.1-0.9-1.7-2.3-1.7-3.7v-7.9c0-2.8,2.2-5,5-5c3.7,0,5.5-0.2,10.5-1.5c1.2-0.3,16.1-4.5,35-6.3c18.7-1.8,37.3,5.6,39,6.2
		c3.9,1.5,6.2,1.5,6.2,1.5c2.8,0,4.9,2.2,4.9,5v7.1c0,1.8-1,3.5-2.6,4.4c-0.2,0.1-5.4,3.1-6.8,9.9
		C294.3,278.2,292.2,279.8,289.9,279.8z"/>
</g>
<g>
	<path fill="#CAF26E" d="M316.7,216.5c0-6-13.5-23.1-33.9-29.9c0,0-16.6-55.3-21.1-68.1c-4.5-12.8-27.9-20.3-51.2-20.3
		c-23.3,0-46.7,7.5-51.2,20.3c-4.5,12.8-21.1,68.1-21.1,68.1c-19.7,6.8-33.9,23.8-33.9,29.9c18.7-17.6,73.7-13.5,106.2-14.1
		C243,203,298,198.9,316.7,216.5z"/>
	<path fill="#7AAD38" d="M316.7,221.5c-1.3,0-2.5-0.5-3.4-1.4c-13.5-12.7-53-12.7-72-12.7c-4,0-8,0-11.8,0.1c-3.6,0-7.2,0-10.5,0
		c-3.3,0-6,0-8.5-0.1c-2.4,0-5.2,0.1-8.5,0.1c-3.4,0-6.9,0-10.5,0c-3.8,0-7.8-0.1-11.8-0.1c-19,0-58.5,0-72,12.7
		c-1.5,1.4-3.6,1.7-5.4,1c-1.8-0.8-3-2.6-3-4.6c0-6.9,8.5-15.7,11.1-18.2c6.8-6.7,15.2-12.1,23.8-15.5c3.3-10.9,16.4-54.5,20.4-65.9
		c5.7-16.3,33-23.7,55.9-23.7c22.9,0,50.2,7.4,55.9,23.7c4,11.4,17.2,54.9,20.4,65.9c19.8,7.5,34,24.2,34.8,33
		c0,0.2,0.1,0.5,0.1,0.7C321.7,219.2,319.5,221.5,316.7,221.5C316.7,221.5,316.7,221.5,316.7,221.5z M241.3,197.4
		c20.7,0,43,0.6,59.9,5.5c-5.1-4.4-11.9-8.9-19.9-11.5c-1.5-0.5-2.7-1.7-3.2-3.3c-0.2-0.6-16.6-55.3-21-67.8
		c-3.4-9.5-23.8-17-46.5-17c-22.7,0-43.1,7.5-46.5,17c-4.4,12.5-20.8,67.3-21,67.8c-0.5,1.5-1.6,2.8-3.2,3.3
		c-6.8,2.4-13.7,6.4-19.6,11.4c14.9-4.3,35.1-5.4,59.5-5.4c4,0,8,0,11.9,0.1c3.6,0,7.1,0,10.5,0c3.2,0,6,0,8.4-0.1
		c0.1,0,0.1,0,0.2,0c2.4,0,5.1,0.1,8.4,0.1c3.3,0,6.8,0,10.5,0C233.2,197.4,237.2,197.4,241.3,197.4z"/>
</g>
<g>
	<path fill="#7AAD38" d="M98.8,218.7c0,7,15,16,28,19c0-32,44-32,44-32l-55-4L98.8,218.7z"/>
</g>
<g>
	<path fill="#7AAD38" d="M322.1,218.7c0,7-15,16-28,19c0-32-44-32-44-32l55-4L322.1,218.7z"/>
</g>
<g>
	<path fill="#7AAD38" d="M138.2,191.6c0,0,23.3-12.8,72.3-12.8s72.3,12.8,72.3,12.8l-7.5-26.4c0,0-26.4-15.2-64.8-15.2
		s-64.8,15.2-64.8,15.2L138.2,191.6z"/>
</g>
<g>
	<path fill="#7AAD38" d="M309.8,231.3l-16-1.1c0,0.5,0,0.7,0,0.7c0-0.2-4.8-20.4-83.3-20.4c-63,0-77.5,11.3-80.5,14.8
		c-0.8,0.9-0.9,1.4-0.9,1.4c0,0.1,0-0.2,0-0.3c0-0.1,0-0.2,0-0.3c0-0.1-0.1-0.6-0.1-0.6l-15.8,2.6c-0.3-1.5-0.7-7,4.5-13.2
		c11.5-13.6,42.7-20.4,92.7-20.4c48.1,0,79.3,7.3,92.8,21.8C310,223.4,309.9,230.1,309.8,231.3z"/>
</g>
</svg>
