<?xml version="1.0" encoding="utf-8"?>
<!-- Generator: Adobe Illustrator 18.1.1, SVG Export Plug-In . SVG Version: 6.00 Build 0)  -->
<svg version="1.1" id="Layer_1" xmlns="http://www.w3.org/2000/svg" xmlns:xlink="http://www.w3.org/1999/xlink" x="0px" y="0px"
	 viewBox="0 0 420 420" enable-background="new 0 0 420 420" xml:space="preserve">
<symbol  id="New_Symbol_1" viewBox="-210 -210 420 420">
	<g>
		<g>
			<path fill="#FFFFFF" d="M0-205c-113,0-205,92-205,205s92,205,205,205S205,113,205,0S113-205,0-205z"/>
			<path fill="#CAF26E" d="M0,200c27,0,53.2-5.3,77.8-15.7c23.8-10.1,45.2-24.5,63.6-42.9c18.4-18.4,32.8-39.8,42.9-63.6
				C194.7,53.2,200,27,200,0s-5.3-53.2-15.7-77.8c-10.1-23.8-24.5-45.2-42.9-63.6c-18.4-18.4-39.8-32.8-63.6-42.9
				C53.2-194.7,27-200,0-200s-53.2,5.3-77.8,15.7c-23.8,10.1-45.2,24.5-63.6,42.9c-18.4,18.4-32.8,39.8-42.9,63.6
				C-194.7-53.2-200-27-200,0s5.3,53.2,15.7,77.8c10.1,23.8,24.5,45.2,42.9,63.6c18.4,18.4,39.8,32.8,63.6,42.9
				C-53.2,194.7-27,200,0,200 M0,210c-116,0-210-94-210-210c0-116,94-210,210-210c116,0,210,94,210,210C210,116,116,210,0,210L0,210
				z"/>
		</g>
	</g>
</symbol>
<g>
	
		<use xlink:href="#New_Symbol_1"  width="420" height="420" x="-210" y="-210" transform="matrix(1 0 0 -1 210 210.0013)" overflow="visible"/>
	<g>
		<g>
			<polyline fill="#CAF26E" stroke="#7AAD38" stroke-width="16" stroke-miterlimit="10" points="267.9,303.6 267.9,155 354.9,155 
				354.9,303.6 			"/>
			<g>
				<line fill="#F7F7F7" stroke="#7AAD38" stroke-width="16" stroke-miterlimit="10" x1="267.9" y1="258.5" x2="267.9" y2="242.5"/>
				<line fill="#F7F7F7" stroke="#7AAD38" stroke-width="16" stroke-miterlimit="10" x1="296.9" y1="258.5" x2="296.9" y2="242.5"/>
				<line fill="#F7F7F7" stroke="#7AAD38" stroke-width="16" stroke-miterlimit="10" x1="325.9" y1="258.5" x2="325.9" y2="242.5"/>
				<line fill="#F7F7F7" stroke="#7AAD38" stroke-width="16" stroke-miterlimit="10" x1="354.9" y1="258.5" x2="354.9" y2="242.5"/>
			</g>
			<g>
				<line fill="#F7F7F7" stroke="#7AAD38" stroke-width="16" stroke-miterlimit="10" x1="267.9" y1="226.5" x2="267.9" y2="210.5"/>
				<line fill="#F7F7F7" stroke="#7AAD38" stroke-width="16" stroke-miterlimit="10" x1="296.9" y1="226.5" x2="296.9" y2="210.5"/>
				<line fill="#F7F7F7" stroke="#7AAD38" stroke-width="16" stroke-miterlimit="10" x1="325.9" y1="226.5" x2="325.9" y2="210.5"/>
				<line fill="#F7F7F7" stroke="#7AAD38" stroke-width="16" stroke-miterlimit="10" x1="354.9" y1="226.5" x2="354.9" y2="210.5"/>
			</g>
			<g>
				<line fill="#F7F7F7" stroke="#7AAD38" stroke-width="16" stroke-miterlimit="10" x1="267.9" y1="195" x2="267.9" y2="179"/>
				<line fill="#F7F7F7" stroke="#7AAD38" stroke-width="16" stroke-miterlimit="10" x1="296.9" y1="195" x2="296.9" y2="179"/>
				<line fill="#F7F7F7" stroke="#7AAD38" stroke-width="16" stroke-miterlimit="10" x1="325.9" y1="195" x2="325.9" y2="179"/>
				<line fill="#F7F7F7" stroke="#7AAD38" stroke-width="16" stroke-miterlimit="10" x1="354.9" y1="195" x2="354.9" y2="179"/>
			</g>
			<g>
				<line fill="#F7F7F7" stroke="#7AAD38" stroke-width="16" stroke-miterlimit="10" x1="267.9" y1="155" x2="267.9" y2="139"/>
				<line fill="#F7F7F7" stroke="#7AAD38" stroke-width="16" stroke-miterlimit="10" x1="296.9" y1="155" x2="296.9" y2="139"/>
				<line fill="#F7F7F7" stroke="#7AAD38" stroke-width="16" stroke-miterlimit="10" x1="325.9" y1="155" x2="325.9" y2="139"/>
			</g>
			<g>
				<line fill="#F7F7F7" stroke="#7AAD38" stroke-width="16" stroke-miterlimit="10" x1="267.9" y1="307.5" x2="267.9" y2="274"/>
				<line fill="#F7F7F7" stroke="#7AAD38" stroke-width="16" stroke-miterlimit="10" x1="296.9" y1="307.5" x2="296.9" y2="274"/>
				<line fill="#F7F7F7" stroke="#7AAD38" stroke-width="16" stroke-miterlimit="10" x1="325.9" y1="290" x2="325.9" y2="274"/>
				<line fill="#F7F7F7" stroke="#7AAD38" stroke-width="16" stroke-miterlimit="10" x1="354.9" y1="307.5" x2="354.9" y2="274"/>
			</g>
		</g>
		<g>
			<polyline fill="#CAF26E" stroke="#7AAD38" stroke-width="16" stroke-miterlimit="10" points="65.1,303.6 65.1,187 152.1,187 
				152.1,303.6 			"/>
			<g>
				<line fill="#F7F7F7" stroke="#7AAD38" stroke-width="16" stroke-miterlimit="10" x1="65.1" y1="258.5" x2="65.1" y2="242.5"/>
				<line fill="#F7F7F7" stroke="#7AAD38" stroke-width="16" stroke-miterlimit="10" x1="94.1" y1="258.5" x2="94.1" y2="242.5"/>
				<line fill="#F7F7F7" stroke="#7AAD38" stroke-width="16" stroke-miterlimit="10" x1="123.1" y1="258.5" x2="123.1" y2="242.5"/>
				<line fill="#F7F7F7" stroke="#7AAD38" stroke-width="16" stroke-miterlimit="10" x1="152.1" y1="258.5" x2="152.1" y2="242.5"/>
			</g>
			<g>
				<line fill="#F7F7F7" stroke="#7AAD38" stroke-width="16" stroke-miterlimit="10" x1="65.1" y1="226.5" x2="65.1" y2="210.5"/>
				<line fill="#F7F7F7" stroke="#7AAD38" stroke-width="16" stroke-miterlimit="10" x1="94.1" y1="226.5" x2="94.1" y2="210.5"/>
				<line fill="#F7F7F7" stroke="#7AAD38" stroke-width="16" stroke-miterlimit="10" x1="123.1" y1="226.5" x2="123.1" y2="210.5"/>
				<line fill="#F7F7F7" stroke="#7AAD38" stroke-width="16" stroke-miterlimit="10" x1="152.1" y1="226.5" x2="152.1" y2="210.5"/>
			</g>
			<g>
				<line fill="#F7F7F7" stroke="#7AAD38" stroke-width="16" stroke-miterlimit="10" x1="152.1" y1="187" x2="152.1" y2="171"/>
			</g>
			<g>
				<line fill="#F7F7F7" stroke="#7AAD38" stroke-width="16" stroke-miterlimit="10" x1="65.1" y1="307.5" x2="65.1" y2="274"/>
				<line fill="#F7F7F7" stroke="#7AAD38" stroke-width="16" stroke-miterlimit="10" x1="108.6" y1="307.5" x2="108.6" y2="274"/>
				<line fill="#F7F7F7" stroke="#7AAD38" stroke-width="16" stroke-miterlimit="10" x1="152.1" y1="307.5" x2="152.1" y2="274"/>
			</g>
		</g>
		<g>
			<polyline fill="#CAF26E" stroke="#7AAD38" stroke-width="16" stroke-miterlimit="10" points="152.1,303.6 152.1,123 267.9,123 
				267.9,303.6 			"/>
			<g>
				<line fill="#F7F7F7" stroke="#7AAD38" stroke-width="16" stroke-miterlimit="10" x1="152.1" y1="258.5" x2="152.1" y2="242.5"/>
				<line fill="#F7F7F7" stroke="#7AAD38" stroke-width="16" stroke-miterlimit="10" x1="181" y1="258.5" x2="181" y2="242.5"/>
				<line fill="#F7F7F7" stroke="#7AAD38" stroke-width="16" stroke-miterlimit="10" x1="210" y1="258.5" x2="210" y2="242.5"/>
				<line fill="#F7F7F7" stroke="#7AAD38" stroke-width="16" stroke-miterlimit="10" x1="239" y1="258.5" x2="239" y2="242.5"/>
				<line fill="#F7F7F7" stroke="#7AAD38" stroke-width="16" stroke-miterlimit="10" x1="267.9" y1="258.5" x2="267.9" y2="242.5"/>
			</g>
			<g>
				<line fill="#F7F7F7" stroke="#7AAD38" stroke-width="16" stroke-miterlimit="10" x1="152.1" y1="226.5" x2="152.1" y2="210.5"/>
				<line fill="#F7F7F7" stroke="#7AAD38" stroke-width="16" stroke-miterlimit="10" x1="181" y1="226.5" x2="181" y2="210.5"/>
				<line fill="#F7F7F7" stroke="#7AAD38" stroke-width="16" stroke-miterlimit="10" x1="210" y1="226.5" x2="210" y2="210.5"/>
				<line fill="#F7F7F7" stroke="#7AAD38" stroke-width="16" stroke-miterlimit="10" x1="239" y1="226.5" x2="239" y2="210.5"/>
				<line fill="#F7F7F7" stroke="#7AAD38" stroke-width="16" stroke-miterlimit="10" x1="267.9" y1="226.5" x2="267.9" y2="210.5"/>
			</g>
			<g>
				<line fill="#F7F7F7" stroke="#7AAD38" stroke-width="16" stroke-miterlimit="10" x1="152.1" y1="195" x2="152.1" y2="179"/>
				<line fill="#F7F7F7" stroke="#7AAD38" stroke-width="16" stroke-miterlimit="10" x1="181" y1="195" x2="181" y2="179"/>
				<line fill="#F7F7F7" stroke="#7AAD38" stroke-width="16" stroke-miterlimit="10" x1="210" y1="195" x2="210" y2="179"/>
				<line fill="#F7F7F7" stroke="#7AAD38" stroke-width="16" stroke-miterlimit="10" x1="239" y1="195" x2="239" y2="179"/>
				<line fill="#F7F7F7" stroke="#7AAD38" stroke-width="16" stroke-miterlimit="10" x1="267.9" y1="195" x2="267.9" y2="179"/>
			</g>
			<g>
				<line fill="#F7F7F7" stroke="#7AAD38" stroke-width="16" stroke-miterlimit="10" x1="152.1" y1="163" x2="152.1" y2="147"/>
				<line fill="#F7F7F7" stroke="#7AAD38" stroke-width="16" stroke-miterlimit="10" x1="181" y1="163" x2="181" y2="147"/>
				<line fill="#F7F7F7" stroke="#7AAD38" stroke-width="16" stroke-miterlimit="10" x1="210" y1="163" x2="210" y2="147"/>
				<line fill="#F7F7F7" stroke="#7AAD38" stroke-width="16" stroke-miterlimit="10" x1="239" y1="163" x2="239" y2="147"/>
				<line fill="#F7F7F7" stroke="#7AAD38" stroke-width="16" stroke-miterlimit="10" x1="267.9" y1="163" x2="267.9" y2="147"/>
			</g>
			<g>
				<line fill="#F7F7F7" stroke="#7AAD38" stroke-width="16" stroke-miterlimit="10" x1="152.1" y1="307.5" x2="152.1" y2="274"/>
				<line fill="#F7F7F7" stroke="#7AAD38" stroke-width="16" stroke-miterlimit="10" x1="210" y1="307.5" x2="210" y2="274"/>
				<line fill="#F7F7F7" stroke="#7AAD38" stroke-width="16" stroke-miterlimit="10" x1="267.9" y1="307.5" x2="267.9" y2="274"/>
			</g>
		</g>
		<g>
			<path fill="#7AAD38" d="M128.9,153.3c1.6,1.6,1,2.8-1.2,2.8H89.5c-2.2,0-2.7-1.3-1.2-2.8l17.4-17.4c1.6-1.6,4.1-1.6,5.7,0
				L128.9,153.3z"/>
		</g>
		<line fill="none" stroke="#7AAD38" stroke-width="10" stroke-miterlimit="10" x1="121.1" y1="185.2" x2="121.1" y2="153.2"/>
		<line fill="none" stroke="#7AAD38" stroke-width="10" stroke-miterlimit="10" x1="96.1" y1="153.2" x2="96.1" y2="185.2"/>
		<line fill="none" stroke="#7AAD38" stroke-width="8" stroke-miterlimit="10" x1="92.2" y1="167.6" x2="123.2" y2="167.6"/>
		<g>
			<path fill="#7AAD38" d="M210.7,88.1c1.6,1.6,1,2.8-1.2,2.8h-32.1c-2.2,0-2.7-1.3-1.2-2.8l14.4-14.4c1.6-1.6,4.1-1.6,5.7,0
				L210.7,88.1z"/>
		</g>
		<line fill="none" stroke="#7AAD38" stroke-width="10" stroke-miterlimit="10" x1="205.9" y1="121.6" x2="205.9" y2="89.6"/>
		<line fill="none" stroke="#7AAD38" stroke-width="10" stroke-miterlimit="10" x1="181" y1="89.6" x2="181" y2="121.6"/>
		<line fill="none" stroke="#7AAD38" stroke-width="8" stroke-miterlimit="10" x1="171.3" y1="104" x2="215.6" y2="104"/>
	</g>
	
		<line fill="#F7F7F7" stroke="#7AAD38" stroke-width="10" stroke-linecap="round" stroke-linejoin="round" stroke-miterlimit="10" x1="54.4" y1="305.5" x2="365.6" y2="305.5"/>
</g>
</svg>
