<?xml version="1.0" encoding="utf-8"?>
<!-- Generator: Adobe Illustrator 18.1.1, SVG Export Plug-In . SVG Version: 6.00 Build 0)  -->
<svg version="1.1" id="Layer_1" xmlns="http://www.w3.org/2000/svg" xmlns:xlink="http://www.w3.org/1999/xlink" x="0px" y="0px"
	 viewBox="0 0 420 420" enable-background="new 0 0 420 420" xml:space="preserve">
<symbol  id="New_Symbol_2" viewBox="-210 -210 420 420">
	<g>
		<g>
			<path fill="#FFFFFF" d="M0-205c-113,0-205,92-205,205s92,205,205,205S205,113,205,0S113-205,0-205z"/>
			<path fill="#CAF26E" d="M0,200c27,0,53.2-5.3,77.8-15.7c23.8-10.1,45.2-24.5,63.6-42.9c18.4-18.4,32.8-39.8,42.9-63.6
				C194.7,53.2,200,27,200,0s-5.3-53.2-15.7-77.8c-10.1-23.8-24.5-45.2-42.9-63.6c-18.4-18.4-39.8-32.8-63.6-42.9
				C53.2-194.7,27-200,0-200s-53.2,5.3-77.8,15.7c-23.8,10.1-45.2,24.5-63.6,42.9c-18.4,18.4-32.8,39.8-42.9,63.6
				C-194.7-53.2-200-27-200,0s5.3,53.2,15.7,77.8c10.1,23.8,24.5,45.2,42.9,63.6c18.4,18.4,39.8,32.8,63.6,42.9
				C-53.2,194.7-27,200,0,200 M0,210c-116,0-210-94-210-210c0-116,94-210,210-210c116,0,210,94,210,210C210,116,116,210,0,210L0,210
				z"/>
		</g>
	</g>
</symbol>
<use xlink:href="#New_Symbol_2"  width="420" height="420" x="-210" y="-210" transform="matrix(1 0 0 -1 210 210.0015)" overflow="visible"/>
<g>
	<g>
		<path fill="#CAF26E" d="M168,191.4c1-12.6,12.1-22.9,24.8-22.9h35.2c12.6,0,23.8,10.3,24.8,22.9l6.4,82.6
			c1,12.6-8.6,22.9-21.2,22.9h-55c-12.7,0-22.2-10.3-21.2-22.9L168,191.4z"/>
		<path fill="none" stroke="#7AAD38" stroke-width="16" stroke-miterlimit="10" d="M168,191.4c1-12.6,12.1-22.9,24.8-22.9h35.2
			c12.6,0,23.8,10.3,24.8,22.9l6.4,82.6c1,12.6-8.6,22.9-21.2,22.9h-55c-12.7,0-22.2-10.3-21.2-22.9L168,191.4z"/>
	</g>
	<g>
		<path fill="#CAF26E" d="M191.5,146.5c-4.5,0-7.7-1-9.8-3.1c-2.7-2.7-3.1-6.9-3.1-9.2c0-4,4.6-10.5,10.6-13.1
			c8.8-3.9,17.7-12.2,17.7-20.6c0-0.1,0-0.2,0-0.3l0.2-2.5l-1.7-1.9c-0.6-0.7-1.4-2-1.4-3.7c0-3.1,2.5-5.7,5.7-5.7s5.7,2.5,5.7,5.7
			c0,1.7-0.7,2.9-1.4,3.7l-1.7,1.9l0.2,2.5c0,0.1,0,0.2,0,0.3c0,8.4,8.9,16.7,17.7,20.6c6.1,2.7,10.6,9.2,10.6,13.1
			c0,2.3-0.4,6.5-3.1,9.2c-2,2.1-5.3,3.1-9.8,3.1H191.5z"/>
		<path fill="#7AAD38" d="M209.9,111c4,6.8,11.3,12.4,18.2,15.5c4.1,1.8,6.9,6.3,7.1,7.7c0,2.2-0.5,4.1-1.3,5
			c-0.8,0.8-2.9,1.3-5.5,1.3h-36.8c-2.7,0-4.7-0.5-5.5-1.3c-0.8-0.8-1.3-2.8-1.3-4.9c0.1-1.5,2.9-5.9,7.1-7.7
			C198.7,123.4,206,117.8,209.9,111 M209.9,80.4c-6.4,0-11.7,5.2-11.7,11.7c0,2.9,1.1,5.5,2.8,7.6c0,0.3,0,0.6,0,0.9
			c0,4.8-6.4,11.6-14.1,15.1s-14.2,11.8-14.2,18.6c0,6.8,2.6,18.3,18.9,18.3h36.8c16.3,0,18.9-11.6,18.9-18.3
			c0-6.8-6.4-15.2-14.2-18.6s-14.1-10.2-14.1-15.1c0-0.3,0-0.6,0-0.9c1.7-2,2.8-4.7,2.8-7.6C221.6,85.6,216.4,80.4,209.9,80.4
			L209.9,80.4z"/>
	</g>
	
		<line fill="#CAF26E" stroke="#7AAD38" stroke-width="16" stroke-linecap="round" stroke-linejoin="round" stroke-miterlimit="10" x1="233.4" y1="209.8" x2="251.9" y2="209.8"/>
	
		<line fill="#CAF26E" stroke="#7AAD38" stroke-width="16" stroke-linecap="round" stroke-linejoin="round" stroke-miterlimit="10" x1="233.4" y1="238.1" x2="251.9" y2="238.1"/>
	
		<line fill="#CAF26E" stroke="#7AAD38" stroke-width="16" stroke-linecap="round" stroke-linejoin="round" stroke-miterlimit="10" x1="233.4" y1="266.4" x2="251.9" y2="266.4"/>
	<path fill="#7AAD38" d="M253.1,166.7c0,2.8-2.2,5-5,5h-76.4c-2.8,0-5-2.2-5-5v-21.2c0-2.8,2.2-5,5-5h76.4c2.8,0,5,2.2,5,5V166.7z"
		/>
</g>
</svg>
