<?xml version="1.0" encoding="utf-8"?>
<!-- Generator: Adobe Illustrator 18.1.1, SVG Export Plug-In . SVG Version: 6.00 Build 0)  -->
<svg version="1.1" id="Layer_1" xmlns="http://www.w3.org/2000/svg" xmlns:xlink="http://www.w3.org/1999/xlink" x="0px" y="0px"
	 viewBox="298.1 412.5 16 17.3" enable-background="new 298.1 412.5 16 17.3" xml:space="preserve">
<symbol  id="drag-utility" viewBox="-28.8 -28.8 57.6 57.6">
	<g>
		<g>
			<g>
				<g>
					<path fill="#7AAD38" d="M-6.1,18c0.8-0.8,0.8-2.1,0-2.8l-9-9c-0.8-0.8-2.1-0.8-2.8,0l-9.4,9.4c-0.8,0.8-1.5,0.5-1.5-0.6
						c0,0-0.5-11.6,4.6-16.7C-17.1-9-5.4-9,1.8-1.8s7.2,18.9,0,26c-5.1,5.1-16.7,4.6-16.7,4.6c-1.1,0-1.4-0.7-0.6-1.5L-6.1,18z"/>
				</g>
			</g>
		</g>
		<g>
			<path fill="#7AAD38" d="M2.7,7.8C1.9,8.5,0.6,8.5-0.2,7.7l-7.5-7.5c-0.8-0.8-0.8-2.1-0.1-2.9l20.8-24c0.7-0.8,2.2-1.6,3.3-1.7
				l3.8-0.4c1.1-0.1,2.6,0.4,3.4,1.2l4.1,4.1c0.8,0.8,1.3,2.3,1.2,3.4l-0.4,3.8c-0.1,1.1-0.9,2.6-1.7,3.3L2.7,7.8z"/>
		</g>
	</g>
</symbol>
<g>
	<g>
		<path fill="#FFFFFF" d="M304.4,416.9c0.2,0.2,0.2,0.6,0,0.8l-2.5,2.5c-0.2,0.2-0.6,0.2-0.8,0l-2.6-2.6c-0.2-0.2-0.4-0.1-0.4,0.2
			c0,0-0.1,3.2,1.3,4.6c2,2,5.2,2,7.2,0c2-2,2-5.2,0-7.2c-1.4-1.4-4.6-1.3-4.6-1.3c-0.3,0-0.4,0.2-0.2,0.4L304.4,416.9z"/>
		<path fill="#FFFFFF" d="M306.9,419.7c-0.2-0.2-0.6-0.2-0.8,0l-2.1,2.1c-0.2,0.2-0.2,0.6,0,0.8l5.8,6.6c0.2,0.2,0.6,0.4,0.9,0.5
			l1.1,0.1c0.3,0,0.7-0.1,0.9-0.3l1.1-1.1c0.2-0.2,0.4-0.6,0.3-0.9l-0.1-1.1c0-0.3-0.2-0.7-0.5-0.9L306.9,419.7z"/>
	</g>
	<g>
		
			<use xlink:href="#drag-utility"  width="57.6" height="57.6" x="-28.8" y="-28.8" transform="matrix(0.2774 0 0 -0.2774 306.121 420.4986)" overflow="visible"/>
	</g>
</g>
</svg>
