<?xml version="1.0" encoding="utf-8"?>
<!-- Generator: Adobe Illustrator 18.1.1, SVG Export Plug-In . SVG Version: 6.00 Build 0)  -->
<svg version="1.1" id="Layer_1" xmlns="http://www.w3.org/2000/svg" xmlns:xlink="http://www.w3.org/1999/xlink" x="0px" y="0px"
	 viewBox="298.1 416.1 16 15" enable-background="new 298.1 416.1 16 15" xml:space="preserve">
<symbol  id="drag-luxury" viewBox="-27.8 -23.6 55.6 47.2">
	<g>
		<g>
			<polygon fill="#7AAD38" points="-18.5,23.6 -27.8,12.3 -9.3,12.3 -18.5,23.6 -27.8,12.3 -9.3,12.3 			"/>
		</g>
		<g>
			<polygon fill="#7AAD38" points="0,23.6 -9.3,12.3 9.3,12.3 0,23.6 -9.3,12.3 9.3,12.3 			"/>
		</g>
		<g>
			<polygon fill="#7AAD38" points="18.5,23.6 9.3,12.3 27.8,12.3 18.5,23.6 9.3,12.3 27.8,12.3 			"/>
		</g>
		<g>
			<polygon fill="#7AAD38" points="9.3,12.3 18.5,23.6 0,23.6 9.3,12.3 18.5,23.6 0,23.6 			"/>
		</g>
		<g>
			<polygon fill="#7AAD38" points="-9.3,12.3 0,23.6 -18.5,23.6 -9.3,12.3 0,23.6 -18.5,23.6 			"/>
		</g>
		<g>
			<polygon fill="#7AAD38" points="0,-23.6 27.8,12.3 9.3,12.3 			"/>
		</g>
		<g>
			<polygon fill="#7AAD38" points="0,-23.6 9.3,12.3 -9.3,12.3 			"/>
		</g>
		<g>
			<polygon fill="#7AAD38" points="0,-23.6 -9.3,12.3 -27.8,12.3 			"/>
		</g>
	</g>
</symbol>
<g>
	<g>
		<polygon fill="#FFFFFF" points="300.8,417.5 298.1,420.7 303.4,420.7 300.8,417.5 298.1,420.7 303.4,420.7 		"/>
		<polygon fill="#FFFFFF" points="306.1,417.5 303.4,420.7 308.8,420.7 306.1,417.5 303.4,420.7 308.8,420.7 		"/>
		<polygon fill="#FFFFFF" points="311.5,417.5 308.8,420.7 314.1,420.7 311.5,417.5 308.8,420.7 314.1,420.7 		"/>
		<polygon fill="#FFFFFF" points="308.8,420.7 311.5,417.5 306.1,417.5 308.8,420.7 311.5,417.5 306.1,417.5 		"/>
		<polygon fill="#FFFFFF" points="303.4,420.7 306.1,417.5 300.8,417.5 303.4,420.7 306.1,417.5 300.8,417.5 		"/>
		<polygon fill="#FFFFFF" points="306.1,431.1 314.1,420.7 308.8,420.7 		"/>
		<polygon fill="#FFFFFF" points="306.1,431.1 308.8,420.7 303.4,420.7 		"/>
		<polygon fill="#FFFFFF" points="306.1,431.1 303.4,420.7 298.1,420.7 		"/>
	</g>
	<g>
		
			<use xlink:href="#drag-luxury"  width="55.6" height="47.2" x="-27.8" y="-23.6" transform="matrix(0.2877 0 0 -0.2877 306.1248 422.8395)" overflow="visible"/>
	</g>
</g>
</svg>
