<?xml version="1.0" encoding="utf-8"?>
<!-- Generator: Adobe Illustrator 18.1.1, SVG Export Plug-In . SVG Version: 6.00 Build 0)  -->
<svg version="1.1" id="Layer_1" xmlns="http://www.w3.org/2000/svg" xmlns:xlink="http://www.w3.org/1999/xlink" x="0px" y="0px"
	 viewBox="297.9 416.8 16 17.4" enable-background="new 297.9 416.8 16 17.4" xml:space="preserve">
<symbol  id="drag-ecoFriendly" viewBox="-26.6 -26.4 53.3 52.8">
	<g>
		<path fill="#7AAD38" d="M24.4,1.6c0-11-9.2-20.1-20.5-20.1s-20.9,0-21.4,0s-0.9,0.6-0.9,1.3s0,10.4,0,21.4s9.1,20.1,20.2,20.1
			s21.5,0.8,23.1,1.7c1.6,0.9,2.2,0.3,1.3-1.4C25.1,23,24.4,12.6,24.4,1.6z"/>
		<path fill="#7AAD38" d="M-20-24.7c0,0-0.1,1.6,2.7,4.5c6.4,6.6,18.9,19.7,32.4,34.5c0,0,10.6,11.3,8.1,9c2.2,2.5-9-8.1-9-8.1
			c-14.7-13.4-27.9-26-34.5-32.4c-2.9-2.8-4.5-2.7-4.5-2.7c-1,0-1.8-0.7-1.8-1.7v-3.9c0-0.1,0-0.1,0-0.2c-0.1-0.2,0-0.4,0.2-0.5
			c0.1-0.2,0.3-0.2,0.5-0.2c0.1,0,0.1,0,0.2,0h3.9C-20.7-26.5-19.9-25.7-20-24.7z"/>
	</g>
</symbol>
<g>
	<g>
		<path fill="#FFFFFF" d="M313.2,425.7c0,3.3-2.8,6.1-6.2,6.1s-6.3,0-6.5,0c-0.2,0-0.3-0.2-0.3-0.4s0-3.1,0-6.5s2.7-6.1,6.1-6.1
			s6.5-0.2,7-0.5c0.5-0.3,0.7-0.1,0.4,0.4S313.2,422.4,313.2,425.7z"/>
		<path fill="#FFFFFF" d="M299.9,433.7c0,0,0-0.5,0.8-1.4c1.9-2,5.7-5.9,9.8-10.4c0,0,3.2-3.4,2.4-2.7c0.7-0.8-2.7,2.4-2.7,2.4
			c-4.4,4.1-8.4,7.8-10.4,9.8c-0.9,0.8-1.4,0.8-1.4,0.8c-0.3,0-0.5,0.2-0.5,0.5v1.2c0,0,0,0,0,0.1c0,0.1,0,0.1,0.1,0.2
			c0,0.1,0.1,0.1,0.2,0.1c0,0,0,0,0.1,0h1.2C299.6,434.2,299.9,434,299.9,433.7z"/>
	</g>
	<g>
		
			<use xlink:href="#drag-ecoFriendly"  width="53.3" height="52.8" x="-26.6" y="-26.4" transform="matrix(0.3001 0 0 -0.3001 305.8895 424.6952)" overflow="visible"/>
	</g>
</g>
</svg>
