<?xml version="1.0" encoding="utf-8"?>
<!-- Generator: Adobe Illustrator 18.1.1, SVG Export Plug-In . SVG Version: 6.00 Build 0)  -->
<svg version="1.1" id="Layer_1" xmlns="http://www.w3.org/2000/svg" xmlns:xlink="http://www.w3.org/1999/xlink" x="0px" y="0px"
	 viewBox="52 768.9 16 23" enable-background="new 52 768.9 16 23" xml:space="preserve">
<symbol  id="drag-safety_2" viewBox="-20.9 -27.6 41.8 55.2">
	<path fill="#7AAD38" d="M20.9,23.9c0,0,0-14,0-25C20.9-18,0-27.6,0-27.6L-7.7,2.5L0,27.6L20.9,23.9z"/>
	<path fill="#7AAD38" d="M-20.9,23.9c0,0,0-14,0-25C-20.9-18,0-27.6,0-27.6v55.2L-20.9,23.9z"/>
</symbol>
<g>
	<g>
		<path fill="#FFFFFF" d="M68,772.3c0,0,0,5.4,0,9.6c0,6.5-8,10.1-8,10.1L57,780.5l2.9-9.6L68,772.3z"/>
		<path fill="#FFFFFF" d="M52,772.3c0,0,0,5.4,0,9.6c0,6.5,8,10.1,8,10.1v-21.1L52,772.3z"/>
	</g>
	<g>
		
			<use xlink:href="#drag-safety_2"  width="41.8" height="55.2" x="-20.9" y="-27.6" transform="matrix(0.3827 0 0 -0.3827 59.9884 779.5012)" overflow="visible"/>
	</g>
</g>
</svg>
