<?xml version="1.0" encoding="utf-8"?>
<!-- Generator: Adobe Illustrator 18.1.1, SVG Export Plug-In . SVG Version: 6.00 Build 0)  -->
<svg version="1.1" id="Layer_1" xmlns="http://www.w3.org/2000/svg" xmlns:xlink="http://www.w3.org/1999/xlink" x="0px" y="0px"
	 viewBox="298 413.7 16 9.4" enable-background="new 298 413.7 16 9.4" xml:space="preserve">
<g>
	<g>
		<path fill="#FFFFFF" d="M314,421.2c0,0-0.1-1-0.8-2.2c-1.4-2.5-4.1-4.1-7.2-4.1c-3.1,0-5.8,1.7-7.2,4.2c-0.7,1.2-0.8,2.1-0.8,2.1
			c-0.1,1,0.6,1.9,1.6,1.9h5.2c0-0.6,1.1-6.5,1.1-6.5s1.1,5.9,1.1,6.5h5.2C313.4,423.1,314.1,422.3,314,421.2z"/>
	</g>
	<g>
		<g>
			<path fill="#7AAD38" d="M314,420.1c0,0-0.1-1-0.8-2.2c-1.4-2.5-4.1-4.1-7.2-4.1c-3.1,0-5.8,1.7-7.2,4.2c-0.7,1.2-0.8,2.1-0.8,2.1
				c-0.1,1,0.6,1.9,1.6,1.9h5.2c0-0.6,1.1-6.5,1.1-6.5s1.1,5.9,1.1,6.5h5.2C313.4,421.9,314.1,421.1,314,420.1z"/>
		</g>
	</g>
</g>
</svg>
