<?xml version="1.0" encoding="utf-8"?>
<!-- Generator: Adobe Illustrator 18.1.1, SVG Export Plug-In . SVG Version: 6.00 Build 0)  -->
<svg version="1.1" id="Layer_1" xmlns="http://www.w3.org/2000/svg" xmlns:xlink="http://www.w3.org/1999/xlink" x="0px" y="0px"
	 viewBox="281 371 50 50" enable-background="new 281 371 50 50" xml:space="preserve">
<g id="New_Symbol_55">
	<g>
		<path fill="#9BCC50" d="M306,399.2c3.2,0,6.2,1.3,8.3,3.5l1.5-1.5c-2.5-2.5-6-4.1-9.9-4.1s-7.4,1.6-9.9,4.1l1.5,1.5
			C299.8,400.5,302.8,399.2,306,399.2z"/>
		<path fill="#9BCC50" d="M306,378c9.1,0,17.3,3.7,23.3,9.7l1.5-1.5c-6.4-6.4-15.2-10.3-24.8-10.3s-18.5,3.9-24.8,10.3l1.5,1.5
			C288.7,381.7,296.9,378,306,378z"/>
		<path fill="#9BCC50" d="M306,385c7.1,0,13.6,2.9,18.3,7.6l1.5-1.5c-5.1-5.1-12.1-8.2-19.9-8.2s-14.8,3.2-19.8,8.2l1.5,1.5
			C292.4,388,298.9,385,306,385z"/>
		<path fill="#9BCC50" d="M306,392.1c5.2,0,9.9,2.1,13.3,5.5l1.5-1.5c-3.8-3.8-9.1-6.2-14.9-6.2s-11.1,2.3-14.9,6.2l1.5,1.5
			C296.1,394.2,300.8,392.1,306,392.1z"/>
	</g>
	<polygon fill="#BCBEC0" points="311.2,407.2 309.7,405.7 306,409.4 302.3,405.7 300.8,407.2 304.5,410.9 300.8,414.7 302.3,416.2 
		306,412.5 309.7,416.2 311.2,414.7 307.5,410.9 	"/>
</g>
</svg>
