<?xml version="1.0" encoding="utf-8"?>
<!-- Generator: Adobe Illustrator 18.1.1, SVG Export Plug-In . SVG Version: 6.00 Build 0)  -->
<svg version="1.1" id="Layer_5" xmlns="http://www.w3.org/2000/svg" xmlns:xlink="http://www.w3.org/1999/xlink" x="0px" y="0px"
	 viewBox="281 371 50 50" enable-background="new 281 371 50 50" xml:space="preserve">
<g>
	<g>
		<g>
			<polygon fill="#BCBEC0" points="307.4,403.1 304.5,403.1 303.9,387.8 308,387.8 			"/>
		</g>
		<g>
			<path fill="#9ACB50" d="M325.3,418.3h-38.6c-2.3,0-4.1-0.9-5-2.4s-0.7-3.5,0.4-5.6l19.3-33.4c1.2-2,2.8-3.2,4.6-3.2
				s3.4,1.1,4.6,3.2l19.3,33.4c1.2,2,1.3,4,0.4,5.6S327.7,418.3,325.3,418.3z M306,376.1c-0.9,0-1.8,0.7-2.6,2l-19.3,33.4
				c-0.7,1.2-0.9,2.4-0.4,3.2s1.5,1.2,3,1.2h38.6c1.4,0,2.5-0.5,3-1.2s0.3-1.9-0.4-3.2L308.6,378C307.8,376.8,306.9,376.1,306,376.1
				z"/>
		</g>
		<g>
			<path fill="#BCBEC0" d="M305.9,409.9c-1.1,0-2-0.9-2-2c0-1.1,0.9-2,2-2s2,0.9,2,2C308,409,307.1,409.9,305.9,409.9z"/>
		</g>
	</g>
</g>
</svg>
